<svg width="120" height="40" viewBox="0 0 120 40" fill="none" xmlns="http://www.w3.org/2000/svg">
<path d="M20.9599 0.804693L32.9974 7.81135C34.8303 8.8782 35.9585 10.844 35.9585 12.9707V27.0293C35.9585 29.156 34.8303 31.1218 32.9974 32.1887L20.9599 39.1953C19.1165 40.2682 16.842 40.2682 14.9987 39.1953L2.9611 32.1887C1.12823 31.1218 0 29.156 0 27.0293V12.9707C0 10.844 1.12823 8.8782 2.9611 7.81135L14.9987 0.804693C16.842 -0.268231 19.1165 -0.268231 20.9599 0.804693Z" fill="#162A4E"/>
<path fill-rule="evenodd" clip-rule="evenodd" d="M34.7148 13.103C34.7148 11.2542 33.7353 9.54533 32.1442 8.61791L20.5147 1.83954C18.9145 0.90684 16.9399 0.90684 15.3397 1.83954L3.71024 8.61791C2.11909 9.54533 1.13965 11.2542 1.13965 13.103V26.69C1.13965 28.5388 2.11909 30.2477 3.71024 31.1751L15.3397 37.9534C16.9399 38.8861 18.9145 38.8861 20.5147 37.9534L32.1442 31.1751C33.7353 30.2477 34.7148 28.5388 34.7148 26.69V13.103ZM4.30724 9.65295L15.9367 2.87458C17.1676 2.15711 18.6866 2.15711 19.9175 2.87458L31.547 9.65295C32.7709 10.3663 33.5243 11.6809 33.5243 13.103V26.69C33.5243 28.1121 32.7709 29.4267 31.547 30.1401L19.9175 36.9184C18.6866 37.6359 17.1676 37.6359 15.9367 36.9184L4.30724 30.1401C3.08327 29.4267 2.32986 28.1121 2.32986 26.69V13.103C2.32986 11.6809 3.08327 10.3663 4.30724 9.65295Z" fill="white"/>
<mask id="mask0" mask-type="alpha" maskUnits="userSpaceOnUse" x="3" y="3" width="30" height="32">
<path fill-rule="evenodd" clip-rule="evenodd" d="M3.4292 13.7041C3.4292 12.279 4.18326 10.9617 5.40834 10.2466L15.9904 4.06987C17.2209 3.3516 18.7392 3.35033 19.971 4.06654L23.8005 6.29325C23.8607 6.32829 23.9108 6.37864 23.9456 6.43927C24.0554 6.63038 23.9905 6.87488 23.8006 6.98538L10.002 15.0131C9.87923 15.0845 9.80361 15.2164 9.80361 15.3591V18.6724C9.80361 18.7428 9.78509 18.8121 9.74994 18.873C9.63981 19.0639 9.39672 19.1289 9.20698 19.0181L6.74187 17.5784C6.68129 17.543 6.6125 17.5244 6.54247 17.5244C6.32308 17.5244 6.14524 17.7033 6.14524 17.9241V26.4441C6.14524 26.5871 6.22112 26.7191 6.34424 26.7905L9.60461 28.6798C9.72773 28.7511 9.80361 28.8832 9.80361 29.0261V31.3602C9.80361 31.4307 9.78507 31.5 9.74986 31.561C9.63966 31.7519 9.39655 31.8167 9.20685 31.7058L5.40619 29.4842C4.18232 28.7688 3.4292 27.4521 3.4292 26.0279V13.7041ZM11.6029 32.8786V16.4117C11.6029 16.2687 11.6788 16.1366 11.8019 16.0653L17.7727 12.6072C17.8959 12.5359 18.0476 12.5362 18.1705 12.6081L24.1432 16.1017C24.2655 16.1732 24.3408 16.3049 24.3408 16.4473V32.88C24.3408 33.0228 24.2651 33.1547 24.1422 33.2262L22.2363 34.3337C22.0463 34.4441 21.8034 34.3786 21.6937 34.1874C21.6588 34.1266 21.6404 34.0577 21.6404 33.9875V25.8758C21.6404 25.655 21.4626 25.4761 21.2432 25.4761C21.173 25.4761 21.1041 25.4948 21.0434 25.5303L18.18 27.2073C18.0562 27.2798 17.9032 27.2796 17.7796 27.2069L14.9345 25.5325C14.7452 25.421 14.5019 25.4852 14.3911 25.6757C14.3555 25.7369 14.3368 25.8066 14.3368 25.8775V33.9918C14.3368 34.2125 14.1589 34.3915 13.9395 34.3915C13.8705 34.3915 13.8027 34.3734 13.7427 34.339L11.8033 33.2258C11.6794 33.1547 11.6029 33.0221 11.6029 32.8786ZM32.5242 13.4895V15.376C32.5242 15.5178 32.4496 15.649 32.3281 15.7207L29.0788 17.6402C28.9573 17.712 28.8827 17.8431 28.8827 17.9849V20.2067C28.8827 20.4275 29.0605 20.6064 29.2799 20.6064C29.3495 20.6064 29.4179 20.588 29.4783 20.553L31.9286 19.1316C32.1187 19.0213 32.3616 19.087 32.4711 19.2782C32.5059 19.3389 32.5242 19.4078 32.5242 19.4779V26.024C32.5242 27.4493 31.77 28.7668 30.5446 29.4818L26.767 31.686C26.5772 31.7968 26.3341 31.7317 26.2241 31.5408C26.189 31.4798 26.1705 31.4107 26.1705 31.3402V29.0911C26.1705 28.9483 26.2462 28.8164 26.369 28.745L29.6078 26.8625C29.7307 26.7911 29.8064 26.6592 29.8064 26.5164V24.2584C29.8064 24.0377 29.6285 23.8587 29.4091 23.8587C29.3392 23.8587 29.2705 23.8773 29.21 23.9126L26.7669 25.3371C26.577 25.4477 26.334 25.3826 26.224 25.1916C26.1889 25.1307 26.1705 25.0616 26.1705 24.9912V15.3844C26.1705 15.2419 26.0951 15.1102 25.9727 15.0387L20.3533 11.7562C20.1635 11.6454 20.099 11.4008 20.2091 11.2098C20.2439 11.1496 20.2936 11.0996 20.3535 11.0647L25.9714 7.78816C26.0945 7.71633 26.2464 7.7163 26.3696 7.78807L30.705 10.3141C31.831 10.9702 32.5242 12.1802 32.5242 13.4895Z" fill="white"/>
</mask>
<g mask="url(#mask0)">
<path d="M34.5012 10.1716V29.8312L17.6188 39.661L17.5828 19.9543L34.5012 10.1716Z" fill="#E6E6E6"/>
<path d="M18.0107 19.8415V36.8208L3.44067 28.3374V11.3706L18.0107 19.8415Z" fill="#D2D2D2"/>
<path d="M18.0107 2.88733L32.7704 11.4812L17.9792 20.075L3.25098 11.4812L18.0107 2.88733Z" fill="white"/>
</g>
<path fill-rule="evenodd" clip-rule="evenodd" d="M108.365 26.2177V16.2633L106.908 21.6925H105.146L103.621 16.2633V26.2177H101.554V13.7825H105.078L106.078 18.5612L107.095 13.7825H110.466V26.2177H108.365ZM96.4321 26.2173C96.7304 26.2175 98.3603 26.2185 98.4457 26.1962V24.1733C98.3542 24.1733 98.0189 24.1707 97.6407 24.1677C97.1517 24.1638 96.591 24.1594 96.3934 24.1594C96.1486 24.1594 95.9128 24.1091 95.7319 24.0087C95.551 23.9082 95.4068 23.7043 95.2994 23.3969C95.192 23.0895 95.1128 22.693 95.0619 22.1374C95.0111 21.5818 95.0139 18.2658 95.0704 17.722C95.127 17.1782 95.2118 16.7994 95.3248 16.5157C95.4379 16.232 95.6033 16.1169 95.7573 16.0271C95.9114 15.9373 96.1446 15.8591 96.3934 15.8591C96.5499 15.8591 97.0132 15.8555 97.4645 15.8519L97.4648 15.8519C97.8935 15.8485 98.3114 15.8452 98.4457 15.8452V13.8045C98.2199 13.7902 97.0549 13.7928 97.0549 13.7928C96.8739 13.7751 95.3983 13.7642 94.9008 13.9002C94.4033 14.0361 93.9849 14.2819 93.6457 14.7075C93.3065 15.1331 93.0521 15.7507 92.8825 16.5605C92.7129 17.3703 92.7015 22.2408 92.8485 23.0861C92.9955 23.9313 93.2245 24.5934 93.5355 25.0721C93.8464 25.5509 94.2393 25.879 94.7142 26.0563C95.1519 26.2197 95.6615 26.2187 96.2432 26.2175L96.3934 26.2173L96.4321 26.2173ZM42.5906 23.0379C42.5906 23.9942 42.8513 24.7115 43.3727 25.1896C43.8942 25.6678 44.6427 25.9069 45.6183 25.9069H48.3937V19.6964H45.5846V20.9621H46.9976V24.6243H45.4501C45.0352 24.6243 44.6988 24.5005 44.4408 24.253C44.1829 24.0055 44.054 23.7073 44.054 23.3585V16.6417C44.054 16.293 44.1829 15.9948 44.4408 15.7473C44.6988 15.4998 45.0352 15.376 45.4501 15.376H47.8891V14.0934H45.6183C44.6427 14.0934 43.8942 14.3325 43.3727 14.8107C42.8513 15.2888 42.5906 16.0061 42.5906 16.9624V23.0379ZM53.9001 21.0126H55.3988L57.5711 25.9067H59.1709L56.8302 20.7257C57.8406 20.4106 58.3457 19.6174 58.3457 18.3461V16.726C58.3457 15.8146 58.1016 15.148 57.6132 14.7261C57.1249 14.3042 56.4036 14.0932 55.4494 14.0932H52.4351V25.9067H53.9001V21.0126ZM55.7551 15.3367C56.1852 15.3367 56.4993 15.4361 56.6974 15.6349C56.8955 15.8336 56.9945 16.1551 56.9945 16.5994V18.6161C56.9945 19.0604 56.8955 19.3848 56.6974 19.5894C56.4993 19.794 56.1852 19.8963 55.7551 19.8963H53.9894V15.3367H55.7551ZM67.0878 22.9196L67.7266 25.9067H69.2228L66.4322 14.0932H64.499L61.658 25.9067H63.1541L63.8097 22.9196H67.0878ZM63.9377 21.4508L65.3281 15.026L66.7356 21.4508H63.9377ZM75.6382 21.3163C76.5971 21.3163 77.322 21.0998 77.8129 20.6666C78.3038 20.2334 78.5492 19.5612 78.5492 18.6499V16.726C78.5492 15.8146 78.3009 15.148 77.8043 14.7261C77.3077 14.3042 76.5743 14.0932 75.604 14.0932H72.5388V25.9067H74.0286V21.3163H75.6382ZM75.8589 15.3367C76.289 15.3367 76.6031 15.4339 76.8012 15.6282C76.9992 15.8226 77.0983 16.1369 77.0983 16.5713V18.8518C77.0983 19.2862 76.9992 19.6034 76.8012 19.8035C76.6031 20.0035 76.289 20.1036 75.8589 20.1036H74.0931V15.3367H75.8589ZM87.1537 20.4725V25.9067H88.601V14.0932H87.1537V19.2237H83.727V14.0932H82.2797V25.9067H83.727V20.4725H87.1537ZM119.501 24.5003C119.695 23.9978 119.793 23.3329 119.793 22.5053C119.793 21.8433 119.729 21.2876 119.601 20.8384C119.473 20.3892 119.29 20.0168 119.05 19.7212C118.811 19.4257 118.528 19.1922 118.2 19.0208C117.872 18.8494 117.508 18.7223 117.107 18.6395C116.841 18.5804 116.624 18.5154 116.457 18.4445C116.29 18.3735 116.157 18.2819 116.057 18.1696C115.957 18.0573 115.887 17.9095 115.848 17.7263C115.809 17.543 115.79 17.3096 115.79 17.0258C115.79 16.5766 115.918 16.2515 116.173 16.0505C116.429 15.8495 116.796 15.7491 117.274 15.7491C117.344 15.7491 117.828 15.7461 118.329 15.7431C118.866 15.7399 119.423 15.7366 119.509 15.7366V13.7826C119.456 13.7818 119.1 13.7849 118.696 13.7884C118.167 13.7931 117.557 13.7984 117.441 13.7965C116.807 13.7862 116.243 13.7886 115.748 13.9127C115.253 14.0369 114.836 14.1708 114.497 14.4545C114.158 14.7383 113.902 15.1048 113.73 15.554C113.558 16.0032 113.471 16.5589 113.471 17.2209C113.471 18.2612 113.669 19.0651 114.064 19.6326C114.458 20.2 115.123 20.5842 116.057 20.7852C116.279 20.8325 116.479 20.8975 116.657 20.9803C116.835 21.063 116.985 21.1753 117.107 21.3172C117.23 21.4591 117.321 21.6423 117.383 21.8669C117.444 22.0915 117.474 22.3634 117.474 22.6826C117.474 23.2501 117.321 23.6491 117.016 23.8796C116.71 24.1101 116.296 24.2254 115.773 24.2254C115.689 24.2254 115.166 24.2244 114.65 24.2235C114.146 24.2225 113.65 24.2216 113.572 24.2216V26.1919C113.782 26.2067 115.762 26.2129 115.94 26.2129C116.055 26.2129 116.169 26.2142 116.281 26.2154C116.708 26.22 117.108 26.2243 117.483 26.1588C117.955 26.076 118.361 25.9337 118.7 25.6618C119.039 25.3899 119.306 25.0027 119.501 24.5003Z" fill="#162A4E"/>
</svg>
