<svg width="148" height="44" viewBox="0 0 148 44" fill="none" xmlns="http://www.w3.org/2000/svg">
<mask id="mask0" mask-type="alpha" maskUnits="userSpaceOnUse" x="8" y="12" width="23" height="25">
<path fill-rule="evenodd" clip-rule="evenodd" d="M8.01172 12.4988V36.0815H30.7271V12.4988H8.01172V12.4988Z" fill="white"/>
</mask>
<g mask="url(#mask0)">
<path fill-rule="evenodd" clip-rule="evenodd" d="M30.7056 24.0208C30.5719 22.1328 30.1278 20.3306 29.4282 18.6566C29.2428 18.2133 29.0458 17.7758 28.8252 17.3515C29.6069 16.8973 30.1325 16.0638 30.1325 15.1077C30.1325 13.6669 28.9422 12.4988 27.4738 12.4988H11.2554C9.78716 12.4988 8.59669 13.6669 8.59669 15.1077C8.59669 16.063 9.12155 16.8959 9.90221 17.3506C9.68164 17.7747 9.48482 18.2119 9.29948 18.6551C8.59942 20.3295 8.15516 22.1323 8.02122 24.0206C8.0111 24.2452 8 24.4699 8 24.697C8 26.329 8.2706 27.8981 8.76314 29.3685C8.90993 29.7823 9.19241 30.495 9.53836 30.9708C9.57612 31.0198 9.61175 31.0673 9.65497 31.1187C9.66003 31.1246 9.66509 31.1313 9.67015 31.1372C9.82356 31.3181 10.0097 31.512 10.2336 31.7042C10.4596 31.8968 10.7212 32.0891 11.0191 32.2498C11.3136 32.4099 11.6571 32.539 11.996 32.582C12.3509 32.6319 12.7251 32.5721 13.0109 32.3753C13.3021 32.1835 13.5104 31.8475 13.6309 31.4679C13.8713 30.6984 13.8447 29.8268 13.7711 29.0384C13.6905 28.2435 13.5437 27.505 13.3981 26.8773C13.1022 25.6212 12.8119 24.8055 12.8119 24.8055C12.8119 24.8055 13.1586 25.5985 13.5445 26.8391C13.7353 27.4597 13.9358 28.1927 14.0752 28.9987C14.204 29.8033 14.308 30.6897 14.0979 31.5955C13.9901 32.0406 13.7652 32.5102 13.3556 32.8273C12.9456 33.1499 12.433 33.2498 11.9728 33.2607C11.4883 33.264 11.058 33.1555 10.6679 33.0097C10.6204 32.9918 10.5799 32.9685 10.5336 32.9494C11.2471 34.0052 12.0966 34.9624 13.0519 35.8075C13.5616 36.0824 14.3919 36.2857 15.4917 35.7252C17.4094 34.7481 19.3272 34.6396 19.3272 34.6396C19.3272 34.6396 21.2448 34.7481 23.1626 35.7252C24.451 36.3818 25.3699 35.9909 25.8354 35.6637C26.7223 34.856 27.5154 33.9511 28.1875 32.9581C28.1444 32.9759 28.1067 32.9977 28.0625 33.0145C27.6723 33.1602 27.2421 33.2688 26.7575 33.2655C26.2973 33.2544 25.7847 33.1547 25.3747 32.8321C24.9651 32.5148 24.7403 32.0454 24.6324 31.6003C24.4224 30.6942 24.5261 29.808 24.6552 29.0034C24.7946 28.1973 24.9951 27.4645 25.1859 26.8438C25.5718 25.6031 25.9185 24.8101 25.9185 24.8101C25.9185 24.8101 25.6282 25.6258 25.3323 26.882C25.1867 27.5096 25.0399 28.2483 24.9593 29.0432C24.8857 29.8315 24.859 30.7032 25.0995 31.4725C25.22 31.8523 25.4283 32.1881 25.7195 32.3801C26.0053 32.5768 26.3797 32.6366 26.7344 32.5866C27.0733 32.5438 27.4167 32.4145 27.7113 32.2546C28.0091 32.0937 28.2708 31.9014 28.4968 31.709C28.8009 31.4479 29.0312 31.1863 29.208 30.9554C29.4838 30.5703 29.7182 30.0384 29.8748 29.6313C30.4253 28.0863 30.7271 26.4264 30.7271 24.697C30.7271 24.4699 30.716 24.2454 30.7056 24.0208" fill="#F6C724"/>
</g>
<path fill-rule="evenodd" clip-rule="evenodd" d="M16.9793 16.9714C16.9793 18.2863 15.8932 19.3522 14.5532 19.3522C13.2133 19.3522 12.127 18.2863 12.127 16.9714C12.127 15.6565 13.2133 14.5906 14.5532 14.5906C15.8932 14.5906 16.9793 15.6565 16.9793 16.9714" fill="#FFFFFE"/>
<path fill-rule="evenodd" clip-rule="evenodd" d="M11.2554 13.799C10.5187 13.799 9.92163 14.3848 9.92163 15.1077C9.92163 15.5765 10.1749 15.9847 10.5524 16.2159C11.014 15.472 11.5291 14.7638 12.0956 14.0989C11.8657 13.9143 11.5756 13.799 11.2554 13.799" fill="#26292D"/>
<path fill-rule="evenodd" clip-rule="evenodd" d="M27.4737 13.799C27.1529 13.799 26.8624 13.9147 26.6323 14.1C27.1986 14.765 27.7136 15.4729 28.1752 16.2168C28.5536 15.9859 28.8077 15.5773 28.8077 15.1077C28.8077 14.3848 28.2104 13.799 27.4737 13.799" fill="#26292D"/>
<path fill-rule="evenodd" clip-rule="evenodd" d="M14.5533 15.9119C14.4784 15.9119 14.4054 15.9193 14.3349 15.9336C14.3781 16.0144 14.403 16.1063 14.403 16.204C14.403 16.5251 14.1377 16.7854 13.8102 16.7854C13.7004 16.7854 13.5978 16.7556 13.5095 16.7045C13.4869 16.7898 13.4736 16.8789 13.4736 16.9713C13.4736 17.5564 13.957 18.0308 14.5533 18.0308C15.1496 18.0308 15.633 17.5564 15.633 16.9713C15.633 16.3862 15.1496 15.9119 14.5533 15.9119" fill="#26292D"/>
<path fill-rule="evenodd" clip-rule="evenodd" d="M26.5999 16.9714C26.5999 18.2863 25.5138 19.3522 24.1738 19.3522C22.8339 19.3522 21.7476 18.2863 21.7476 16.9714C21.7476 15.6565 22.8339 14.5906 24.1738 14.5906C25.5138 14.5906 26.5999 15.6565 26.5999 16.9714" fill="#FFFFFE"/>
<path fill-rule="evenodd" clip-rule="evenodd" d="M24.1737 15.9119C24.0987 15.9119 24.0257 15.9193 23.9553 15.9336C23.9987 16.0144 24.0234 16.1063 24.0234 16.204C24.0234 16.5251 23.758 16.7854 23.4306 16.7854C23.3208 16.7854 23.2182 16.7556 23.1298 16.7045C23.1072 16.7898 23.094 16.8789 23.094 16.9713C23.094 17.5564 23.5774 18.0308 24.1737 18.0308C24.77 18.0308 25.2534 17.5564 25.2534 16.9713C25.2534 16.3862 24.77 15.9119 24.1737 15.9119" fill="#26292D"/>
<path fill-rule="evenodd" clip-rule="evenodd" d="M22.6258 21.5686C22.6258 23.3562 21.149 24.8056 19.3272 24.8056C17.5052 24.8056 16.0283 23.3562 16.0283 21.5686C16.0283 19.7807 17.5052 18.3315 19.3272 18.3315C21.149 18.3315 22.6258 19.7807 22.6258 21.5686" fill="#FFFFFE"/>
<path fill-rule="evenodd" clip-rule="evenodd" d="M21.0388 19.8008C21.0388 19.7561 21.0302 19.7139 21.0177 19.673C21.0125 19.653 21.0082 19.6411 21.0082 19.6411H21.0078C20.9922 19.6014 20.9714 19.5645 20.9457 19.5311L20.9459 19.5307C20.9459 19.5307 20.7522 19.1385 19.3468 19.1349V19.1345C19.3433 19.1345 19.3404 19.1347 19.3371 19.1347C19.3336 19.1347 19.3307 19.1345 19.3273 19.1345V19.1349C18.5097 19.137 18.103 19.2702 17.9054 19.3817C17.7861 19.4287 17.6924 19.5231 17.6467 19.6411H17.6461C17.6461 19.6411 17.641 19.6551 17.635 19.6784C17.6237 19.7175 17.6157 19.758 17.6157 19.8008C17.6157 19.8047 17.6167 19.8083 17.6169 19.8121C17.6085 20.0156 17.6765 20.3737 18.1464 20.7411C18.5759 21.0767 18.9109 21.2015 19.1132 21.2488V24.7948C19.1843 24.7991 19.2549 24.8055 19.3271 24.8055C19.3994 24.8055 19.4702 24.7991 19.5413 24.7948V21.2488C19.7436 21.2013 20.0786 21.0765 20.5077 20.7411C20.9757 20.3753 21.045 20.0184 21.0374 19.8146C21.0376 19.81 21.0388 19.8056 21.0388 19.8008" fill="#26292D"/>
<path fill-rule="evenodd" clip-rule="evenodd" d="M14.0193 11.8044H24.6585C23.3845 10.9447 21.8882 10.38 20.2671 10.2238L20.9185 8.48349C20.9185 8.48349 20.5039 8.14441 19.3389 8.14441C18.1739 8.14441 17.7593 8.48349 17.7593 8.48349L18.4107 10.2238C16.7896 10.3798 15.2933 10.9447 14.0193 11.8044" fill="#F6C724"/>
<path fill-rule="evenodd" clip-rule="evenodd" d="M9.79073 29.8922C9.79073 29.8922 9.61435 29.6674 9.42026 29.287C9.225 28.9084 9.02681 28.3733 8.90027 27.823C8.77178 27.2728 8.71046 26.7114 8.698 26.2898C8.6869 25.8676 8.71377 25.5858 8.71377 25.5858C8.71377 25.5858 8.73499 25.654 8.764 25.7734C8.79222 25.8926 8.83272 26.0628 8.881 26.2672C8.97405 26.6751 9.0858 27.2166 9.21312 27.7529C9.33441 28.2904 9.47516 28.8224 9.59138 29.2219C9.65037 29.4225 9.69962 29.5894 9.73408 29.7063C9.77263 29.8236 9.79073 29.8922 9.79073 29.8922" fill="#FFFFFE"/>
<path fill-rule="evenodd" clip-rule="evenodd" d="M26.2427 26.493C26.2427 26.493 26.2378 26.6824 26.2078 26.9571C26.1761 27.2316 26.1142 27.5903 26.04 27.9456C25.9629 28.3004 25.8749 28.6526 25.7955 28.917C25.7587 29.0496 25.7145 29.1589 25.6921 29.2368C25.666 29.3142 25.6467 29.3583 25.6467 29.3583C25.6467 29.3583 25.6154 29.1713 25.6131 28.8916C25.6119 28.6125 25.6493 28.2429 25.726 27.8813C25.8037 27.5198 25.9195 27.1676 26.0303 26.9112C26.1428 26.655 26.2427 26.493 26.2427 26.493" fill="#FFFFFE"/>
<path fill-rule="evenodd" clip-rule="evenodd" d="M11.213 12.8156C11.213 12.8156 11.0144 12.8901 10.7557 13.0426C10.6253 13.1165 10.4801 13.2095 10.3348 13.3194C10.1884 13.4277 10.0446 13.5564 9.91217 13.6951C9.7757 13.8311 9.66143 13.9853 9.55182 14.1311C9.45331 14.2837 9.35773 14.427 9.28822 14.5593C9.20996 14.6875 9.15526 14.8018 9.11515 14.882C9.07388 14.9617 9.04565 15.0073 9.04565 15.0073C9.04565 15.0073 9.04604 14.9557 9.055 14.8656C9.06902 14.7771 9.06843 14.6426 9.11652 14.4932C9.1502 14.3387 9.22067 14.1675 9.30925 13.9884C9.40523 13.8128 9.53041 13.6369 9.67856 13.4793C9.98012 13.1669 10.373 12.9535 10.6852 12.8764C10.9979 12.7927 11.213 12.8156 11.213 12.8156" fill="#FFFFFE"/>
<path fill-rule="evenodd" clip-rule="evenodd" d="M62.4661 27.6316C61.8218 28.2787 61.0309 28.6013 60.0942 28.6013C59.1719 28.6013 58.3882 28.2787 57.7439 27.6316C57.0996 26.9865 56.7778 26.1546 56.7778 25.1384C56.7778 24.136 57.0996 23.3096 57.7439 22.6556C58.3882 22.0022 59.1719 21.6752 60.0942 21.6752C61.0169 21.6752 61.8034 22.0022 62.4553 22.6556C63.1066 23.3096 63.4326 24.136 63.4326 25.1384C63.4326 26.1546 63.1104 26.9865 62.4661 27.6316V27.6316ZM60.0942 19.3236C58.366 19.3236 56.913 19.8719 55.7345 20.9674C54.5554 22.0639 53.9663 23.454 53.9663 25.1384C53.9663 26.8228 54.5554 28.2126 55.7345 29.3091C56.913 30.4056 58.366 30.9538 60.0942 30.9538C61.8367 30.9538 63.2971 30.4056 64.4759 29.3091C65.6544 28.2126 66.2438 26.8228 66.2438 25.1384C66.2438 23.454 65.6509 22.0639 64.4651 20.9674C63.279 19.8719 61.8218 19.3236 60.0942 19.3236V19.3236Z" fill="black"/>
<path fill-rule="evenodd" clip-rule="evenodd" d="M84.715 23.7008C84.8759 23.0046 85.1939 22.4563 85.67 22.057C86.1455 21.6576 86.7425 21.4577 87.4601 21.4577C88.0457 21.4577 88.5399 21.6683 88.943 22.0897C89.3452 22.5108 89.554 23.0477 89.5686 23.7008H84.715V23.7008ZM87.4601 19.3236C85.7764 19.3236 84.4074 19.8649 83.3531 20.9463C82.2987 22.028 81.7715 23.4257 81.7715 25.1384C81.7715 26.7646 82.3244 28.1402 83.4302 29.266C84.5354 30.3905 85.9887 30.9538 87.7896 30.9538C88.3168 30.9538 88.8332 30.8912 89.3382 30.7678C89.8435 30.6451 90.2567 30.5104 90.5792 30.365C90.901 30.2205 91.2121 30.0528 91.5126 29.8643C91.8132 29.6758 92.0068 29.5417 92.0941 29.4614C92.183 29.3821 92.2487 29.3198 92.2912 29.2764L91.1286 27.3594L90.7322 27.6644C90.4833 27.868 90.0958 28.0751 89.5686 28.2856C89.0417 28.4965 88.5145 28.6013 87.9873 28.6013C87.1088 28.6013 86.3543 28.3394 85.7253 27.8167C85.0956 27.2943 84.7293 26.5619 84.6271 25.6177H92.3588L92.4245 24.5936C92.4245 23.0697 91.9856 21.8102 91.1054 20.8151C90.2278 19.8209 89.0122 19.3236 87.4601 19.3236V19.3236Z" fill="black"/>
<path fill-rule="evenodd" clip-rule="evenodd" d="M114.76 27.6971C114.218 28.3149 113.544 28.6233 112.74 28.6233C111.861 28.6233 111.18 28.2856 110.697 27.6105C110.214 26.9355 109.972 26.1332 109.972 25.2036C109.972 24.0429 110.243 23.1676 110.785 22.5797C111.327 21.9918 111.993 21.6972 112.784 21.6972C113.618 21.6972 114.291 22.0173 114.804 22.6556C115.317 23.2945 115.573 24.136 115.573 25.1825C115.573 26.2418 115.302 27.0799 114.76 27.6971V27.6971ZM113.399 19.3236C112.915 19.3236 112.457 19.3891 112.025 19.5194C111.593 19.65 111.257 19.7919 111.016 19.9442C110.774 20.0969 110.551 20.2747 110.345 20.4774C110.14 20.681 110.012 20.8229 109.961 20.9023C109.91 20.9825 109.87 21.0442 109.84 21.0873H109.796V20.652C109.796 19.9408 109.328 19.5845 108.391 19.5845H103.296C102.534 19.5845 102.036 19.9339 101.802 20.63L101.739 20.8132L99.5184 27.2165L96.8824 20.63C96.7358 20.2527 96.5527 19.9839 96.333 19.8243C96.1137 19.6648 95.8061 19.5845 95.4104 19.5845H93.2568L98.2222 30.67L97.8486 31.5197C97.4531 32.4636 96.838 32.935 96.0033 32.935C95.3881 32.935 94.854 32.6813 94.3998 32.1728L93.3244 34.1328L93.6533 34.4158C93.8586 34.6046 94.1954 34.7931 94.6638 34.9826C95.1323 35.1711 95.63 35.2655 96.1572 35.2655C97.0364 35.2655 97.8337 35.0222 98.5519 34.5357C99.2683 34.0491 99.8177 33.3272 100.199 32.3691L104.218 22.3292C104.321 22.0677 104.533 21.9371 104.855 21.9371H106.787C107.109 21.9371 107.271 22.0966 107.271 22.4158V35.0477H110.038V30.4522C110.038 30.0751 110.024 29.7551 109.994 29.4942H110.038L110.345 29.8643C110.551 30.0969 110.92 30.3367 111.455 30.5828C111.989 30.8295 112.586 30.9538 113.245 30.9538C114.738 30.9538 115.968 30.4194 116.935 29.3522C117.901 28.2856 118.384 26.8807 118.384 25.1384C118.384 23.4109 117.93 22.0094 117.023 20.935C116.114 19.8605 114.906 19.3236 113.399 19.3236V19.3236Z" fill="black"/>
<path fill-rule="evenodd" clip-rule="evenodd" d="M128.29 27.6316C127.646 28.2787 126.855 28.6013 125.919 28.6013C124.996 28.6013 124.212 28.2787 123.568 27.6316C122.924 26.9865 122.601 26.1546 122.601 25.1384C122.601 24.136 122.924 23.3096 123.568 22.6556C124.212 22.0022 124.996 21.6752 125.919 21.6752C126.84 21.6752 127.628 22.0022 128.279 22.6556C128.931 23.3096 129.256 24.136 129.256 25.1384C129.256 26.1546 128.935 26.9865 128.29 27.6316V27.6316ZM125.919 19.3236C124.19 19.3236 122.737 19.8719 121.559 20.9674C120.38 22.0639 119.791 23.454 119.791 25.1384C119.791 26.8228 120.38 28.2126 121.559 29.3091C122.737 30.4056 124.19 30.9538 125.919 30.9538C127.661 30.9538 129.121 30.4056 130.3 29.3091C131.479 28.2126 132.068 26.8228 132.068 25.1384C132.068 23.454 131.475 22.0639 130.289 20.9674C129.102 19.8719 127.646 19.3236 125.919 19.3236V19.3236Z" fill="black"/>
<path fill-rule="evenodd" clip-rule="evenodd" d="M139.645 28.3615C139.088 28.3615 138.58 28.2126 138.118 27.9155C137.657 27.6178 137.426 27.0696 137.426 26.2708V21.7848H139.974V19.5845H137.426V16.5579H134.703V19.5845H133.187V21.7848H134.637V26.6192C134.637 27.3311 134.75 27.9517 134.977 28.4814C135.204 29.012 135.483 29.4183 135.812 29.7013C136.142 29.9842 136.533 30.2124 136.987 30.3871C137.441 30.5614 137.844 30.6744 138.195 30.7244C138.547 30.7757 138.912 30.8012 139.293 30.8012C139.629 30.8012 139.916 30.7792 140.149 30.7351V28.3184L139.645 28.3615" fill="black"/>
<path fill-rule="evenodd" clip-rule="evenodd" d="M48.9282 16.7105V21.7847H42.0535V16.7105C42.0535 16.2019 41.9363 15.8283 41.7024 15.5885C41.4679 15.3487 41.0873 15.2288 40.5601 15.2288H39.1763V30.692H42.0535V24.2021H48.9282V30.692H51.8054V15.2288H50.4219C49.4259 15.2288 48.9282 15.7232 48.9282 16.7105" fill="black"/>
<path fill-rule="evenodd" clip-rule="evenodd" d="M75.4024 19.3236C74.3922 19.3236 73.5574 19.5556 72.8982 20.0201C72.2396 20.4856 71.7565 21.0222 71.449 21.6321H71.4052L71.449 21.1528V20.8264C71.449 19.999 70.9583 19.5845 69.9775 19.5845H68.7695V30.692H71.5369V25.5957C71.5369 25.044 71.6099 24.5505 71.7565 24.1149C71.9616 23.4329 72.3307 22.8847 72.8655 22.4702C73.4 22.057 74.0329 21.8499 74.7654 21.8499C75.4247 21.8499 75.882 22.0428 76.1382 22.4271C76.3943 22.8114 76.5228 23.3747 76.5228 24.1149V29.2112C76.5228 29.734 76.6396 30.111 76.8739 30.3439C77.1081 30.5755 77.489 30.692 78.0162 30.692H79.3121V23.5481C79.3121 20.7323 78.0086 19.3236 75.4024 19.3236" fill="black"/>
</svg>
