<?xml version="1.0" encoding="UTF-8"?>
<svg width="50px" height="50px" viewBox="0 0 50 50" version="1.1" xmlns="http://www.w3.org/2000/svg" xmlns:xlink="http://www.w3.org/1999/xlink">
    <!-- Generator: Sketch 52.6 (67491) - http://www.bohemiancoding.com/sketch -->
    <title>logo-graphqlconf</title>
    <desc>Created with Sketch.</desc>
    <defs>
        <filter x="-4.9%" y="-48.8%" width="109.9%" height="202.5%" filterUnits="objectBoundingBox" id="filter-1">
            <feOffset dx="0" dy="2" in="SourceAlpha" result="shadowOffsetOuter1"></feOffset>
            <feGaussianBlur stdDeviation="3" in="shadowOffsetOuter1" result="shadowBlurOuter1"></feGaussianBlur>
            <feColorMatrix values="0 0 0 0 0   0 0 0 0 0   0 0 0 0 0  0 0 0 0.101420969 0" type="matrix" in="shadowBlurOuter1" result="shadowMatrixOuter1"></feColorMatrix>
            <feMerge>
                <feMergeNode in="shadowMatrixOuter1"></feMergeNode>
                <feMergeNode in="SourceGraphic"></feMergeNode>
            </feMerge>
        </filter>
        <linearGradient x1="86.4012189%" y1="17.1161941%" x2="23.2308707%" y2="94.003304%" id="linearGradient-2">
            <stop stop-color="#4101CE" offset="0%"></stop>
            <stop stop-color="#EA0015" offset="100%"></stop>
        </linearGradient>
        <circle id="path-3" cx="18" cy="18" r="18"></circle>
    </defs>
    <g id="landingpages" stroke="none" stroke-width="1" fill="none" fill-rule="evenodd">
        <g id="GraphQL-day-overview02" transform="translate(-319.000000, -1332.000000)">
            <g id="graphql-conf" filter="url(#filter-1)" transform="translate(305.000000, 1315.000000)">
                <g id="logo-graphqlconf" transform="translate(21.000000, 22.000000)">
                    <mask id="mask-4" fill="white">
                        <use xlink:href="#path-3"></use>
                    </mask>
                    <use id="Oval" stroke="#ECEEF1" stroke-width="0.72" fill="url(#linearGradient-2)" fill-rule="nonzero" xlink:href="#path-3"></use>
                    <path d="M10.2513721,14.416129 C9.56025838,14.416129 9,13.8442089 9,13.1387097 C9,12.4332104 9.56025838,11.8612903 10.2513721,11.8612903 C10.9424859,11.8612903 11.5027442,12.4332104 11.5027442,13.1387097 C11.5027442,13.8442089 10.9424859,14.416129 10.2513721,14.416129 Z M10.2513721,24.1387097 C9.56025838,24.1387097 9,23.5667896 9,22.8612903 C9,22.1557911 9.56025838,21.583871 10.2513721,21.583871 C10.9424859,21.583871 11.5027442,22.1557911 11.5027442,22.8612903 C11.5027442,23.5667896 10.9424859,24.1387097 10.2513721,24.1387097 Z M18.5,29 C17.8088863,29 17.2486279,28.4280799 17.2486279,27.7225806 C17.2486279,27.0170814 17.8088863,26.4451613 18.5,26.4451613 C19.1911137,26.4451613 19.7513721,27.0170814 19.7513721,27.7225806 C19.7513721,28.4280799 19.1911137,29 18.5,29 Z M18.5,9.55483871 C17.8088863,9.55483871 17.2486279,8.98291858 17.2486279,8.27741935 C17.2486279,7.57192013 17.8088863,7 18.5,7 C19.1911137,7 19.7513721,7.57192013 19.7513721,8.27741935 C19.7513721,8.98291858 19.1911137,9.55483871 18.5,9.55483871 Z M26.7486279,14.416129 C26.0575141,14.416129 25.4972558,13.8442089 25.4972558,13.1387097 C25.4972558,12.4332104 26.0575141,11.8612903 26.7486279,11.8612903 C27.4397416,11.8612903 28,12.4332104 28,13.1387097 C28,13.8442089 27.4397416,14.416129 26.7486279,14.416129 Z M26.7486279,24.1387097 C26.0575141,24.1387097 25.4972558,23.5667896 25.4972558,22.8612903 C25.4972558,22.1557911 26.0575141,21.583871 26.7486279,21.583871 C27.4397416,21.583871 28,22.1557911 28,22.8612903 C28,23.5667896 27.4397416,24.1387097 26.7486279,24.1387097 Z M10.2513721,20.7464516 C9.95243322,20.7464516 9.7125869,20.5016129 9.7125869,20.1964516 L9.7125869,15.8035484 C9.7125869,15.4983871 9.95243322,15.2535484 10.2513721,15.2535484 C10.550311,15.2535484 10.7901573,15.4983871 10.7901573,15.8035484 L10.7901573,20.1929032 C10.7901573,20.4980645 10.550311,20.7464516 10.2513721,20.7464516 Z M16.1536773,26.8887097 C16.0633004,26.8887097 15.9694475,26.863871 15.8860227,26.8141935 L12.3335163,24.7206452 C12.0762898,24.5680645 11.9859129,24.2309677 12.1353824,23.9683871 C12.2848518,23.7058065 12.615075,23.6135484 12.8723015,23.766129 L16.4248079,25.8596774 C16.6820344,26.0122581 16.7724113,26.3493548 16.6229418,26.6119355 C16.5186608,26.7893548 16.3379071,26.8887097 16.1536773,26.8887097 Z M20.8463227,26.8887097 C20.6586169,26.8887097 20.4778632,26.7893548 20.3805342,26.6119355 C20.2310648,26.3493548 20.3214416,26.0122581 20.5786681,25.8596774 L24.1311745,23.766129 C24.388401,23.6135484 24.7186242,23.7058065 24.8680937,23.9683871 C25.0175631,24.2309677 24.9271862,24.5680645 24.6699598,24.7206452 L21.1174533,26.8141935 C21.0305525,26.863871 20.9401756,26.8887097 20.8463227,26.8887097 Z M26.7486279,20.7464516 C26.449689,20.7464516 26.2098427,20.5016129 26.2098427,20.1964516 L26.2098427,15.8035484 C26.2098427,15.4983871 26.449689,15.2535484 26.7486279,15.2535484 C27.0475668,15.2535484 27.2874131,15.4983871 27.2874131,15.8035484 L27.2874131,20.1929032 C27.2874131,20.4980645 27.0440907,20.7464516 26.7486279,20.7464516 Z M24.3988291,12.3048387 C24.3084523,12.3048387 24.2145993,12.28 24.1311745,12.2303226 L20.5786681,10.1367742 C20.3214416,9.98419355 20.2310648,9.64709677 20.3805342,9.38451613 C20.5300037,9.12193548 20.8602269,9.02967742 21.1174533,9.18225806 L24.6699598,11.2758065 C24.9271862,11.4283871 25.0175631,11.7654839 24.8680937,12.0280645 C24.7672887,12.2054839 24.5865349,12.3048387 24.3988291,12.3048387 Z M12.6011709,12.3048387 C12.4134651,12.3048387 12.2327113,12.2054839 12.1353824,12.0280645 C11.9859129,11.7654839 12.0762898,11.4283871 12.3335163,11.2758065 L15.8860227,9.18225806 C16.1432492,9.02967742 16.4734724,9.12193548 16.6229418,9.38451613 C16.7724113,9.64709677 16.6820344,9.98419355 16.4248079,10.1367742 L12.8723015,12.2303226 C12.7854007,12.2835484 12.6915477,12.3048387 12.6011709,12.3048387 Z M23.349067,22.4887097 L13.650933,22.4887097 C13.3519941,22.4887097 13.1121478,22.243871 13.1121478,21.9387097 C13.1121478,21.6335484 13.3519941,21.3887097 13.650933,21.3887097 L23.349067,21.3887097 C23.6480059,21.3887097 23.8878522,21.6335484 23.8878522,21.9387097 C23.8878522,22.243871 23.6480059,22.4887097 23.349067,22.4887097 Z M12.6845957,20.6222581 C12.5942188,20.6222581 12.5003659,20.5974194 12.4169411,20.5477419 C12.1597146,20.3951613 12.0693377,20.0580645 12.2188072,19.7954839 L16.9914014,11.3574194 C17.1408708,11.0948387 17.471094,11.0025806 17.7283205,11.1551613 C17.985547,11.3077419 18.0759239,11.6448387 17.9264544,11.9074194 L13.1503842,20.3454839 C13.0530553,20.5229032 12.8723015,20.6222581 12.6845957,20.6222581 Z M24.3223564,20.6364516 C24.1346506,20.6364516 23.9538968,20.5370968 23.8565679,20.3596774 L19.0665935,11.8967742 C18.917124,11.6341935 19.0075009,11.2970968 19.2647274,11.1445161 C19.5219539,10.9919355 19.8521771,11.0841935 20.0016465,11.3467742 L24.7916209,19.8132258 C24.9410904,20.0758065 24.8507135,20.4129032 24.593487,20.5654839 C24.5065862,20.6116129 24.4162093,20.6364516 24.3223564,20.6364516 Z" id="logo" fill="#FFFFFF" fill-rule="nonzero" mask="url(#mask-4)"></path>
                </g>
            </g>
        </g>
    </g>
</svg>