<svg width="461" height="40" viewBox="0 0 461 40" fill="none" xmlns="http://www.w3.org/2000/svg">
<g id="organizers-logo">
<g id="Group 7" opacity="0.49281">
<path id="Path 6" d="M167.401 27.2814L152.97 13" stroke="#979797" stroke-width="0.768"/>
<path id="Path 6_2" d="M152.97 27.2814L167.401 13" stroke="#979797" stroke-width="0.768"/>
</g>
<g id="Group 7.1" opacity="0.49281">
<path id="Path 6_3" d="M321.392 27.2814L306.96 13" stroke="#979797" stroke-width="0.768"/>
<path id="Path 6_4" d="M306.96 27.2814L321.392 13" stroke="#979797" stroke-width="0.768"/>
</g>
<g id="Group 2.1">
<g id="graphcms_logo_square">
<path id="BG" d="M361.96 0.804693L373.997 7.81135V7.81135C375.83 8.8782 376.959 10.844 376.959 12.9707V27.0293V27.0293C376.959 29.156 375.83 31.1218 373.997 32.1887L361.96 39.1953V39.1953C360.117 40.2682 357.842 40.2682 355.999 39.1953L343.961 32.1887V32.1887C342.128 31.1218 341 29.156 341 27.0293V12.9707V12.9707C341 10.844 342.128 8.8782 343.961 7.81135L355.999 0.804693V0.804693C357.842 -0.268231 360.117 -0.268231 361.96 0.804693Z" fill="#162A4E"/>
<path id="Path" fill-rule="evenodd" clip-rule="evenodd" d="M375.715 13.103C375.715 11.2542 374.735 9.54533 373.144 8.61791L361.515 1.83954C359.915 0.90684 357.94 0.90684 356.34 1.83954L344.71 8.61791C343.119 9.54533 342.14 11.2542 342.14 13.103V26.69C342.14 28.5388 343.119 30.2477 344.71 31.1751L356.34 37.9534C357.94 38.8861 359.915 38.8861 361.515 37.9534L373.144 31.1751C374.735 30.2477 375.715 28.5388 375.715 26.69V13.103ZM345.307 9.65295L356.937 2.87458C358.168 2.15711 359.687 2.15711 360.917 2.87458L372.547 9.65295C373.771 10.3663 374.524 11.6809 374.524 13.103V26.69C374.524 28.1121 373.771 29.4267 372.547 30.1401L360.917 36.9184C359.687 37.6359 358.168 37.6359 356.937 36.9184L345.307 30.1401C344.083 29.4267 343.33 28.1121 343.33 26.69V13.103C343.33 11.6809 344.083 10.3663 345.307 9.65295Z" fill="white"/>
<g id="Group-Clipped">
<g id="Group Clipped">
<mask id="mask0" mask-type="alpha" maskUnits="userSpaceOnUse" x="344" y="3" width="30" height="32">
<path id="path-4" fill-rule="evenodd" clip-rule="evenodd" d="M344.429 13.7041V13.7041C344.429 12.279 345.183 10.9617 346.408 10.2466V10.2466L356.99 4.06987C358.221 3.3516 359.739 3.35033 360.971 4.06654V4.06654L364.8 6.29325C364.861 6.32829 364.911 6.37864 364.946 6.43927C365.055 6.63038 364.99 6.87488 364.801 6.98538V6.98538L351.002 15.0131C350.879 15.0845 350.804 15.2164 350.804 15.3591V15.3591V18.6724C350.804 18.7428 350.785 18.8121 350.75 18.873C350.64 19.0639 350.397 19.1289 350.207 19.0181V19.0181L347.742 17.5784C347.681 17.543 347.613 17.5244 347.542 17.5244C347.323 17.5244 347.145 17.7033 347.145 17.9241V26.4441C347.145 26.5871 347.221 26.7191 347.344 26.7905V26.7905L350.605 28.6797C350.728 28.7511 350.804 28.8832 350.804 29.0261V31.3602C350.804 31.4307 350.785 31.5 350.75 31.561C350.64 31.7519 350.397 31.8167 350.207 31.7058V31.7058L346.406 29.4842C345.182 28.7688 344.429 27.4521 344.429 26.0279V26.0279V13.7041ZM352.603 32.8786V16.4117C352.603 16.2687 352.679 16.1366 352.802 16.0653L358.773 12.6072C358.896 12.5359 359.048 12.5362 359.17 12.6081L365.143 16.1017C365.266 16.1732 365.341 16.3049 365.341 16.4473V32.88V32.88C365.341 33.0228 365.265 33.1547 365.142 33.2262L363.236 34.3337V34.3337C363.046 34.4441 362.803 34.3786 362.694 34.1874C362.659 34.1266 362.64 34.0577 362.64 33.9875V25.8758C362.64 25.655 362.463 25.4761 362.243 25.4761C362.173 25.4761 362.104 25.4948 362.043 25.5303L359.18 27.2073C359.056 27.2798 358.903 27.2796 358.78 27.2069L355.935 25.5325C355.745 25.421 355.502 25.4852 355.391 25.6757C355.356 25.7369 355.337 25.8066 355.337 25.8775V33.9918V33.9918C355.337 34.2125 355.159 34.3915 354.94 34.3915C354.871 34.3915 354.803 34.3734 354.743 34.339L352.803 33.2258V33.2258C352.679 33.1547 352.603 33.0221 352.603 32.8786V32.8786ZM373.524 13.4895V15.376C373.524 15.5178 373.45 15.649 373.328 15.7207L370.079 17.6402V17.6402C369.957 17.712 369.883 17.8431 369.883 17.9849V20.2067C369.883 20.4275 370.06 20.6064 370.28 20.6064C370.35 20.6064 370.418 20.588 370.478 20.553L372.929 19.1316C373.119 19.0213 373.362 19.087 373.471 19.2782C373.506 19.3389 373.524 19.4078 373.524 19.4779V26.024C373.524 27.4493 372.77 28.7668 371.545 29.4818L367.767 31.686C367.577 31.7968 367.334 31.7317 367.224 31.5408C367.189 31.4798 367.17 31.4107 367.17 31.3402V29.0911C367.17 28.9483 367.246 28.8164 367.369 28.745L370.608 26.8625V26.8625C370.731 26.7911 370.806 26.6592 370.806 26.5164V24.2584C370.806 24.0377 370.629 23.8587 370.409 23.8587C370.339 23.8587 370.271 23.8773 370.21 23.9126L367.767 25.3371C367.577 25.4477 367.334 25.3826 367.224 25.1916C367.189 25.1307 367.17 25.0616 367.17 24.9912V15.3844V15.3844C367.17 15.2419 367.095 15.1102 366.973 15.0387L361.353 11.7562V11.7562C361.164 11.6454 361.099 11.4008 361.209 11.2098C361.244 11.1496 361.294 11.0996 361.353 11.0647L366.971 7.78816C367.095 7.71633 367.246 7.7163 367.37 7.78807L371.705 10.3141C372.831 10.9702 373.524 12.1802 373.524 13.4895V13.4895Z" fill="white"/>
</mask>
<g mask="url(#mask0)">
<g id="Group">
<g id="Group_2">
<g id="Group_3">
<path id="Polygon-2-Copy" d="M375.501 10.1716V29.8312L358.619 39.661L358.583 19.9543L375.501 10.1716Z" fill="#E6E6E6"/>
<path id="Polygon-2-Copy-2" d="M359.011 19.8416V36.8208L344.441 28.3374V11.3706L359.011 19.8416Z" fill="#D2D2D2"/>
<path id="Polygon-2" d="M359.011 2.88733L373.77 11.4812L358.979 20.075L344.251 11.4812L359.011 2.88733Z" fill="white"/>
</g>
</g>
</g>
</g>
</g>
</g>
</g>
<path id="Combined Shape" fill-rule="evenodd" clip-rule="evenodd" d="M449.365 26.2177V16.2633L447.908 21.6925H446.146L444.621 16.2633V26.2177H442.554V13.7825H446.078L447.078 18.5612L448.095 13.7825H451.466V26.2177H449.365ZM437.432 26.2173C437.73 26.2175 439.36 26.2185 439.446 26.1962V24.1733C439.354 24.1733 439.019 24.1707 438.641 24.1677C438.152 24.1638 437.591 24.1594 437.393 24.1594C437.149 24.1594 436.913 24.1091 436.732 24.0087C436.551 23.9082 436.407 23.7043 436.299 23.3969C436.192 23.0895 436.113 22.693 436.062 22.1374C436.011 21.5818 436.014 18.2658 436.07 17.722C436.127 17.1782 436.212 16.7994 436.325 16.5157C436.438 16.232 436.603 16.1169 436.757 16.0271C436.911 15.9373 437.145 15.8591 437.393 15.8591C437.55 15.8591 438.013 15.8555 438.465 15.8519L438.465 15.8519C438.893 15.8485 439.311 15.8452 439.446 15.8452V13.8045C439.22 13.7902 438.055 13.7928 438.055 13.7928C437.874 13.7751 436.398 13.7642 435.901 13.9002C435.403 14.0361 434.985 14.2819 434.646 14.7075C434.306 15.1331 434.052 15.7507 433.882 16.5605C433.713 17.3703 433.702 22.2408 433.849 23.0861C433.996 23.9313 434.225 24.5934 434.535 25.0721C434.846 25.5509 435.239 25.879 435.714 26.0563C436.152 26.2197 436.662 26.2187 437.243 26.2175L437.393 26.2173L437.432 26.2173ZM383.591 23.0379C383.591 23.9942 383.851 24.7115 384.373 25.1896C384.894 25.6678 385.643 25.9069 386.618 25.9069H389.394V19.6964H386.585V20.9621H387.998V24.6243H386.45C386.035 24.6243 385.699 24.5005 385.441 24.253C385.183 24.0055 385.054 23.7073 385.054 23.3585V16.6417C385.054 16.293 385.183 15.9948 385.441 15.7473C385.699 15.4998 386.035 15.376 386.45 15.376H388.889V14.0934H386.618C385.643 14.0934 384.894 14.3325 384.373 14.8107C383.851 15.2888 383.591 16.0061 383.591 16.9624V23.0379ZM394.9 21.0126H396.399L398.571 25.9067H400.171L397.83 20.7257C398.841 20.4106 399.346 19.6174 399.346 18.3461V16.726C399.346 15.8146 399.102 15.148 398.613 14.7261C398.125 14.3042 397.404 14.0932 396.449 14.0932H393.435V25.9067H394.9V21.0126ZM396.755 15.3367C397.185 15.3367 397.499 15.4361 397.697 15.6349C397.896 15.8336 397.995 16.1551 397.995 16.5994V18.6161C397.995 19.0604 397.896 19.3848 397.697 19.5894C397.499 19.794 397.185 19.8963 396.755 19.8963H394.989V15.3367H396.755ZM408.088 22.9196L408.727 25.9067H410.223L407.432 14.0932H405.499L402.658 25.9067H404.154L404.81 22.9196H408.088ZM404.938 21.4508L406.328 15.026L407.736 21.4508H404.938ZM416.638 21.3163C417.597 21.3163 418.322 21.0998 418.813 20.6666C419.304 20.2334 419.549 19.5612 419.549 18.6499V16.726C419.549 15.8146 419.301 15.148 418.804 14.7261C418.308 14.3042 417.574 14.0932 416.604 14.0932H413.539V25.9067H415.029V21.3163H416.638ZM416.859 15.3367C417.289 15.3367 417.603 15.4339 417.801 15.6282C417.999 15.8226 418.098 16.1369 418.098 16.5713V18.8518C418.098 19.2862 417.999 19.6034 417.801 19.8035C417.603 20.0035 417.289 20.1036 416.859 20.1036H415.093V15.3367H416.859ZM428.154 20.4725V25.9067H429.601V14.0932H428.154V19.2237H424.727V14.0932H423.28V25.9067H424.727V20.4725H428.154ZM460.501 24.5003C460.695 23.9978 460.793 23.3329 460.793 22.5053C460.793 21.8433 460.729 21.2876 460.601 20.8384C460.473 20.3892 460.29 20.0168 460.05 19.7212C459.811 19.4257 459.528 19.1922 459.2 19.0208C458.872 18.8494 458.508 18.7223 458.107 18.6395C457.841 18.5804 457.624 18.5154 457.457 18.4445C457.29 18.3735 457.157 18.2819 457.057 18.1696C456.957 18.0573 456.887 17.9095 456.848 17.7263C456.809 17.543 456.79 17.3096 456.79 17.0258C456.79 16.5766 456.918 16.2515 457.173 16.0505C457.429 15.8495 457.796 15.7491 458.274 15.7491C458.344 15.7491 458.828 15.7461 459.329 15.7431C459.866 15.7399 460.423 15.7366 460.509 15.7366V13.7826C460.456 13.7818 460.1 13.7849 459.696 13.7884C459.167 13.7931 458.557 13.7984 458.441 13.7965C457.807 13.7862 457.243 13.7886 456.748 13.9127C456.253 14.0369 455.836 14.1708 455.497 14.4545C455.158 14.7383 454.902 15.1048 454.73 15.554C454.558 16.0032 454.471 16.5589 454.471 17.2209C454.471 18.2612 454.669 19.0651 455.064 19.6326C455.458 20.2 456.123 20.5842 457.057 20.7852C457.279 20.8325 457.479 20.8975 457.657 20.9803C457.835 21.063 457.985 21.1753 458.107 21.3172C458.23 21.4591 458.321 21.6423 458.383 21.8669C458.444 22.0915 458.474 22.3634 458.474 22.6826C458.474 23.2501 458.321 23.6491 458.016 23.8796C457.71 24.1101 457.296 24.2254 456.773 24.2254C456.689 24.2254 456.166 24.2244 455.65 24.2235C455.146 24.2225 454.65 24.2216 454.572 24.2216V26.1919C454.782 26.2067 456.762 26.2129 456.94 26.2129C457.055 26.2129 457.169 26.2142 457.281 26.2154C457.708 26.22 458.108 26.2243 458.483 26.1588C458.955 26.076 459.361 25.9337 459.7 25.6618C460.039 25.3899 460.306 25.0027 460.501 24.5003Z" fill="#162A4E"/>
</g>
<g id="Prisma Logo Dark">
<g id="path0_fill-link">
<path id="path0_fill" fill-rule="evenodd" clip-rule="evenodd" d="M206.093 2.19851L219.521 29.951V29.9507C219.799 30.5242 219.803 31.1876 219.533 31.7646C219.259 32.3447 218.741 32.7809 218.112 32.9604L197.449 38.9086C197.235 38.9703 197.017 39 196.8 39C196.036 39 195.301 38.6292 194.877 37.9886L187.758 27.256C187.291 26.5577 187.281 25.6593 187.733 24.9513L202.295 1.99397C202.708 1.34114 203.44 0.957577 204.258 1.00389C205.048 1.04314 205.754 1.50168 206.093 2.19792V2.19851ZM198.982 36.1883L216.515 31.1415H216.514C217.012 30.9984 217.261 30.4652 217.043 30.013L205.446 6.04453C205.202 5.53895 204.426 5.62564 204.309 6.1713L198.046 35.366C197.933 35.8918 198.447 36.3427 198.982 36.1883Z" fill="#0C344B"/>
</g>
<g id="path1_fill-link">
<path id="path1_fill" fill-rule="evenodd" clip-rule="evenodd" d="M237.416 21.034C238.265 20.3333 238.69 19.3219 238.69 17.999C238.69 16.7266 238.291 15.7695 237.494 15.1276C236.696 14.4861 235.531 14.1652 233.999 14.1652H229.966V26.457H232.643V22.0849H233.792C235.359 22.0849 236.566 21.7349 237.416 21.034ZM233.524 19.9495H232.644V16.3006H233.861C234.593 16.3006 235.129 16.4463 235.472 16.7379C235.815 17.0294 235.986 17.4807 235.986 18.0913C235.986 18.6967 235.782 19.1577 235.373 19.4745C234.964 19.7912 234.348 19.9495 233.524 19.9495Z" fill="#0C344B"/>
</g>
<g id="path2_fill-link">
<path id="path2_fill" d="M245.787 16.8807C246.144 16.8807 246.441 16.906 246.677 16.9564L246.478 19.3608C246.265 19.305 246.006 19.2768 245.701 19.2768C244.86 19.2768 244.205 19.487 243.735 19.9074C243.266 20.3278 243.032 20.9165 243.032 21.6732V26.457H240.397V17.0574H242.392L242.781 18.6379H242.911C243.2 18.1216 243.617 17.6838 244.125 17.364C244.634 17.0419 245.188 16.8807 245.787 16.8807Z" fill="#0C344B"/>
</g>
<g id="path3_fill-link">
<path id="path3_fill" fill-rule="evenodd" clip-rule="evenodd" d="M249.398 13.3749C248.442 13.3749 247.964 13.7923 247.964 14.6274C247.964 15.4681 248.442 15.8885 249.398 15.8885C249.876 15.8885 250.235 15.7781 250.474 15.5566C250.713 15.3351 250.832 15.0255 250.832 14.6274C250.832 13.7923 250.354 13.3749 249.398 13.3749ZM250.711 26.457H248.076V17.0573H250.711V26.457Z" fill="#0C344B"/>
</g>
<g id="path4_fill-link">
<path id="path4_fill" d="M259.984 23.6658C259.984 24.63 259.64 25.3642 258.951 25.8686C258.263 26.373 257.234 26.6253 255.863 26.6253C255.161 26.6253 254.562 26.579 254.067 26.4864C253.59 26.3993 253.123 26.2627 252.676 26.0788V23.96C253.166 24.1844 253.717 24.372 254.33 24.5234C254.944 24.6745 255.483 24.7502 255.95 24.7502C256.906 24.7502 257.384 24.4813 257.384 23.9433C257.384 23.7415 257.321 23.5776 257.194 23.4514C257.067 23.3252 256.848 23.1825 256.537 23.0224C256.226 22.8627 255.812 22.6766 255.293 22.4634C254.551 22.1609 254.005 21.8807 253.657 21.6227C253.308 21.365 253.055 21.0693 252.897 20.7356C252.738 20.4022 252.659 19.9916 252.659 19.5039C252.659 18.6688 252.991 18.0231 253.657 17.5662C254.322 17.1093 255.264 16.881 256.485 16.881C257.649 16.881 258.78 17.1277 259.88 17.6208L259.086 19.4703C258.642 19.2833 258.189 19.1178 257.729 18.9742C257.313 18.846 256.879 18.7808 256.442 18.781C255.665 18.781 255.276 18.9855 255.276 19.3946C255.276 19.6247 255.402 19.8236 255.652 19.9916C255.903 20.1597 256.451 20.4093 257.297 20.7401C258.052 21.0372 258.605 21.3145 258.956 21.5722C259.307 21.8302 259.566 22.1271 259.733 22.4634C259.901 22.7998 259.984 23.2006 259.984 23.6658Z" fill="#0C344B"/>
</g>
<g id="path5_fill-link">
<path id="path5_fill" d="M270.422 26.457H267.788V20.9669C267.788 20.2889 267.671 19.78 267.438 19.441C267.204 19.102 266.837 18.9321 266.336 18.9321C265.663 18.9321 265.173 19.1732 264.868 19.6553C264.563 20.1375 264.41 20.9304 264.41 22.0348V26.457H261.775V17.0574H263.788L264.142 18.2597H264.289C264.548 17.8281 264.923 17.4902 265.412 17.2465C265.902 17.0028 266.463 16.8807 267.097 16.8807C268.542 16.8807 269.521 17.3406 270.034 18.2597H270.267C270.526 17.8224 270.908 17.4834 271.411 17.2423C271.915 17.0013 272.484 16.8807 273.117 16.8807C274.211 16.8807 275.04 17.1542 275.601 17.7004C276.162 18.247 276.443 19.1227 276.443 20.3278V26.457H273.8V20.9669C273.8 20.2889 273.683 19.78 273.45 19.441C273.216 19.102 272.85 18.9321 272.348 18.9321C271.704 18.9321 271.221 19.1566 270.901 19.6049C270.582 20.0534 270.422 20.765 270.422 21.7403V26.457Z" fill="#0C344B"/>
</g>
<g id="path6_fill-link">
<path id="path6_fill" fill-rule="evenodd" clip-rule="evenodd" d="M284.378 25.1789L284.887 26.457H286.727V20.1932C286.727 19.0722 286.381 18.2371 285.691 17.6879C284.999 17.1387 284.006 16.8638 282.71 16.8638C281.357 16.8638 280.125 17.147 279.013 17.7131L279.886 19.4451C280.928 18.9909 281.835 18.7641 282.607 18.7641C283.609 18.7641 284.11 19.2406 284.11 20.1932V20.6053L282.434 20.6558C280.989 20.7062 279.908 20.9684 279.19 21.4419C278.473 21.9157 278.115 22.6513 278.115 23.6488C278.115 24.6018 278.381 25.336 278.914 25.8517C279.447 26.3673 280.176 26.625 281.104 26.625C281.858 26.625 282.47 26.5199 282.939 26.3097C283.409 26.0996 283.865 25.7228 284.308 25.1789H284.378ZM283.09 22.1354L284.11 22.1018V22.8752C284.11 23.4416 283.927 23.8956 283.561 24.2373C283.196 24.5793 282.707 24.7503 282.097 24.7503C281.245 24.7503 280.819 24.3887 280.819 23.6658C280.819 23.1611 281.006 22.7858 281.38 22.5391C281.754 22.2924 282.324 22.1579 283.09 22.1354Z" fill="#0C344B"/>
</g>
</g>
<g id="Honeypot">
<g id="Group 19">
<g id="Group 3">
<mask id="mask1" mask-type="alpha" maskUnits="userSpaceOnUse" x="0" y="10" width="23" height="25">
<path id="Clip 2" fill-rule="evenodd" clip-rule="evenodd" d="M0.0117188 10.4988V34.0815H22.7271V10.4988H0.0117188L0.0117188 10.4988Z" fill="white"/>
</mask>
<g mask="url(#mask1)">
<path id="Fill 1" fill-rule="evenodd" clip-rule="evenodd" d="M22.7056 22.0208C22.5719 20.1328 22.1278 18.3306 21.4282 16.6566C21.2428 16.2133 21.0458 15.7758 20.8252 15.3515C21.6069 14.8973 22.1325 14.0638 22.1325 13.1077C22.1325 11.6669 20.9422 10.4988 19.4738 10.4988H3.25543C1.78716 10.4988 0.596692 11.6669 0.596692 13.1077C0.596692 14.063 1.12155 14.8959 1.90221 15.3506C1.68164 15.7747 1.48482 16.2119 1.29948 16.6551C0.599418 18.3295 0.155159 20.1323 0.02122 22.0206C0.0110967 22.2452 0 22.4699 0 22.697C0 24.329 0.270604 25.8981 0.763143 27.3685C0.909931 27.7823 1.19241 28.495 1.53836 28.9708C1.57612 29.0198 1.61175 29.0673 1.65497 29.1187C1.66003 29.1246 1.66509 29.1313 1.67015 29.1372C1.82356 29.3181 2.00968 29.512 2.23356 29.7042C2.45958 29.8968 2.72123 30.0891 3.01909 30.2498C3.31364 30.4099 3.65705 30.539 3.99599 30.582C4.35089 30.6319 4.72506 30.5721 5.01085 30.3753C5.30209 30.1835 5.5104 29.8475 5.63091 29.4679C5.87133 28.6984 5.84466 27.8268 5.77107 27.0384C5.69048 26.2435 5.54369 25.505 5.39807 24.8773C5.10216 23.6212 4.81189 22.8055 4.81189 22.8055C4.81189 22.8055 5.15861 23.5985 5.54447 24.8391C5.73525 25.4597 5.93577 26.1927 6.07516 26.9987C6.20404 27.8033 6.308 28.6897 6.09794 29.5955C5.99009 30.0406 5.76523 30.5102 5.35563 30.8273C4.94563 31.1499 4.43304 31.2498 3.97282 31.2607C3.48826 31.264 3.05802 31.1555 2.66789 31.0097C2.62038 30.9918 2.57989 30.9685 2.53356 30.9494C3.24706 32.0052 4.09664 32.9624 5.05193 33.8075C5.5616 34.0824 6.39191 34.2857 7.49165 33.7252C9.40944 32.7481 11.3272 32.6396 11.3272 32.6396C11.3272 32.6396 13.2448 32.7481 15.1626 33.7252C16.451 34.3818 17.3699 33.9909 17.8354 33.6637C18.7223 32.856 19.5154 31.9511 20.1875 30.9581C20.1444 30.9759 20.1067 30.9977 20.0625 31.0145C19.6723 31.1602 19.2421 31.2688 18.7575 31.2655C18.2973 31.2544 17.7847 31.1547 17.3747 30.8321C16.9651 30.5148 16.7403 30.0454 16.6324 29.6003C16.4224 28.6942 16.5261 27.808 16.6552 27.0034C16.7946 26.1973 16.9951 25.4645 17.1859 24.8438C17.5718 23.6031 17.9185 22.8101 17.9185 22.8101C17.9185 22.8101 17.6282 23.6258 17.3323 24.882C17.1867 25.5096 17.0399 26.2483 16.9593 27.0432C16.8857 27.8315 16.859 28.7032 17.0995 29.4725C17.22 29.8523 17.4283 30.1881 17.7195 30.3801C18.0053 30.5768 18.3797 30.6366 18.7344 30.5866C19.0733 30.5438 19.4167 30.4145 19.7113 30.2546C20.0091 30.0937 20.2708 29.9014 20.4968 29.709C20.8009 29.4479 21.0312 29.1863 21.208 28.9554C21.4838 28.5703 21.7182 28.0384 21.8748 27.6313C22.4253 26.0863 22.7271 24.4264 22.7271 22.697C22.7271 22.4699 22.716 22.2454 22.7056 22.0208Z" fill="#F6C724"/>
</g>
</g>
<path id="Fill 4" fill-rule="evenodd" clip-rule="evenodd" d="M8.97934 14.9714C8.97934 16.2863 7.89322 17.3522 6.55324 17.3522C5.21326 17.3522 4.12695 16.2863 4.12695 14.9714C4.12695 13.6565 5.21326 12.5906 6.55324 12.5906C7.89322 12.5906 8.97934 13.6565 8.97934 14.9714Z" fill="#FFFFFE"/>
<path id="Fill 5" fill-rule="evenodd" clip-rule="evenodd" d="M3.25538 11.799C2.51871 11.799 1.92163 12.3848 1.92163 13.1077C1.92163 13.5765 2.17491 13.9847 2.55239 14.2159C3.01398 13.472 3.5291 12.7638 4.09562 12.0989C3.8657 11.9143 3.57563 11.799 3.25538 11.799Z" fill="#26292D"/>
<path id="Fill 6" fill-rule="evenodd" clip-rule="evenodd" d="M19.4737 11.799C19.1529 11.799 18.8624 11.9147 18.6323 12.1C19.1986 12.765 19.7136 13.4729 20.1752 14.2168C20.5536 13.9859 20.8077 13.5773 20.8077 13.1077C20.8077 12.3848 20.2104 11.799 19.4737 11.799Z" fill="#26292D"/>
<path id="Fill 7" fill-rule="evenodd" clip-rule="evenodd" d="M6.55332 13.9119C6.47837 13.9119 6.40537 13.9193 6.33489 13.9336C6.37811 14.0144 6.40303 14.1063 6.40303 14.204C6.40303 14.5251 6.13768 14.7854 5.81023 14.7854C5.70043 14.7854 5.59784 14.7556 5.50945 14.7045C5.48687 14.7898 5.47363 14.8789 5.47363 14.9713C5.47363 15.5564 5.95702 16.0308 6.55332 16.0308C7.14963 16.0308 7.63302 15.5564 7.63302 14.9713C7.63302 14.3862 7.14963 13.9119 6.55332 13.9119Z" fill="#26292D"/>
<path id="Fill 8" fill-rule="evenodd" clip-rule="evenodd" d="M18.5999 14.9714C18.5999 16.2863 17.5138 17.3522 16.1738 17.3522C14.8339 17.3522 13.7476 16.2863 13.7476 14.9714C13.7476 13.6565 14.8339 12.5906 16.1738 12.5906C17.5138 12.5906 18.5999 13.6565 18.5999 14.9714Z" fill="#FFFFFE"/>
<path id="Fill 9" fill-rule="evenodd" clip-rule="evenodd" d="M16.1737 13.9119C16.0987 13.9119 16.0257 13.9193 15.9553 13.9336C15.9987 14.0144 16.0234 14.1063 16.0234 14.204C16.0234 14.5251 15.758 14.7854 15.4306 14.7854C15.3208 14.7854 15.2182 14.7556 15.1298 14.7045C15.1072 14.7898 15.094 14.8789 15.094 14.9713C15.094 15.5564 15.5774 16.0308 16.1737 16.0308C16.77 16.0308 17.2534 15.5564 17.2534 14.9713C17.2534 14.3862 16.77 13.9119 16.1737 13.9119Z" fill="#26292D"/>
<path id="Fill 10" fill-rule="evenodd" clip-rule="evenodd" d="M14.6258 19.5686C14.6258 21.3562 13.149 22.8056 11.3272 22.8056C9.50516 22.8056 8.02832 21.3562 8.02832 19.5686C8.02832 17.7807 9.50516 16.3315 11.3272 16.3315C13.149 16.3315 14.6258 17.7807 14.6258 19.5686Z" fill="#FFFFFE"/>
<path id="Fill 11" fill-rule="evenodd" clip-rule="evenodd" d="M13.0388 17.801C13.0388 17.7563 13.0302 17.714 13.0177 17.6732C13.0125 17.6531 13.0082 17.6413 13.0082 17.6413H13.0078C12.9922 17.6015 12.9714 17.5647 12.9457 17.5312L12.9459 17.5308C12.9459 17.5308 12.7522 17.1387 11.3468 17.135V17.1346C11.3433 17.1346 11.3404 17.1348 11.3371 17.1348C11.3336 17.1348 11.3307 17.1346 11.3273 17.1346V17.135C10.5097 17.1371 10.103 17.2703 9.90541 17.3818C9.78607 17.4288 9.69243 17.5232 9.64668 17.6413H9.64609C9.64609 17.6413 9.64103 17.6552 9.635 17.6785C9.6237 17.7177 9.61572 17.7582 9.61572 17.801C9.61572 17.8048 9.6167 17.8084 9.61689 17.8122C9.60852 18.0157 9.67646 18.3739 10.1464 18.7412C10.5759 19.0768 10.9109 19.2016 11.1132 19.249V22.7949C11.1843 22.7993 11.2549 22.8056 11.3271 22.8056C11.3994 22.8056 11.4702 22.7993 11.5413 22.7949V19.249C11.7436 19.2014 12.0786 19.0767 12.5077 18.7412C12.9757 18.3754 13.045 18.0185 13.0374 17.8147C13.0376 17.8101 13.0388 17.8057 13.0388 17.801Z" fill="#26292D"/>
<path id="Fill 12" fill-rule="evenodd" clip-rule="evenodd" d="M6.01929 9.80436H16.6585C15.3845 8.94472 13.8882 8.38004 12.2671 8.22378L12.9185 6.48349C12.9185 6.48349 12.5039 6.14441 11.3389 6.14441C10.1739 6.14441 9.75927 6.48349 9.75927 6.48349L10.4107 8.22378C8.78957 8.37985 7.29327 8.94472 6.01929 9.80436Z" fill="#F6C724"/>
<path id="Fill 13" fill-rule="evenodd" clip-rule="evenodd" d="M1.79073 27.8923C1.79073 27.8923 1.61435 27.6675 1.42026 27.2872C1.225 26.9085 1.02681 26.3735 0.900271 25.8231C0.771783 25.2729 0.710459 24.7115 0.697999 24.2899C0.686902 23.8677 0.713768 23.5859 0.713768 23.5859C0.713768 23.5859 0.734988 23.6541 0.763995 23.7735C0.792224 23.8927 0.832717 24.0629 0.880998 24.2673C0.974054 24.6752 1.0858 25.2168 1.21312 25.753C1.33441 26.2905 1.47516 26.8226 1.59138 27.222C1.65037 27.4226 1.69962 27.5896 1.73408 27.7065C1.77263 27.8238 1.79073 27.8923 1.79073 27.8923Z" fill="#FFFFFE"/>
<path id="Fill 14" fill-rule="evenodd" clip-rule="evenodd" d="M18.2427 24.493C18.2427 24.493 18.2378 24.6824 18.2078 24.9571C18.1761 25.2316 18.1142 25.5903 18.04 25.9456C17.9629 26.3004 17.8749 26.6526 17.7955 26.917C17.7587 27.0496 17.7145 27.1589 17.6921 27.2368C17.666 27.3142 17.6467 27.3583 17.6467 27.3583C17.6467 27.3583 17.6154 27.1713 17.6131 26.8916C17.6119 26.6125 17.6493 26.2429 17.726 25.8813C17.8037 25.5198 17.9195 25.1676 18.0303 24.9112C18.1428 24.655 18.2427 24.493 18.2427 24.493Z" fill="#FFFFFE"/>
<path id="Fill 15" fill-rule="evenodd" clip-rule="evenodd" d="M3.21302 10.8157C3.21302 10.8157 3.01445 10.8902 2.75572 11.0427C2.62528 11.1166 2.48005 11.2096 2.33482 11.3195C2.18842 11.4278 2.04455 11.5566 1.91217 11.6952C1.7757 11.8313 1.66143 11.9854 1.55182 12.1312C1.45331 12.2838 1.35773 12.4271 1.28822 12.5595C1.20996 12.6876 1.15526 12.8019 1.11515 12.8821C1.07388 12.9618 1.04565 13.0074 1.04565 13.0074C1.04565 13.0074 1.04604 12.9559 1.055 12.8657C1.06902 12.7772 1.06843 12.6428 1.11652 12.4934C1.1502 12.3388 1.22067 12.1677 1.30925 11.9885C1.40523 11.8129 1.53041 11.637 1.67856 11.4794C1.98012 11.167 2.37298 10.9537 2.68524 10.8765C2.9979 10.7928 3.21302 10.8157 3.21302 10.8157Z" fill="#FFFFFE"/>
</g>
<g id="Group 21">
<path id="Fill 16" fill-rule="evenodd" clip-rule="evenodd" d="M54.4659 25.6318C53.8216 26.2788 53.0306 26.6014 52.094 26.6014C51.1717 26.6014 50.388 26.2788 49.7437 25.6318C49.0994 24.9866 48.7775 24.1548 48.7775 23.1385C48.7775 22.1361 49.0994 21.3097 49.7437 20.6557C50.388 20.0023 51.1717 19.6753 52.094 19.6753C53.0167 19.6753 53.8032 20.0023 54.4551 20.6557C55.1064 21.3097 55.4324 22.1361 55.4324 23.1385C55.4324 24.1548 55.1102 24.9866 54.4659 25.6318ZM52.094 17.3237C50.3658 17.3237 48.9128 17.872 47.7343 18.9675C46.5551 20.064 45.9661 21.4541 45.9661 23.1385C45.9661 24.8229 46.5551 26.2127 47.7343 27.3092C48.9128 28.4057 50.3658 28.954 52.094 28.954C53.8365 28.954 55.2968 28.4057 56.4756 27.3092C57.6541 26.2127 58.2435 24.8229 58.2435 23.1385C58.2435 21.4541 57.6506 20.064 56.4648 18.9675C55.2787 17.872 53.8216 17.3237 52.094 17.3237Z" fill="black"/>
<path id="Fill 17" fill-rule="evenodd" clip-rule="evenodd" d="M76.715 21.7009C76.8759 21.0047 77.1939 20.4565 77.67 20.0571C78.1455 19.6577 78.7425 19.4579 79.4601 19.4579C80.0457 19.4579 80.5399 19.6684 80.943 20.0898C81.3452 20.5109 81.554 21.0478 81.5686 21.7009H76.715ZM79.4601 17.3237C77.7764 17.3237 76.4074 17.8651 75.3531 18.9464C74.2987 20.0281 73.7715 21.4258 73.7715 23.1385C73.7715 24.7647 74.3244 26.1403 75.4302 27.2661C76.5354 28.3906 77.9887 28.954 79.7896 28.954C80.3168 28.954 80.8332 28.8913 81.3382 28.768C81.8435 28.6452 82.2567 28.5105 82.5792 28.3651C82.901 28.2207 83.2121 28.0529 83.5126 27.8644C83.8132 27.6759 84.0068 27.5418 84.0941 27.4616C84.183 27.3822 84.2487 27.3199 84.2912 27.2765L83.1286 25.3595L82.7322 25.6645C82.4833 25.8681 82.0958 26.0752 81.5686 26.2857C81.0417 26.4966 80.5145 26.6014 79.9873 26.6014C79.1088 26.6014 78.3543 26.3396 77.7253 25.8168C77.0956 25.2944 76.7293 24.562 76.6271 23.6179H84.3588L84.4245 22.5937C84.4245 21.0699 83.9856 19.8103 83.1054 18.8152C82.2278 17.821 81.0122 17.3237 79.4601 17.3237Z" fill="black"/>
<path id="Fill 18" fill-rule="evenodd" clip-rule="evenodd" d="M106.76 25.6972C106.218 26.315 105.544 26.6234 104.74 26.6234C103.861 26.6234 103.18 26.2857 102.697 25.6107C102.214 24.9356 101.972 24.1334 101.972 23.2037C101.972 22.043 102.243 21.1677 102.784 20.5798C103.326 19.9919 103.992 19.6974 104.783 19.6974C105.618 19.6974 106.291 20.0174 106.804 20.6557C107.317 21.2946 107.573 22.1361 107.573 23.1826C107.573 24.2419 107.302 25.0801 106.76 25.6972ZM105.398 17.3237C104.915 17.3237 104.457 17.3892 104.025 17.5195C103.593 17.6501 103.257 17.792 103.015 17.9444C102.774 18.097 102.55 18.2748 102.345 18.4775C102.14 18.6811 102.012 18.8231 101.961 18.9024C101.91 18.9826 101.87 19.0443 101.84 19.0874H101.796V18.6522C101.796 17.9409 101.328 17.5846 100.391 17.5846H95.2955C94.5337 17.5846 94.036 17.934 93.8021 18.6301L93.739 18.8133L91.5182 25.2166L88.8822 18.6301C88.7356 18.2528 88.5524 17.984 88.3328 17.8245C88.1135 17.6649 87.8059 17.5846 87.4101 17.5846H85.2566L90.2219 28.6701L89.8483 29.5198C89.4529 30.4637 88.8378 30.9351 88.003 30.9351C87.3879 30.9351 86.8537 30.6815 86.3995 30.1729L85.3242 32.133L85.653 32.4159C85.8584 32.6047 86.1951 32.7933 86.6636 32.9827C87.1321 33.1712 87.6298 33.2657 88.1569 33.2657C89.0361 33.2657 89.8334 33.0224 90.5517 32.5358C91.268 32.0493 91.8175 31.3273 92.1986 30.3693L96.2181 20.3293C96.3203 20.0678 96.5327 19.9372 96.8545 19.9372H98.7871C99.1086 19.9372 99.2705 20.0967 99.2705 20.4159V33.0479H102.038V28.4523C102.038 28.0753 102.023 27.7552 101.994 27.4943H102.038L102.345 27.8644C102.55 28.097 102.919 28.3368 103.454 28.5829C103.989 28.8296 104.586 28.954 105.245 28.954C106.738 28.954 107.968 28.4196 108.935 27.3523C109.901 26.2857 110.384 24.8808 110.384 23.1385C110.384 21.411 109.93 20.0096 109.022 18.9351C108.114 17.8606 106.906 17.3237 105.398 17.3237Z" fill="black"/>
<path id="Fill 19" fill-rule="evenodd" clip-rule="evenodd" d="M120.29 25.6318C119.645 26.2788 118.855 26.6014 117.918 26.6014C116.996 26.6014 116.212 26.2788 115.568 25.6318C114.924 24.9866 114.601 24.1548 114.601 23.1385C114.601 22.1361 114.924 21.3097 115.568 20.6557C116.212 20.0023 116.996 19.6753 117.918 19.6753C118.84 19.6753 119.628 20.0023 120.279 20.6557C120.931 21.3097 121.256 22.1361 121.256 23.1385C121.256 24.1548 120.934 24.9866 120.29 25.6318ZM117.918 17.3237C116.19 17.3237 114.737 17.872 113.558 18.9675C112.38 20.064 111.791 21.4541 111.791 23.1385C111.791 24.8229 112.38 26.2127 113.558 27.3092C114.737 28.4057 116.19 28.954 117.918 28.954C119.661 28.954 121.121 28.4057 122.3 27.3092C123.478 26.2127 124.068 24.8229 124.068 23.1385C124.068 21.4541 123.475 20.064 122.289 18.9675C121.102 17.872 119.645 17.3237 117.918 17.3237Z" fill="black"/>
<path id="Fill 20" fill-rule="evenodd" clip-rule="evenodd" d="M131.644 26.3615C131.088 26.3615 130.58 26.2126 130.118 25.9155C129.657 25.6178 129.426 25.0696 129.426 24.2708V19.7848H131.974V17.5845H129.426V14.5579H126.702V17.5845H125.187V19.7848H126.636V24.6192C126.636 25.3311 126.75 25.9517 126.977 26.4814C127.203 27.012 127.482 27.4183 127.812 27.7013C128.141 27.9842 128.532 28.2124 128.987 28.3871C129.441 28.5614 129.844 28.6744 130.195 28.7244C130.547 28.7757 130.912 28.8012 131.293 28.8012C131.629 28.8012 131.916 28.7792 132.149 28.7351V26.3184L131.644 26.3615Z" fill="black"/>
<path id="Fill 21" fill-rule="evenodd" clip-rule="evenodd" d="M40.928 14.7106V19.7849H34.0532V14.7106C34.0532 14.202 33.9361 13.8284 33.7022 13.5886C33.4676 13.3488 33.0871 13.2289 32.5599 13.2289H31.176V28.6921H34.0532V22.2022H40.928V28.6921H43.8052V13.2289H42.4216C41.4256 13.2289 40.928 13.7233 40.928 14.7106Z" fill="black"/>
<path id="Fill 22" fill-rule="evenodd" clip-rule="evenodd" d="M67.4022 17.3237C66.3919 17.3237 65.5572 17.5557 64.898 18.0202C64.2394 18.4857 63.7563 19.0223 63.4487 19.6322H63.4049L63.4487 19.1529V18.8265C63.4487 17.9991 62.958 17.5846 61.9773 17.5846H60.7693V28.6921H63.5367V23.5958C63.5367 23.0441 63.6097 22.5506 63.7563 22.1151C63.9613 21.4331 64.3305 20.8848 64.8653 20.4703C65.3998 20.0571 66.0326 19.85 66.7652 19.85C67.4244 19.85 67.8818 20.0429 68.1379 20.4272C68.3941 20.8115 68.5226 21.3748 68.5226 22.1151V27.2113C68.5226 27.7341 68.6394 28.1111 68.8736 28.344C69.1079 28.5757 69.4888 28.6921 70.0159 28.6921H71.3119V21.5482C71.3119 18.7324 70.0083 17.3237 67.4022 17.3237Z" fill="black"/>
</g>
</g>
</g>
</svg>
