<?xml version="1.0" encoding="UTF-8"?>
<svg width="286px" height="38px" viewBox="0 0 286 38" version="1.1" xmlns="http://www.w3.org/2000/svg" xmlns:xlink="http://www.w3.org/1999/xlink">
    <!-- Generator: Sketch 52.6 (67491) - http://www.bohemiancoding.com/sketch -->
    <title>organizers-logo</title>
    <desc>Created with Sketch.</desc>
    <defs>
        <polygon id="path-1" points="0.0116807609 0.105066738 0.0116807609 23.6877484 22.7270618 23.6877484 22.7270618 0.105066738 0.0116807609 0.105066738"></polygon>
    </defs>
    <g id="landingpages" stroke="none" stroke-width="1" fill="none" fill-rule="evenodd">
        <g id="GraphQL-day-overview02" transform="translate(-577.000000, -1165.000000)">
            <g id="organizers-logo" transform="translate(577.000000, 1165.000000)">
                <g id="Group-7" opacity="0.492810236" transform="translate(151.411765, 14.250000)" stroke="#979797" stroke-width="0.768">
                    <path d="M0.129529489,14.7086323 L14.5607489,0.427230825" id="Path-6" transform="translate(7.345139, 7.567932) scale(-1, 1) translate(-7.345139, -7.567932) "></path>
                    <path d="M0.129529489,14.7086323 L14.5607489,0.427230825" id="Path-6"></path>
                </g>
                <g id="Prisma-Logo-Dark" transform="translate(186.260504, 0.000000)" fill="#0C344B" fill-rule="nonzero">
                    <g id="path0_fill-link" transform="translate(0.085404, 0.000000)">
                        <path d="M29.1135623,30.1414219 L11.581372,35.1882969 C11.0457679,35.3426719 10.5324298,34.8917188 10.6449798,34.3659531 L16.9081321,5.17126562 C17.0252574,4.62560937 17.8006024,4.53892187 18.0452234,5.0445 L29.6418461,29.013 C29.860541,29.4651406 29.6113447,29.9983281 29.1132573,30.1414219 L29.1135623,30.1414219 Z M32.1197778,28.9509531 L18.6924626,1.19848437 L18.6924626,1.19789062 C18.3525645,0.501646811 17.6475358,0.0431052247 16.8565848,0.003859375 C16.039453,-0.042453125 15.30742,0.341109375 14.8944314,0.9939375 L0.331854958,23.9512812 C-0.119792924,24.6592503 -0.109805446,25.5576308 0.357476113,26.2559219 L7.47588698,36.9885469 C7.9001611,37.6292031 8.63524424,38 9.39930368,38 C9.61586344,38 9.83364326,37.9703125 10.0477629,37.9085625 L30.7106143,31.960375 C31.3399559,31.7809047 31.8584495,31.3446892 32.1319784,30.7645625 C32.4020804,30.1875825 32.397618,29.5241448 32.1197778,28.9506562 L32.1197778,28.9509531 Z" id="path0_fill"></path>
                    </g>
                    <g id="path1_fill-link" transform="translate(42.650072, 13.165219)">
                        <path d="M2.67802071,5.7843125 L3.55890042,5.7843125 C4.38243754,5.7843125 4.99856531,5.62607813 5.40728374,5.3093125 C5.81630717,4.99254688 6.02066638,4.5315 6.02066638,3.92617188 C6.02066638,3.3155 5.84924866,2.86425 5.50671822,2.57271875 C5.16388276,2.2811875 4.62705857,2.13542187 3.8956356,2.13542187 L2.67802071,2.13542187 L2.67802071,5.7843125 Z M8.72430825,3.83384375 C8.72430825,5.15671875 8.29972911,6.16817188 7.44996081,6.86879688 C6.60080253,7.56971875 5.39294809,7.91973438 3.82670249,7.91973438 L2.6777157,7.91973438 L2.6777157,12.2918125 L0,12.2918125 L0,0 L4.03380683,0 C5.56589088,0 6.73043338,0.320921875 7.52804433,0.96246875 C8.32565528,1.6043125 8.72430825,2.5614375 8.72430825,3.83384375 Z" id="path1_fill"></path>
                    </g>
                    <g id="path2_fill-link" transform="translate(53.081543, 15.880734)">
                        <path d="M5.39020297,0 C5.74737407,0 6.04384743,0.025234375 6.27992807,0.075703125 L6.08136412,2.48009375 C5.86815951,2.42428125 5.60920284,2.39607813 5.30388407,2.39607813 C4.46296117,2.39607813 3.80809665,2.60626563 3.33837548,3.02664063 C2.86926433,3.44701563 2.63470876,4.03571875 2.63470876,4.79245313 L2.63470876,9.57629688 L0,9.57629688 L0,0.176640625 L1.99539994,0.176640625 L2.38429247,1.75720313 L2.5136183,1.75720313 C2.80308897,1.24089097 3.22034238,0.803036736 3.72757302,0.4833125 C4.23694598,0.161203125 4.79115596,0 5.39020297,0" id="path2_fill"></path>
                    </g>
                    <g id="path3_fill-link" transform="translate(60.648934, 12.374937)">
                        <path d="M0.111940046,13.0820938 L2.74664881,13.0820938 L2.74664881,3.6824375 L0.111940046,3.6824375 L0.111940046,13.0820938 Z M0,1.25251563 C0,0.41740625 0.477956544,0 1.43386963,0 C2.38947771,0 2.86773926,0.41740625 2.86773926,1.25251563 C2.86773926,1.650625 2.74817388,1.96026563 2.50934811,2.18173438 C2.27021733,2.40320313 1.91182618,2.51364063 1.43386963,2.51364063 C0.477956544,2.51364063 0,2.09326563 0,1.25251563 Z" id="path3_fill"></path>
                    </g>
                    <g id="path4_fill-link" transform="translate(65.343095, 15.881031)">
                        <path d="M7.32521019,6.78478125 C7.32521019,7.74903125 6.98115468,8.48320313 6.29273865,8.98759375 C5.60462763,9.49198438 4.57520623,9.74432813 3.20477946,9.74432813 C2.50202778,9.74432813 1.90359081,9.69801563 1.40824848,9.60539063 C0.930984075,9.51832884 0.464694514,9.38167697 0.0173857837,9.19778125 L0.0173857837,7.07898437 C0.50693285,7.30342187 1.05809269,7.49104687 1.67178036,7.64245312 C2.28485799,7.7935625 2.82473233,7.86926562 3.29109835,7.86926562 C4.24701144,7.86926562 4.72527299,7.60029687 4.72527299,7.06235937 C4.72527299,6.86048437 4.66183013,6.69660937 4.53524943,6.5704375 C4.40836371,6.44426562 4.18966885,6.30146875 3.87855483,6.14145312 C3.56774582,5.98173437 3.15292712,5.79559375 2.63470876,5.5824375 C1.89200028,5.27992187 1.34602567,4.99967187 0.998004985,4.7416875 C0.649374271,4.484 0.395907846,4.1883125 0.237910724,3.854625 C0.0793035746,3.52123438 0,3.11065625 0,2.62289063 C0,1.78778125 0.332464986,1.14207813 0.998004985,0.6851875 C1.66293496,0.228296875 2.60573245,0 3.82670249,0 C4.99002493,0 6.12162593,0.246703125 7.22150551,0.7398125 L6.4269447,2.58934375 C5.98348327,2.40234091 5.53079928,2.23677967 5.07054856,2.09326563 C4.65430536,1.96504801 4.22028675,1.89986506 3.78369555,1.9 C3.00621551,1.9 2.61732298,2.10454688 2.61732298,2.51364062 C2.61732298,2.74371875 2.74298864,2.942625 2.99309992,3.11065625 C3.24382122,3.2786875 3.79223594,3.52835937 4.63864909,3.85907812 C5.3932531,4.15625 5.94624303,4.43353125 6.29731385,4.69121875 C6.64838468,4.94920313 6.90764636,5.24607813 7.0747939,5.5824375 C7.24194143,5.91879687 7.32521019,6.31957813 7.32521019,6.78478125" id="path4_fill"></path>
                    </g>
                    <g id="path5_fill-link" transform="translate(74.459956, 15.880734)">
                        <path d="M8.64683476,9.57629688 L6.012126,9.57629688 L6.012126,4.0861875 C6.012126,3.408125 5.89530573,2.89928125 5.66258024,2.56025 C5.42893971,2.22121875 5.06200817,2.05140625 4.56087058,2.05140625 C3.88740023,2.05140625 3.39785316,2.29246875 3.0925344,2.77459375 C2.78721563,3.25671875 2.63470876,4.04967188 2.63470876,5.15404688 L2.63470876,9.57629688 L0,9.57629688 L0,0.176640625 L2.01278573,0.176640625 L2.36690669,1.37898438 L2.51392332,1.37898438 C2.77287999,0.947328125 3.14743687,0.609484375 3.63667892,0.36575 C4.12622599,0.122015625 4.6877563,0 5.32126986,0 C6.76673001,0 7.74551913,0.459859375 8.25824724,1.37898438 L8.49127775,1.37898438 C8.75053943,0.9416875 9.13211163,0.60265625 9.63599435,0.36159375 C10.1398771,0.12053125 10.7084227,0 11.3419362,0 C12.4360206,0 13.2641329,0.273421875 13.8253582,0.819671875 C14.3868885,1.36621875 14.6675011,2.242 14.6675011,3.44701563 L14.6675011,9.57629688 L12.024252,9.57629688 L12.024252,4.0861875 C12.024252,3.408125 11.9074317,2.89928125 11.6747062,2.56025 C11.4410657,2.22121875 11.0741342,2.05140625 10.5729966,2.05140625 C9.92819752,2.05140625 9.44597078,2.27584375 9.12601136,2.724125 C8.80666196,3.17270312 8.64683476,3.8843125 8.64683476,4.85954688 L8.64683476,9.57629688 Z" id="path5_fill"></path>
                    </g>
                    <g id="path6_fill-link" transform="translate(90.799543, 15.863812)">
                        <path d="M5.99474022,5.2380625 L4.97538427,5.27160938 C4.20949474,5.29417188 3.63942405,5.42865625 3.26517218,5.67535938 C2.8906153,5.9220625 2.70364187,6.2973125 2.70364187,6.802 C2.70364187,7.52489063 3.12974607,7.88648438 3.98195449,7.88648438 C4.592287,7.88648438 5.08061401,7.71548438 5.44602048,7.37348438 C5.81173197,7.03178125 5.99474022,6.57785938 5.99474022,6.01142188 L5.99474022,5.2380625 Z M6.77222026,9.59321875 L6.26254229,8.31517188 L6.19330417,8.31517188 C5.74981418,8.85904688 5.29351361,9.23578125 4.82409745,9.44596875 C4.3549863,9.65615625 3.74312872,9.76125 2.98882972,9.76125 C2.06128291,9.76125 1.33169003,9.5035625 0.798831008,8.98789063 C0.266277003,8.47221875 0,7.73804688 0,6.78507813 C0,5.78757813 0.358391155,5.05192188 1.07517346,4.57810938 C1.7925658,4.10459375 2.87353453,3.84245313 4.31899468,3.79198438 L5.99474022,3.74151563 L5.99474022,3.32945313 C5.99474022,2.37678125 5.49360263,1.90029688 4.49163246,1.90029688 C3.71994768,1.90029688 2.81283679,2.12710938 1.77060481,2.58132813 L0.89826549,0.849359375 C2.00973559,0.28321875 3.24229615,0 4.59533714,0 C5.89103554,0 6.88446532,0.27490625 7.57562647,0.824125 C8.26648262,1.37334375 8.61206319,2.20845313 8.61206319,3.32945313 L8.61206319,9.59321875 L6.77222026,9.59321875 Z" id="path6_fill"></path>
                    </g>
                </g>
                <g id="Honeypot" transform="translate(0.000000, 5.937500)">
                    <g id="Group-19">
                        <g id="Group-3" transform="translate(0.000000, 4.393700)">
                            <mask id="mask-2" fill="white">
                                <use xlink:href="#path-1"></use>
                            </mask>
                            <g id="Clip-2"></g>
                            <path d="M22.705647,11.6270673 C22.5719023,9.73911351 22.1278387,7.93693241 21.4281612,6.26293273 C21.2428264,5.8195511 21.0458109,5.38209141 20.8252392,4.95781281 C21.6068768,4.50354245 22.132511,3.67007667 22.132511,2.71396935 C22.132511,1.27321783 20.9422415,0.105066738 19.4737752,0.105066738 L3.25542806,0.105066738 C1.78715642,0.105066738 0.596692202,1.27321783 0.596692202,2.71396935 C0.596692202,3.66931255 1.12154772,4.50220523 1.90221191,4.95685766 C1.68164021,5.38094522 1.48481939,5.81821388 1.29948465,6.26140449 C0.599417713,7.93578623 0.15515944,9.73854042 0.0212200489,11.6268762 C0.0110967228,11.851528 0,12.0761798 0,12.303315 C0,13.935288 0.270604294,15.504412 0.763143044,16.9747732 C0.909931273,17.3885451 1.19241101,18.1012797 1.53835621,18.5771365 C1.576124,18.6260403 1.61175032,18.6736068 1.65496914,18.724994 C1.6600308,18.730916 1.66509246,18.737602 1.67015413,18.743524 C1.82356145,18.9244298 2.00967491,19.1183257 2.23355616,19.3105023 C2.45957888,19.503061 2.72122793,19.6954286 3.01908733,19.8560852 C3.31363718,20.0161687 3.65705155,20.1453053 3.9959883,20.1882871 C4.35088875,20.2381461 4.72506246,20.1783536 5.01085174,19.9815922 C5.30209204,19.7897977 5.51039895,19.4537751 5.63090546,19.0741977 C5.87133446,18.3047271 5.84466339,17.4330552 5.77107459,16.6446726 C5.69047734,15.849795 5.54368912,15.1112713 5.39806896,14.4835453 C5.10215635,13.2275202 4.81188945,12.4118203 4.81188945,12.4118203 C4.81188945,12.4118203 5.15861337,13.2047876 5.54446783,14.4453392 C5.73525359,15.0659971 5.93577332,15.7989809 6.07516374,16.6049383 C6.20404146,17.4095585 6.30800024,18.2959397 6.09794122,19.201806 C5.99008886,19.6469069 5.76523421,20.1164597 5.35562887,20.4335702 C4.94563416,20.7562206 4.43304343,20.8561295 3.97282146,20.8670183 C3.48826456,20.8702658 3.0580232,20.7617605 2.66788579,20.6160043 C2.62038403,20.5980474 2.57989072,20.5747417 2.53355704,20.5556387 C3.24705685,21.6114639 4.09663752,22.5687174 5.05192908,23.413836 C5.56159962,23.6887288 6.39190704,23.8919852 7.49165067,23.3315019 C9.40943693,22.3543812 11.3272232,22.2458759 11.3272232,22.2458759 C11.3272232,22.2458759 13.2448148,22.3543812 15.162601,23.3315019 C16.450989,23.9880735 17.3698755,23.5972252 17.8353538,23.2699901 C18.7223129,22.4623134 19.5154366,21.5574022 20.1874697,20.5644261 C20.1444455,20.5821919 20.1066777,20.6039694 20.0624855,20.62078 C19.6723481,20.7665363 19.2421068,20.8750415 18.7575499,20.871794 C18.2973279,20.8607143 17.7847372,20.7609964 17.3747425,20.438346 C16.9651371,20.1210444 16.7402825,19.6516827 16.6324301,19.2065817 C16.4223711,18.3005244 16.5261352,17.4143342 16.6552076,16.609714 C16.794598,15.8035656 16.9951177,15.0707729 17.1859035,14.450115 C17.571758,13.2093723 17.9184819,12.416405 17.9184819,12.416405 C17.9184819,12.416405 17.628215,13.232105 17.3323024,14.4883211 C17.1866822,15.1158561 17.039894,15.8545707 16.9592967,16.6494484 C16.8857079,17.437831 16.8590369,18.3095028 17.0994659,19.0787824 C17.2199724,19.4585509 17.4282793,19.7943824 17.7195196,19.986368 C18.0053089,20.1831293 18.3796773,20.2429218 18.734383,20.1928719 C19.0733198,20.1500811 19.4167341,20.0207534 19.711284,19.860861 C20.0091434,19.7000134 20.2707924,19.5076457 20.4968152,19.3152781 C20.8009043,19.0541395 21.03121,18.7926188 21.2079788,18.561663 C21.4838395,18.1765457 21.7182334,17.6447169 21.8747556,17.2376311 C22.4253088,15.6925769 22.7270618,14.0327135 22.7270618,12.303315 C22.7270618,12.0761798 22.7159651,11.8517191 22.705647,11.6270673" id="Fill-1" fill="#F6C724" mask="url(#mask-2)"></path>
                        </g>
                        <path d="M8.97939025,8.9713622 C8.97939025,10.2862247 7.89327417,11.3521745 6.55329621,11.3521745 C5.21331826,11.3521745 4.1270075,10.2862247 4.1270075,8.9713622 C4.1270075,7.65649973 5.21331826,6.59054992 6.55329621,6.59054992 C7.89327417,6.59054992 8.97939025,7.65649973 8.97939025,8.9713622" id="Fill-4" fill="#FFFFFE"></path>
                        <path d="M3.25542806,5.79891981 C2.51876141,5.79891981 1.92167984,6.38481015 1.92167984,7.1076693 C1.92167984,7.57645798 2.17495768,7.98469002 2.55244093,8.21583684 C3.01402567,7.47196434 3.52914722,6.76381452 4.09566412,6.09883759 C3.86574781,5.91430219 3.57567559,5.79891981 3.25542806,5.79891981" id="Fill-5" fill="#26292D"></path>
                        <path d="M19.4737752,5.79891981 C19.1529436,5.79891981 18.862482,5.91468425 18.632371,6.09998377 C19.1986933,6.76496071 19.7136201,7.47291949 20.1752049,8.21679199 C20.5536615,7.9858362 20.8077181,7.5772221 20.8077181,7.1076693 C20.8077181,6.38481015 20.2104418,5.79891981 19.4737752,5.79891981" id="Fill-6" fill="#26292D"></path>
                        <path d="M6.55329621,7.91190742 C6.47834467,7.91190742 6.40533991,7.91935761 6.33486599,7.93368489 C6.3780848,8.01449076 6.40300376,8.1063764 6.40300376,8.20399295 C6.40300376,8.52511511 6.13765581,8.78548959 5.81020514,8.78548959 C5.70040599,8.78548959 5.59780997,8.75568884 5.50942555,8.70449269 C5.48684275,8.78988329 5.47360455,8.87890347 5.47360455,8.9713622 C5.47360455,9.55648842 5.95699337,10.030817 6.55329621,10.030817 C7.14959906,10.030817 7.63298788,9.55648842 7.63298788,8.9713622 C7.63298788,8.38623599 7.14959906,7.91190742 6.55329621,7.91190742" id="Fill-7" fill="#26292D"></path>
                        <path d="M18.5998596,8.9713622 C18.5998596,10.2862247 17.5137435,11.3521745 16.1737656,11.3521745 C14.8337876,11.3521745 13.7474768,10.2862247 13.7474768,8.9713622 C13.7474768,7.65649973 14.8337876,6.59054992 16.1737656,6.59054992 C17.5137435,6.59054992 18.5998596,7.65649973 18.5998596,8.9713622" id="Fill-8" fill="#FFFFFE"></path>
                        <path d="M16.1737656,7.91190742 C16.098814,7.91190742 16.0258093,7.91935761 15.9553353,7.93368489 C15.9987488,8.01449076 16.0234731,8.1063764 16.0234731,8.20399295 C16.0234731,8.52511511 15.7581252,8.78548959 15.4306745,8.78548959 C15.3208753,8.78548959 15.2182793,8.75568884 15.1298949,8.70449269 C15.1073121,8.78988329 15.0940739,8.87890347 15.0940739,8.9713622 C15.0940739,9.55648842 15.5774627,10.030817 16.1737656,10.030817 C16.7700684,10.030817 17.2534572,9.55648842 17.2534572,8.9713622 C17.2534572,8.38623599 16.7700684,7.91190742 16.1737656,7.91190742" id="Fill-9" fill="#26292D"></path>
                        <path d="M14.6258701,13.5685096 C14.6258701,15.3561723 13.1490325,16.8055202 11.3272232,16.8055202 C9.50521917,16.8055202 8.02838164,15.3561723 8.02838164,13.5685096 C8.02838164,11.7806557 9.50521917,10.3314989 11.3272232,10.3314989 C13.1490325,10.3314989 14.6258701,11.7806557 14.6258701,13.5685096" id="Fill-10" fill="#FFFFFE"></path>
                        <path d="M13.0386493,11.800905 C13.0386493,11.7562038 13.0300834,11.7139861 13.017624,11.6731056 C13.0123676,11.6530474 13.0080847,11.6412035 13.0080847,11.6412035 L13.0076953,11.6412035 C12.992121,11.6014692 12.9712903,11.5646003 12.9455926,11.53117 L12.9457873,11.5307879 C12.9457873,11.5307879 12.7520813,11.1386025 11.3466911,11.1349729 L11.3466911,11.1345908 C11.3431869,11.1345908 11.3402667,11.1347818 11.3369572,11.1347818 C11.3334529,11.1347818 11.3305327,11.1345908 11.3272232,11.1345908 L11.3272232,11.1349729 C10.5095699,11.1370742 10.1028848,11.2702224 9.90528523,11.3817842 C9.78594679,11.4287777 9.69230602,11.5231467 9.64655638,11.6412035 L9.64597234,11.6412035 C9.64597234,11.6412035 9.64091068,11.6551487 9.63487562,11.6784545 C9.62358421,11.7176157 9.61560236,11.7581142 9.61560236,11.800905 C9.61560236,11.8047256 9.61657576,11.8083552 9.61677044,11.8121758 C9.60839922,12.0156232 9.67634232,12.3738052 10.1462983,12.7411568 C10.5757609,13.0767972 10.9108041,13.2015401 11.1130759,13.2489156 L11.1130759,16.7948225 C11.1841339,16.7992162 11.2548025,16.8055202 11.3270285,16.8055202 C11.3992545,16.8055202 11.4701178,16.7992162 11.5411758,16.7948225 L11.5411758,13.2489156 C11.7434476,13.2013491 12.0784908,13.0766062 12.5075641,12.7411568 C12.9755732,12.3753335 13.0448791,12.0184886 13.0372866,11.8146592 C13.0374813,11.8100744 13.0386493,11.8056807 13.0386493,11.800905" id="Fill-11" fill="#26292D"></path>
                        <path d="M6.01929076,3.80437106 L16.6585171,3.80437106 C15.3845355,2.94473412 13.88823,2.38004816 12.2671351,2.22378526 L12.9185322,0.483498025 C12.9185322,0.483498025 12.5038652,0.144419007 11.3389039,0.144419007 C10.1739427,0.144419007 9.75927572,0.483498025 9.75927572,0.483498025 L10.4106728,2.22378526 C8.78957789,2.37985713 7.29327242,2.94473412 6.01929076,3.80437106" id="Fill-12" fill="#F6C724"></path>
                        <path d="M1.79066064,21.8922786 C1.79066064,21.8922786 1.61428115,21.6674358 1.42018584,21.2870942 C1.22492246,20.9084719 1.02673888,20.3733956 0.900197305,19.8230369 C0.771708936,19.2728693 0.710384941,18.7114309 0.697925463,18.2898267 C0.68682874,17.8676494 0.71369449,17.5858796 0.71369449,17.5858796 C0.71369449,17.5858796 0.734914539,17.6540774 0.763921762,17.7734714 C0.792150267,17.8926744 0.832643572,18.0628825 0.88092405,18.2672851 C0.973980778,18.6751351 1.08572672,19.2167064 1.21304702,19.7529288 C1.33433225,20.2904884 1.47508542,20.8225082 1.59130899,21.2219528 C1.65029683,21.4225348 1.69955071,21.5894954 1.73400895,21.706406 C1.77255546,21.8236987 1.79066064,21.8922786 1.79066064,21.8922786" id="Fill-13" fill="#FFFFFE"></path>
                        <path d="M18.242623,18.4930831 C18.242623,18.4930831 18.237756,18.6823942 18.2077754,18.957096 C18.1760427,19.2316067 18.1141346,19.5903619 18.0399618,19.9456785 C17.9628688,20.300422 17.8748737,20.6526821 17.7954445,20.9170682 C17.7586501,21.0496434 17.7144579,21.1589128 17.6920698,21.2368532 C17.6659828,21.3142205 17.6467095,21.3583485 17.6467095,21.3583485 C17.6467095,21.3583485 17.6153661,21.1713297 17.61303,20.8916612 C17.6118619,20.6125657 17.6492403,20.2429218 17.725944,19.8813012 C17.8036211,19.5198717 17.9194553,19.1676115 18.0302278,18.9112487 C18.1427525,18.6550769 18.242623,18.4930831 18.242623,18.4930831" id="Fill-14" fill="#FFFFFE"></path>
                        <path d="M3.21298796,4.81568617 C3.21298796,4.81568617 3.01441503,4.89018804 2.75568617,5.04263033 C2.62525101,5.1165591 2.48002022,5.20959092 2.33478942,5.31943342 C2.18839055,5.42774768 2.04452251,5.55650219 1.91214056,5.69519028 C1.77567033,5.83120395 1.66139356,5.98536551 1.55178908,6.13112173 C1.45328133,6.28375505 1.35769377,6.42702787 1.28819325,6.55941196 C1.20993215,6.68759338 1.15522725,6.80182958 1.11512331,6.88206236 C1.07385128,6.96172205 1.04562278,7.00737832 1.04562278,7.00737832 C1.04562278,7.00737832 1.04601214,6.95580011 1.05496739,6.86563374 C1.0689843,6.77718665 1.06840026,6.64270123 1.11648606,6.49331543 C1.15016559,6.33877181 1.22063951,6.16760854 1.30921862,5.988422 C1.40519553,5.81286503 1.53037436,5.636926 1.67852534,5.4793259 C1.98008365,5.16699114 2.37294657,4.95361015 2.68521225,4.87643385 C2.99786728,4.79276252 3.21298796,4.81568617 3.21298796,4.81568617" id="Fill-15" fill="#FFFFFE"></path>
                    </g>
                    <g id="Group-21" transform="translate(30.969597, 7.123370)" fill="#000000">
                        <path d="M23.4964009,12.508305 C22.8520899,13.1553731 22.0611427,13.477963 21.1245114,13.477963 C20.2021629,13.477963 19.4185157,13.1553731 18.7742048,12.508305 C18.1298939,11.8631252 17.8080558,11.0313154 17.8080558,10.0150786 C17.8080558,9.01268949 18.1298939,8.18622992 18.7742048,7.53223793 C19.4185157,6.87887538 20.2021629,6.55187938 21.1245114,6.55187938 C22.0471774,6.55187938 22.8336811,6.87887538 23.4856095,7.53223793 C24.1369031,8.18622992 24.4628673,9.01268949 24.4628673,10.0150786 C24.4628673,11.0313154 24.1407118,11.8631252 23.4964009,12.508305 L23.4964009,12.508305 Z M21.1245114,4.20027775 C19.3962981,4.20027775 17.9432659,4.74852321 16.7647799,5.84406995 C15.5856592,6.94056086 14.9965749,8.33068725 14.9965749,10.0150786 C14.9965749,11.6994699 15.5856592,13.0892816 16.7647799,14.1857725 C17.9432659,15.2822634 19.3962981,15.8305088 21.1245114,15.8305088 C22.8670075,15.8305088 24.3273398,15.2822634 25.5061431,14.1857725 C26.6846291,13.0892816 27.2740308,11.6994699 27.2740308,10.0150786 C27.2740308,8.33068725 26.6811378,6.94056086 25.4953517,5.84406995 C24.3092483,4.74852321 22.8520899,4.20027775 21.1245114,4.20027775 L21.1245114,4.20027775 Z" id="Fill-16"></path>
                        <path d="M45.7454412,8.57742918 C45.9063602,7.88126446 46.2243896,7.333019 46.7004814,6.93363698 C47.1759384,6.53425496 47.7729575,6.33440658 48.4905866,6.33440658 C49.0761796,6.33440658 49.5703629,6.5449555 49.9734539,6.96636805 C50.3755928,7.38746588 50.5844384,7.92438135 50.5990386,8.57742918 L45.7454412,8.57742918 L45.7454412,8.57742918 Z M48.4905866,4.20027775 C46.8068085,4.20027775 45.4378859,4.74159932 44.3835012,5.82298359 C43.3291165,6.90468257 42.8019242,8.30236228 42.8019242,10.0150786 C42.8019242,11.6412463 43.3548255,13.0168955 44.4606281,14.1426556 C45.5657959,15.2671567 47.0191455,15.8305088 48.8200422,15.8305088 C49.3472345,15.8305088 49.8636354,15.7678792 50.3686101,15.6445082 C50.8739023,15.5217667 51.28715,15.3870657 51.6096228,15.2416643 C51.9314609,15.0972069 52.2425075,14.9294602 52.5430802,14.7409418 C52.8436528,14.5524234 53.0372635,14.4183519 53.124547,14.3380978 C53.2134175,14.2587879 53.2791181,14.196473 53.321649,14.1530414 L52.1590328,12.2360706 L51.762607,12.5410361 C51.5137697,12.7446611 51.1262309,12.9517481 50.5990386,13.162297 C50.0721636,13.3731607 49.5449713,13.477963 49.017779,13.477963 C48.1392309,13.477963 47.384784,13.2161145 46.755708,12.6933615 C46.1259972,12.1709232 45.7597239,11.4385655 45.6575229,10.4943999 L53.389254,10.4943999 L53.4549547,9.47029505 C53.4549547,7.94641188 53.0159981,6.68689505 52.135863,5.69174458 C51.2582671,4.69753827 50.0426459,4.20027775 48.4905866,4.20027775 L48.4905866,4.20027775 Z" id="Fill-17"></path>
                        <path d="M75.7906437,12.5737672 C75.2485339,13.1915662 74.5747052,13.4999936 73.7704274,13.4999936 C72.8912446,13.4999936 72.2104333,13.162297 71.7276761,12.4872187 C71.2442843,11.8121403 71.0024296,11.0099143 71.0024296,10.080226 C71.0024296,8.91953182 71.2734846,8.04429037 71.8149596,7.45638996 C72.3570695,6.86848956 73.0229633,6.57390991 73.8139105,6.57390991 C74.6486582,6.57390991 75.3215346,6.89398203 75.8344442,7.53223793 C76.3473538,8.17112328 76.6031738,9.01268949 76.6031738,10.0591396 C76.6031738,11.1184934 76.3321188,11.9565976 75.7906437,12.5737672 L75.7906437,12.5737672 Z M74.4290211,4.20027775 C73.9456292,4.20027775 73.4876289,4.26573989 73.0556549,4.39603474 C72.623681,4.5266443 72.2875601,4.66858386 72.0460229,4.82090923 C71.8041682,4.97354932 71.5810399,5.15136717 71.3756856,5.35404804 C71.1703313,5.55767307 71.0424213,5.69961262 70.9916382,5.77892253 C70.9402203,5.8591766 70.9002286,5.92086208 70.8707109,5.96397897 L70.8262756,5.96397897 L70.8262756,5.52871866 C70.8262756,4.81744729 70.3581187,4.46118216 69.42117,4.46118216 L64.3260353,4.46118216 C63.5642884,4.46118216 63.0666138,4.81052341 62.832694,5.50668813 L62.7695325,5.68985625 L60.5487228,12.0931869 L57.9127611,5.50668813 C57.7661248,5.12933664 57.5829882,4.86056418 57.3633512,4.70100021 C57.1440315,4.54143623 56.8364762,4.46118216 56.4406852,4.46118216 L54.2871632,4.46118216 L59.2524835,15.5466297 L58.8789101,16.3963787 C58.4834365,17.3402295 57.8683259,17.8116828 57.0335782,17.8116828 C56.4184676,17.8116828 55.8842926,17.558017 55.430101,17.0494265 L54.3547683,19.0095142 L54.683589,19.2924491 C54.8889433,19.4812822 55.2256989,19.6698006 55.6941732,19.8592632 C56.1626476,20.0477816 56.6603222,20.1421981 57.1875146,20.1421981 C58.0666975,20.1421981 58.8639926,19.8989181 59.5822564,19.4123582 C60.2986159,18.9257982 60.8480259,18.2038263 61.2292167,17.245813 L65.2487013,7.20587138 C65.3509023,6.94433752 65.5632393,6.81372796 65.8850773,6.81372796 L67.8176927,6.81372796 C68.1392134,6.81372796 68.3010846,6.97329193 68.3010846,7.29241988 L68.3010846,19.9244106 L71.0681303,19.9244106 L71.0681303,15.3288422 C71.0681303,14.9518054 71.0538475,14.6317333 71.0246472,14.3708289 L71.0681303,14.3708289 L71.3756856,14.7409418 C71.5810399,14.9735212 71.9498523,15.2133393 72.4849795,15.4594518 C73.0191546,15.7061937 73.6164911,15.8305088 74.2754022,15.8305088 C75.7684261,15.8305088 76.9986474,15.2961111 77.9651138,14.2288894 C78.9312628,13.162297 79.4146547,11.7573787 79.4146547,10.0150786 C79.4146547,8.28757036 78.9604631,6.88611398 78.0530321,5.8116536 C77.1446489,4.73719322 75.9366452,4.20027775 74.4290211,4.20027775 L74.4290211,4.20027775 Z" id="Fill-18"></path>
                        <path d="M89.3202211,12.508305 C88.6759101,13.1553731 87.8855977,13.477963 86.9489664,13.477963 C86.0263005,13.477963 85.2423359,13.1553731 84.5986598,12.508305 C83.9543489,11.8631252 83.6315586,11.0313154 83.6315586,10.0150786 C83.6315586,9.01268949 83.9543489,8.18622992 84.5986598,7.53223793 C85.2423359,6.87887538 86.0263005,6.55187938 86.9489664,6.55187938 C87.8706802,6.55187938 88.658136,6.87887538 89.309747,7.53223793 C89.9613581,8.18622992 90.2866875,9.01268949 90.2866875,10.0150786 C90.2866875,11.0313154 89.9648494,11.8631252 89.3202211,12.508305 L89.3202211,12.508305 Z M86.9489664,4.20027775 C85.2207531,4.20027775 83.7677209,4.74852321 82.5889175,5.84406995 C81.4101142,6.94056086 80.8210299,8.33068725 80.8210299,10.0150786 C80.8210299,11.6994699 81.4101142,13.0892816 82.5889175,14.1857725 C83.7677209,15.2822634 85.2207531,15.8305088 86.9489664,15.8305088 C88.6911451,15.8305088 90.1514774,15.2822634 91.3302807,14.1857725 C92.5087667,13.0892816 93.0981684,11.6994699 93.0981684,10.0150786 C93.0981684,8.33068725 92.5052753,6.94056086 91.3194893,5.84406995 C90.1327511,4.74852321 88.6759101,4.20027775 86.9489664,4.20027775 L86.9489664,4.20027775 Z" id="Fill-19"></path>
                        <path d="M100.675011,13.238145 C100.118301,13.238145 99.6101523,13.0892816 99.1486606,12.7921841 C98.6874863,12.4944573 98.4561057,11.9462118 98.4561057,11.1474478 L98.4561057,6.66140258 L101.004784,6.66140258 L101.004784,4.46118216 L98.4561057,4.46118216 L98.4561057,1.43450217 L95.7328605,1.43450217 L95.7328605,4.46118216 L94.2173015,4.46118216 L94.2173015,6.66140258 L95.6668424,6.66140258 L95.6668424,11.4958449 C95.6668424,12.2077457 95.7807871,12.8283771 96.0074068,13.358054 C96.2340265,13.888675 96.5130163,14.2949809 96.8421544,14.5779159 C97.1719274,14.8608508 97.5629574,15.0890242 98.017149,15.2636948 C98.4713406,15.4380507 98.8741143,15.5510358 99.2251527,15.6010766 C99.5771432,15.6523763 99.9424644,15.6778687 100.323655,15.6778687 C100.659776,15.6778687 100.946066,15.6558382 101.179668,15.6117771 L101.179668,13.1950281 L100.675011,13.238145" id="Fill-20"></path>
                        <path d="M9.95857129,1.58714227 L9.95857129,6.66140258 L3.08380541,6.66140258 L3.08380541,1.58714227 C3.08380541,1.07855176 2.96668683,0.704976934 2.73276704,0.465158888 C2.49821247,0.225340841 2.11765641,0.105431818 1.59046407,0.105431818 L0.20662385,0.105431818 L0.20662385,15.5686603 L3.08380541,15.5686603 L3.08380541,9.07878108 L9.95857129,9.07878108 L9.95857129,15.5686603 L12.8357529,15.5686603 L12.8357529,0.105431818 L11.45223,0.105431818 C10.4562459,0.105431818 9.95857129,0.599859838 9.95857129,1.58714227" id="Fill-21"></path>
                        <path d="M36.4327678,4.20027775 C35.422501,4.20027775 34.5877533,4.43222775 33.9285248,4.89675719 C33.2699311,5.3622308 32.7868566,5.89883155 32.4793013,6.50876249 L32.4355009,6.50876249 L32.4793013,6.02944112 L32.4793013,5.70307456 C32.4793013,4.87567083 31.9886094,4.46118216 31.0078602,4.46118216 L29.7998566,4.46118216 L29.7998566,15.5686603 L32.5672196,15.5686603 L32.5672196,10.4723694 C32.5672196,9.92066201 32.6402204,9.42717816 32.7868566,8.99160313 C32.9918935,8.30960089 33.3610234,7.76135543 33.8958332,7.34686676 C34.4303256,6.93363698 35.0632103,6.72655 35.7957569,6.72655 C36.4549854,6.72655 36.912351,6.9194745 37.1684884,7.30374987 C37.4246258,7.68802524 37.5531705,8.25137735 37.5531705,8.99160313 L37.5531705,14.087894 C37.5531705,14.610647 37.6699717,14.9876837 37.9042089,15.2205779 C38.1384461,15.4522132 38.5193195,15.5686603 39.0465119,15.5686603 L40.3424338,15.5686603 L40.3424338,8.42478908 C40.3424338,5.60897273 39.0388944,4.20027775 36.4327678,4.20027775" id="Fill-22"></path>
                    </g>
                </g>
            </g>
        </g>
    </g>
</svg>