<svg width="101" height="137" viewBox="0 0 101 137" fill="none" xmlns="http://www.w3.org/2000/svg">
<g id="organizers-logo-vertical">
<g id="Group 7" opacity="0.49281">
<path id="Path 6" d="M55.9995 40.1962L44.9941 29.3051" stroke="#979797" stroke-width="0.585686"/>
<path id="Path 6_2" d="M44.9946 40.1962L56 29.3051" stroke="#979797" stroke-width="0.585686"/>
</g>
<g id="Group 7.1" opacity="0.49281">
<path id="Path 6_3" d="M55.9995 96.0667L44.9941 85.1755" stroke="#979797" stroke-width="0.585686"/>
<path id="Path 6_4" d="M44.9946 96.0667L56 85.1755" stroke="#979797" stroke-width="0.585686"/>
</g>
<g id="Prisma Logo Dark">
<g id="path0_fill-link">
<path id="path0_fill" fill-rule="evenodd" clip-rule="evenodd" d="M26.4568 49.1103L36.6966 70.2747V70.2744C36.9085 70.7118 36.9119 71.2177 36.7059 71.6577C36.4973 72.1002 36.1019 72.4328 35.622 72.5697L19.8642 77.1058C19.701 77.1529 19.5349 77.1756 19.3697 77.1756C18.787 77.1756 18.2265 76.8928 17.9029 76.4042L12.4743 68.2194C12.118 67.6869 12.1104 67.0018 12.4548 66.4619L23.5604 48.9543C23.8753 48.4565 24.4336 48.164 25.0567 48.1993C25.6599 48.2292 26.1976 48.5789 26.4568 49.1099V49.1103ZM21.0339 75.0313L34.4042 71.1825H34.4039C34.7838 71.0734 34.9738 70.6668 34.807 70.322L25.9633 52.0433C25.7768 51.6578 25.1855 51.7239 25.0962 52.14L20.3198 74.4042C20.234 74.8051 20.6255 75.149 21.0339 75.0313Z" fill="#0C344B"/>
</g>
<g id="path1_fill-link">
<path id="path1_fill" fill-rule="evenodd" clip-rule="evenodd" d="M50.3435 63.4744C50.9916 62.9401 51.3154 62.1688 51.3154 61.1599C51.3154 60.1896 51.0113 59.4597 50.4031 58.9702C49.7948 58.4809 48.9067 58.2362 47.7383 58.2362H44.6621V67.6101H46.7042V64.2759H47.5804C48.7748 64.2759 49.696 64.009 50.3435 63.4744ZM47.3761 62.6474H46.7044V59.8647H47.6329C48.1907 59.8647 48.6001 59.9759 48.8616 60.1982C49.1228 60.4205 49.2535 60.7646 49.2535 61.2304C49.2535 61.692 49.0977 62.0436 48.7857 62.2851C48.474 62.5267 48.0042 62.6474 47.3761 62.6474Z" fill="#0C344B"/>
</g>
<g id="path2_fill-link">
<path id="path2_fill" d="M56.7278 60.3071C57.0002 60.3071 57.2263 60.3264 57.4063 60.3649L57.2549 62.1985C57.0923 62.1559 56.8948 62.1344 56.662 62.1344C56.0207 62.1344 55.5213 62.2947 55.1631 62.6153C54.8053 62.9359 54.6264 63.3848 54.6264 63.9619V67.6101H52.6172V60.4418H54.1389L54.4355 61.6472H54.5341C54.7549 61.2534 55.0731 60.9195 55.4599 60.6757C55.8483 60.4301 56.271 60.3071 56.7278 60.3071" fill="#0C344B"/>
</g>
<g id="path3_fill-link">
<path id="path3_fill" fill-rule="evenodd" clip-rule="evenodd" d="M59.4817 57.6335C58.7527 57.6335 58.3882 57.9519 58.3882 58.5887C58.3882 59.2299 58.7527 59.5505 59.4817 59.5505C59.8462 59.5505 60.1195 59.4663 60.3018 59.2974C60.484 59.1285 60.5752 58.8923 60.5752 58.5887C60.5752 57.9519 60.2104 57.6335 59.4817 57.6335ZM60.4827 67.6102H58.4734V60.4419H60.4827V67.6102Z" fill="#0C344B"/>
</g>
<g id="path4_fill-link">
<path id="path4_fill" d="M67.5546 65.4815C67.5546 66.2169 67.2922 66.7768 66.7672 67.1614C66.2424 67.5461 65.4574 67.7385 64.4123 67.7385C63.8763 67.7385 63.42 67.7032 63.0422 67.6326C62.6782 67.5662 62.3226 67.4619 61.9815 67.3217V65.7059C62.3549 65.877 62.7752 66.0201 63.2432 66.1356C63.7107 66.2508 64.1224 66.3086 64.4781 66.3086C65.2071 66.3086 65.5718 66.1034 65.5718 65.6932C65.5718 65.5393 65.5234 65.4143 65.4269 65.3181C65.3301 65.2218 65.1634 65.1129 64.9261 64.9909C64.6891 64.8691 64.3727 64.7272 63.9775 64.5646C63.4111 64.3339 62.9948 64.1202 62.7294 63.9234C62.4635 63.7269 62.2702 63.5014 62.1497 63.247C62.0287 62.9927 61.9683 62.6796 61.9683 62.3076C61.9683 61.6708 62.2218 61.1783 62.7294 60.8299C63.2364 60.4815 63.9554 60.3074 64.8865 60.3074C65.7737 60.3074 66.6367 60.4955 67.4755 60.8716L66.8695 62.282C66.5313 62.1394 66.1861 62.0132 65.8351 61.9037C65.5177 61.8059 65.1867 61.7562 64.8538 61.7563C64.2608 61.7563 63.9643 61.9123 63.9643 62.2243C63.9643 62.3998 64.0601 62.5515 64.2508 62.6796C64.442 62.8077 64.8603 62.9981 65.5057 63.2504C66.0812 63.477 66.5029 63.6884 66.7707 63.8849C67.0384 64.0817 67.2361 64.3081 67.3636 64.5646C67.491 64.8211 67.5546 65.1268 67.5546 65.4815" fill="#0C344B"/>
</g>
<g id="path5_fill-link">
<path id="path5_fill" d="M75.5146 67.6101H73.5053V63.4233C73.5053 62.9062 73.4162 62.5182 73.2388 62.2596C73.0606 62.0011 72.7808 61.8716 72.3986 61.8716C71.885 61.8716 71.5117 62.0554 71.2788 62.4231C71.046 62.7907 70.9297 63.3955 70.9297 64.2377V67.6101H68.9204V60.4418H70.4554L70.7254 61.3588H70.8376C71.035 61.0296 71.3207 60.7719 71.6938 60.5861C72.0671 60.4002 72.4953 60.3071 72.9785 60.3071C74.0808 60.3071 74.8272 60.6578 75.2182 61.3588H75.396C75.5937 61.0253 75.8847 60.7667 76.2689 60.5829C76.6532 60.399 77.0868 60.3071 77.5699 60.3071C78.4043 60.3071 79.0358 60.5156 79.4638 60.9322C79.892 61.349 80.106 62.0169 80.106 62.9359V67.6101H78.0902V63.4233C78.0902 62.9062 78.0012 62.5182 77.8237 62.2596C77.6455 62.0011 77.3657 61.8716 76.9835 61.8716C76.4918 61.8716 76.124 62.0427 75.88 62.3846C75.6365 62.7267 75.5146 63.2693 75.5146 64.0131V67.6101V67.6101Z" fill="#0C344B"/>
</g>
<g id="path6_fill-link">
<path id="path6_fill" fill-rule="evenodd" clip-rule="evenodd" d="M86.1572 66.6354L86.5459 67.6101H87.949V62.8333C87.949 61.9784 87.6855 61.3415 87.1586 60.9227C86.6315 60.5038 85.8739 60.2942 84.8858 60.2942C83.854 60.2942 82.914 60.5102 82.0664 60.9419L82.7316 62.2627C83.5264 61.9163 84.2182 61.7434 84.8067 61.7434C85.5708 61.7434 85.953 62.1068 85.953 62.8333V63.1475L84.6751 63.186C83.5727 63.2245 82.7484 63.4244 82.2013 63.7855C81.6547 64.1468 81.3813 64.7079 81.3813 65.4686C81.3813 66.1953 81.5844 66.7552 81.9905 67.1485C82.3969 67.5417 82.9533 67.7382 83.6607 67.7382C84.2359 67.7382 84.7025 67.6581 85.0603 67.4978C85.4182 67.3375 85.7662 67.0502 86.1044 66.6354H86.1572ZM85.1758 64.3144L85.9532 64.2888V64.8786C85.9532 65.3106 85.8137 65.6567 85.5348 65.9173C85.2561 66.1781 84.8837 66.3085 84.4182 66.3085C83.7683 66.3085 83.4434 66.0328 83.4434 65.4815C83.4434 65.0966 83.586 64.8104 83.8716 64.6223C84.157 64.4342 84.5918 64.3316 85.1758 64.3144Z" fill="#0C344B"/>
</g>
</g>
<g id="White Purple With Text 2">
<g id="Group 2">
<g id="graphcms_logo_square">
<path id="BG" d="M22.5272 106.643L31.1348 111.653V111.653C32.4455 112.416 33.2522 113.822 33.2522 115.342V125.395V125.395C33.2522 126.916 32.4455 128.322 31.1348 129.084L22.5272 134.095V134.095C21.2091 134.862 19.5827 134.862 18.2646 134.095L9.65693 129.084V129.084C8.34631 128.322 7.53955 126.916 7.53955 125.395V115.342V115.342C7.53955 113.822 8.34631 112.416 9.65693 111.653L18.2646 106.643V106.643C19.5827 105.876 21.2091 105.876 22.5272 106.643Z" fill="#4A1357"/>
<path id="Path" fill-rule="evenodd" clip-rule="evenodd" d="M32.3633 115.437C32.3633 114.115 31.663 112.893 30.5252 112.23L22.2094 107.383C21.0651 106.716 19.6532 106.716 18.5089 107.383L10.1931 112.23C9.05534 112.893 8.35498 114.115 8.35498 115.437V125.152C8.35498 126.474 9.05534 127.696 10.1931 128.36L18.5089 133.207C19.6532 133.873 21.0651 133.873 22.2094 133.207L30.5252 128.36C31.663 127.696 32.3633 126.474 32.3633 125.152V115.437ZM10.6197 112.97L18.9355 108.123C19.8157 107.61 20.9018 107.61 21.782 108.123L30.0978 112.97C30.973 113.48 31.5118 114.42 31.5118 115.437V125.153C31.5118 126.169 30.973 127.109 30.0978 127.62L21.782 132.467C20.9018 132.98 19.8157 132.98 18.9355 132.467L10.6197 127.62C9.74446 127.109 9.20572 126.169 9.20572 125.153V115.437C9.20572 114.42 9.74446 113.48 10.6197 112.97Z" fill="white"/>
<g id="Group-Clipped">
<g id="Group Clipped">
<mask id="mask0" mask-type="alpha" maskUnits="userSpaceOnUse" x="9" y="108" width="22" height="23">
<path id="path-4" fill-rule="evenodd" clip-rule="evenodd" d="M9.9917 115.867V115.867C9.9917 114.848 10.5309 113.906 11.4069 113.395V113.395L18.9737 108.978C19.8537 108.464 20.9394 108.463 21.8201 108.975V108.975L24.5585 110.568C24.6015 110.593 24.6373 110.629 24.6622 110.672C24.7408 110.809 24.6943 110.984 24.5585 111.063V111.063L14.6917 116.803C14.6039 116.854 14.5498 116.948 14.5498 117.05V117.05V119.419C14.5498 119.47 14.5366 119.519 14.5114 119.563C14.4327 119.699 14.2589 119.746 14.1232 119.667V119.667L12.3605 118.637C12.3172 118.612 12.268 118.599 12.2179 118.599C12.061 118.599 11.9338 118.727 11.9338 118.884V124.977C11.9338 125.079 11.9881 125.173 12.0761 125.224V125.224L14.4075 126.575C14.4956 126.626 14.5498 126.721 14.5498 126.823V128.492C14.5498 128.543 14.5366 128.592 14.5114 128.636C14.4326 128.772 14.2587 128.819 14.1231 128.739V128.739L11.4054 127.151C10.5302 126.639 9.9917 125.698 9.9917 124.679V124.679V115.867ZM15.8365 129.578V117.803C15.8365 117.701 15.8908 117.606 15.9788 117.555L20.2483 115.082C20.3364 115.031 20.4449 115.032 20.5328 115.083L24.8036 117.581C24.8911 117.632 24.9449 117.727 24.9449 117.828V129.579V129.579C24.9449 129.681 24.8908 129.775 24.8029 129.826L23.4401 130.618V130.618C23.3042 130.697 23.1305 130.65 23.0521 130.514C23.0271 130.47 23.014 130.421 23.014 130.371V124.57C23.014 124.412 22.8868 124.285 22.73 124.285C22.6798 124.285 22.6305 124.298 22.5871 124.323L20.5395 125.522C20.451 125.574 20.3416 125.574 20.2533 125.522L18.2189 124.325C18.0834 124.245 17.9095 124.291 17.8303 124.427C17.8048 124.471 17.7914 124.521 17.7914 124.572V130.374V130.374C17.7914 130.532 17.6642 130.66 17.5074 130.66C17.458 130.66 17.4095 130.647 17.3666 130.622L15.9798 129.826V129.826C15.8912 129.775 15.8365 129.68 15.8365 129.578V129.578ZM30.7968 115.713V117.062C30.7968 117.164 30.7434 117.258 30.6566 117.309L28.3331 118.681V118.681C28.2462 118.733 28.1928 118.826 28.1928 118.928V120.517C28.1928 120.674 28.32 120.802 28.4769 120.802C28.5267 120.802 28.5756 120.789 28.6187 120.764L30.3709 119.748C30.5068 119.669 30.6805 119.716 30.7588 119.853C30.7837 119.896 30.7968 119.945 30.7968 119.995V124.676C30.7968 125.696 30.2574 126.638 29.3812 127.149L26.68 128.725C26.5443 128.804 26.3705 128.758 26.2918 128.621C26.2667 128.578 26.2534 128.528 26.2534 128.478V126.87C26.2534 126.767 26.3076 126.673 26.3954 126.622L28.7114 125.276V125.276C28.7992 125.225 28.8534 125.131 28.8534 125.028V123.414C28.8534 123.256 28.7262 123.128 28.5693 123.128C28.5193 123.128 28.4702 123.141 28.4269 123.167L26.6799 124.185C26.5442 124.264 26.3704 124.218 26.2917 124.081C26.2667 124.038 26.2534 123.988 26.2534 123.938V117.068V117.068C26.2534 116.966 26.1996 116.872 26.112 116.821L22.0938 114.474V114.474C21.9581 114.395 21.912 114.22 21.9907 114.083C22.0155 114.04 22.0511 114.004 22.0939 113.979L26.1111 111.637C26.1991 111.585 26.3078 111.585 26.3959 111.636L29.4959 113.443C30.3011 113.912 30.7968 114.777 30.7968 115.713V115.713Z" fill="white"/>
</mask>
<g mask="url(#mask0)">
<g id="Group">
<g id="Group_2">
<g id="Group_3">
<path id="Polygon-2-Copy" d="M32.2101 113.341V127.399L20.138 134.428L20.1123 120.336L32.2101 113.341Z" fill="#E6E6E6"/>
<path id="Polygon-2-Copy-2" d="M20.419 120.256V132.397L10.0005 126.331V114.198L20.419 120.256Z" fill="#D2D2D2"/>
<path id="Polygon-2" d="M20.4184 108.132L30.9725 114.277L20.3959 120.423L9.86426 114.277L20.4184 108.132Z" fill="white"/>
</g>
</g>
</g>
</g>
</g>
</g>
</g>
<path id="Combined Shape" fill-rule="evenodd" clip-rule="evenodd" d="M85.0279 124.815V117.697L83.986 121.579H82.726L81.6356 117.697V124.815H80.1576V115.923H82.6775L83.3923 119.34L84.1193 115.923H86.5302V124.815H85.0279ZM76.4946 124.815C76.7079 124.815 77.8734 124.815 77.9344 124.799V123.353C77.8691 123.353 77.6294 123.351 77.359 123.349L77.3589 123.349C77.0092 123.346 76.6083 123.343 76.4669 123.343C76.2919 123.343 76.1233 123.307 75.9939 123.235C75.8646 123.163 75.7615 123.018 75.6847 122.798C75.6079 122.578 75.5513 122.294 75.5149 121.897C75.4785 121.5 75.4805 119.129 75.5209 118.74C75.5614 118.351 75.622 118.08 75.7029 117.877C75.7837 117.674 75.902 117.592 76.0121 117.528C76.1223 117.464 76.2891 117.408 76.4669 117.408C76.5789 117.408 76.9101 117.405 77.2328 117.403L77.2329 117.403L77.233 117.403L77.233 117.403C77.5396 117.4 77.8385 117.398 77.9344 117.398V115.939C77.773 115.928 76.9399 115.93 76.9399 115.93C76.8106 115.918 75.7554 115.91 75.3997 116.007C75.0439 116.104 74.7447 116.28 74.5022 116.584C74.2596 116.889 74.0777 117.33 73.9564 117.909C73.8351 118.488 73.8271 121.971 73.9322 122.576C74.0373 123.18 74.201 123.653 74.4234 123.996C74.6457 124.338 74.9267 124.573 75.2663 124.699C75.5792 124.816 75.9436 124.816 76.3596 124.815L76.4669 124.815L76.4946 124.815ZM37.9946 122.541C37.9946 123.225 38.1811 123.738 38.5539 124.08C38.9268 124.422 39.462 124.593 40.1596 124.593H42.1442V120.152H40.1356V121.057H41.1459V123.676H40.0394C39.7427 123.676 39.5021 123.587 39.3177 123.41C39.1333 123.233 39.041 123.02 39.041 122.77V117.968C39.041 117.718 39.1333 117.505 39.3177 117.328C39.5021 117.151 39.7427 117.062 40.0394 117.062H41.7834V116.145H40.1596C39.462 116.145 38.9268 116.316 38.5539 116.658C38.1811 117 37.9946 117.513 37.9946 118.197V122.541ZM46.0819 121.093H47.1536L48.7069 124.593H49.8508L48.1771 120.888C48.8995 120.662 49.2608 120.095 49.2608 119.186V118.028C49.2608 117.376 49.0862 116.899 48.737 116.598C48.3878 116.296 47.872 116.145 47.1897 116.145H45.0343V124.593H46.0819V121.093ZM47.4085 117.034C47.716 117.034 47.9406 117.105 48.0823 117.248C48.2239 117.39 48.2947 117.62 48.2947 117.937V119.379C48.2947 119.697 48.2239 119.929 48.0823 120.075C47.9406 120.222 47.716 120.295 47.4085 120.295H46.1458V117.034H47.4085ZM55.5116 122.457L55.9684 124.593H57.0382L55.0428 116.145H53.6604L51.629 124.593H52.6988L53.1676 122.457H55.5116ZM53.2592 121.406L54.2534 116.812L55.2599 121.406H53.2592ZM61.6258 121.31C62.3115 121.31 62.8299 121.155 63.1809 120.846C63.5319 120.536 63.7074 120.055 63.7074 119.403V118.028C63.7074 117.376 63.5299 116.899 63.1748 116.598C62.8197 116.296 62.2952 116.145 61.6014 116.145H59.4096V124.593H60.4749V121.31H61.6258ZM61.7838 117.034C62.0913 117.034 62.3159 117.104 62.4576 117.243C62.5992 117.382 62.67 117.607 62.67 117.917V119.548C62.67 119.859 62.5992 120.085 62.4576 120.228C62.3159 120.371 62.0913 120.443 61.7838 120.443H60.5211V117.034H61.7838ZM69.8604 120.707V124.593H70.8952V116.145H69.8604V119.814H67.41V116.145H66.3751V124.593H67.41V120.707H69.8604ZM92.9902 123.587C93.1294 123.227 93.1989 122.752 93.1989 122.16C93.1989 121.687 93.1532 121.29 93.0618 120.968C92.9704 120.647 92.8392 120.381 92.6682 120.169C92.4973 119.958 92.2945 119.791 92.06 119.669C91.8254 119.546 91.565 119.455 91.2788 119.396C91.088 119.354 90.9329 119.307 90.8137 119.256C90.6944 119.206 90.599 119.14 90.5274 119.06C90.4559 118.98 90.4062 118.874 90.3784 118.743C90.3505 118.612 90.3366 118.445 90.3366 118.242C90.3366 117.921 90.4281 117.688 90.6109 117.545C90.7938 117.401 91.0562 117.329 91.3981 117.329C91.4479 117.329 91.7942 117.327 92.1525 117.325C92.5367 117.323 92.9347 117.32 92.9962 117.32V115.923C92.9581 115.922 92.7035 115.925 92.415 115.927C92.0368 115.93 91.6004 115.934 91.5173 115.933C91.0641 115.926 90.6606 115.927 90.3068 116.016C89.953 116.105 89.6548 116.201 89.4123 116.403C89.1698 116.606 88.987 116.868 88.8637 117.19C88.7405 117.511 88.6789 117.908 88.6789 118.382C88.6789 119.125 88.82 119.7 89.1023 120.106C89.3845 120.512 89.8596 120.787 90.5274 120.93C90.6865 120.964 90.8296 121.011 90.9568 121.07C91.084 121.129 91.1913 121.209 91.2788 121.311C91.3663 121.412 91.4319 121.543 91.4756 121.704C91.5193 121.864 91.5412 122.059 91.5412 122.287C91.5412 122.693 91.4319 122.978 91.2132 123.143C90.9946 123.308 90.6984 123.39 90.3247 123.39C90.2643 123.39 89.8904 123.39 89.5213 123.389C89.1615 123.388 88.8063 123.387 88.7504 123.387V124.796C88.9008 124.807 90.3168 124.811 90.444 124.811C90.5265 124.811 90.6077 124.812 90.6877 124.813C90.9929 124.816 91.2794 124.82 91.5471 124.773C91.8851 124.714 92.1753 124.612 92.4178 124.417C92.6603 124.223 92.8511 123.946 92.9902 123.587Z" fill="#4A1357"/>
</g>
</g>
<g id="Honeypot">
<g id="Group 19">
<g id="Group 3">
<mask id="mask1" mask-type="alpha" maskUnits="userSpaceOnUse" x="0" y="3" width="18" height="19">
<path id="Clip 2" fill-rule="evenodd" clip-rule="evenodd" d="M0 3.32068V21.3051H17.323V3.32068H0L0 3.32068Z" fill="white"/>
</mask>
<g mask="url(#mask1)">
<path id="Fill 1" fill-rule="evenodd" clip-rule="evenodd" d="M17.3063 12.1075C17.2043 10.6677 16.8657 9.29335 16.3321 8.01674C16.1907 7.67861 16.0405 7.345 15.8723 7.02144C16.4684 6.67501 16.8692 6.0394 16.8692 5.31026C16.8692 4.21152 15.9615 3.32068 14.8416 3.32068H2.47335C1.35363 3.32068 0.445767 4.21152 0.445767 5.31026C0.445767 6.03881 0.846028 6.67399 1.44137 7.02071C1.27316 7.34412 1.12306 7.67759 0.981724 8.01557C0.447845 9.29247 0.109049 10.6673 0.00690531 12.1073C-0.000814857 12.2787 -0.00927734 12.45 -0.00927734 12.6232C-0.00927734 13.8678 0.197089 15.0644 0.572704 16.1857C0.684647 16.5013 0.900069 17.0448 1.16389 17.4077C1.19269 17.445 1.21986 17.4813 1.25282 17.5204C1.25668 17.525 1.26054 17.5301 1.2644 17.5346C1.38139 17.6725 1.52332 17.8204 1.69406 17.967C1.86643 18.1138 2.06596 18.2605 2.29311 18.383C2.51774 18.5051 2.77963 18.6036 3.03811 18.6364C3.30876 18.6744 3.59411 18.6288 3.81206 18.4787C4.03416 18.3325 4.19302 18.0762 4.28492 17.7868C4.46827 17.1999 4.44793 16.5352 4.39181 15.934C4.33035 15.3278 4.2184 14.7646 4.10735 14.2859C3.88168 13.328 3.66032 12.7059 3.66032 12.7059C3.66032 12.7059 3.92474 13.3107 4.219 14.2567C4.36449 14.7301 4.51741 15.289 4.62371 15.9037C4.722 16.5173 4.80128 17.1932 4.64108 17.8841C4.55883 18.2235 4.38736 18.5816 4.07499 18.8234C3.76232 19.0695 3.37141 19.1457 3.02044 19.154C2.65091 19.1565 2.32281 19.0737 2.02528 18.9626C1.98906 18.9489 1.95818 18.9311 1.92284 18.9165C2.46696 19.7217 3.11486 20.4517 3.84338 21.0962C4.23206 21.3058 4.86526 21.4609 5.70394 21.0334C7.16647 20.2883 8.62899 20.2055 8.62899 20.2055C8.62899 20.2055 10.0914 20.2883 11.5539 21.0334C12.5364 21.5341 13.2372 21.2361 13.5922 20.9865C14.2686 20.3706 14.8734 19.6805 15.3859 18.9232C15.3531 18.9368 15.3243 18.9534 15.2906 18.9662C14.9931 19.0773 14.665 19.1601 14.2954 19.1576C13.9445 19.1492 13.5536 19.0731 13.2409 18.8271C12.9285 18.5851 12.7571 18.2271 12.6748 17.8877C12.5146 17.1967 12.5937 16.5209 12.6922 15.9073C12.7985 15.2925 12.9514 14.7337 13.0969 14.2604C13.3911 13.3142 13.6556 12.7094 13.6556 12.7094C13.6556 12.7094 13.4342 13.3315 13.2085 14.2895C13.0975 14.7681 12.9855 15.3314 12.9241 15.9376C12.868 16.5388 12.8476 17.2036 13.031 17.7902C13.1229 18.0799 13.2817 18.336 13.5038 18.4824C13.7218 18.6324 14.0073 18.678 14.2778 18.6399C14.5363 18.6072 14.7981 18.5086 15.0228 18.3867C15.2499 18.264 15.4495 18.1173 15.6218 17.9706C15.8537 17.7715 16.0294 17.572 16.1642 17.3959C16.3745 17.1022 16.5533 16.6966 16.6727 16.3862C17.0925 15.2079 17.3226 13.9421 17.3226 12.6232C17.3226 12.45 17.3142 12.2788 17.3063 12.1075" fill="#F6C724"/>
</g>
</g>
<path id="Fill 4" fill-rule="evenodd" clip-rule="evenodd" d="M6.83867 6.73153C6.83867 7.73426 6.01038 8.54716 4.9885 8.54716C3.96662 8.54716 3.13818 7.73426 3.13818 6.73153C3.13818 5.7288 3.96662 4.91589 4.9885 4.91589C6.01038 4.91589 6.83867 5.7288 6.83867 6.73153" fill="#FFFFFE"/>
<path id="Fill 5" fill-rule="evenodd" clip-rule="evenodd" d="M2.47367 4.31226C1.91188 4.31226 1.45654 4.75906 1.45654 5.31032C1.45654 5.66783 1.6497 5.97915 1.93757 6.15542C2.28958 5.58814 2.68242 5.0481 3.11445 4.54098C2.93911 4.40025 2.7179 4.31226 2.47367 4.31226" fill="#26292D"/>
<path id="Fill 6" fill-rule="evenodd" clip-rule="evenodd" d="M14.8419 4.31226C14.5972 4.31226 14.3757 4.40054 14.2002 4.54185C14.6321 5.04897 15.0248 5.58887 15.3768 6.15615C15.6654 5.98002 15.8591 5.66841 15.8591 5.31032C15.8591 4.75906 15.4036 4.31226 14.8419 4.31226" fill="#26292D"/>
<path id="Fill 7" fill-rule="evenodd" clip-rule="evenodd" d="M4.98891 5.92358C4.93175 5.92358 4.87608 5.92927 4.82234 5.94019C4.85529 6.00182 4.8743 6.07189 4.8743 6.14633C4.8743 6.39122 4.67194 6.58979 4.42222 6.58979C4.33849 6.58979 4.26025 6.56706 4.19284 6.52802C4.17562 6.59314 4.16553 6.66103 4.16553 6.73154C4.16553 7.17776 4.53417 7.53949 4.98891 7.53949C5.44366 7.53949 5.8123 7.17776 5.8123 6.73154C5.8123 6.28531 5.44366 5.92358 4.98891 5.92358" fill="#26292D"/>
<path id="Fill 8" fill-rule="evenodd" clip-rule="evenodd" d="M14.1756 6.73153C14.1756 7.73426 13.3473 8.54716 12.3254 8.54716C11.3035 8.54716 10.4751 7.73426 10.4751 6.73153C10.4751 5.7288 11.3035 4.91589 12.3254 4.91589C13.3473 4.91589 14.1756 5.7288 14.1756 6.73153" fill="#FFFFFE"/>
<path id="Fill 9" fill-rule="evenodd" clip-rule="evenodd" d="M12.3253 5.92358C12.2682 5.92358 12.2125 5.92927 12.1588 5.94019C12.1919 6.00182 12.2107 6.07189 12.2107 6.14633C12.2107 6.39122 12.0084 6.58979 11.7586 6.58979C11.6749 6.58979 11.5967 6.56706 11.5293 6.52802C11.512 6.59314 11.502 6.66103 11.502 6.73154C11.502 7.17776 11.8706 7.53949 12.3253 7.53949C12.7801 7.53949 13.1487 7.17776 13.1487 6.73154C13.1487 6.28531 12.7801 5.92358 12.3253 5.92358" fill="#26292D"/>
<path id="Fill 10" fill-rule="evenodd" clip-rule="evenodd" d="M11.1451 10.2374C11.1451 11.6007 10.0188 12.706 8.6295 12.706C7.24002 12.706 6.11377 11.6007 6.11377 10.2374C6.11377 8.87394 7.24002 7.7688 8.6295 7.7688C10.0188 7.7688 11.1451 8.87394 11.1451 10.2374" fill="#FFFFFE"/>
<path id="Fill 11" fill-rule="evenodd" clip-rule="evenodd" d="M9.93467 8.88936C9.93467 8.85527 9.92814 8.82308 9.91864 8.7919C9.91463 8.77661 9.91136 8.76757 9.91136 8.76757H9.91107C9.89919 8.73727 9.8833 8.70916 9.86371 8.68366L9.86386 8.68337C9.86386 8.68337 9.71613 8.38428 8.64437 8.38152V8.38123C8.64169 8.38123 8.63947 8.38137 8.63694 8.38137C8.63427 8.38137 8.63204 8.38123 8.62952 8.38123V8.38152C8.00597 8.38312 7.69583 8.48466 7.54513 8.56974C7.45413 8.60558 7.38271 8.67754 7.34782 8.76757H7.34738C7.34738 8.76757 7.34352 8.77821 7.33892 8.79598C7.33031 8.82585 7.32422 8.85673 7.32422 8.88936C7.32422 8.89228 7.32496 8.89505 7.32511 8.89796C7.31873 9.05311 7.37054 9.32626 7.72893 9.60641C8.05645 9.86237 8.31195 9.9575 8.46621 9.99363V12.6978C8.5204 12.7011 8.57429 12.7059 8.62937 12.7059C8.68445 12.7059 8.73849 12.7011 8.79268 12.6978V9.99363C8.94694 9.95736 9.20245 9.86223 9.52966 9.60641C9.88657 9.32743 9.93942 9.0553 9.93363 8.89985C9.93378 8.89636 9.93467 8.89301 9.93467 8.88936" fill="#26292D"/>
<path id="Fill 12" fill-rule="evenodd" clip-rule="evenodd" d="M4.58154 2.79112H12.6951C11.7236 2.13555 10.5825 1.70492 9.34622 1.58575L9.84298 0.258586C9.84298 0.258586 9.52675 0 8.63834 0C7.74993 0 7.4337 0.258586 7.4337 0.258586L7.93046 1.58575C6.6942 1.70477 5.5531 2.13555 4.58154 2.79112" fill="#F6C724"/>
<path id="Fill 13" fill-rule="evenodd" clip-rule="evenodd" d="M1.35687 16.5851C1.35687 16.5851 1.22236 16.4137 1.07434 16.1236C0.925427 15.8349 0.77429 15.4268 0.677788 15.0071C0.579801 14.5875 0.533035 14.1594 0.523533 13.8379C0.515071 13.5159 0.535559 13.301 0.535559 13.301C0.535559 13.301 0.551741 13.353 0.573863 13.4441C0.59539 13.535 0.626271 13.6648 0.66309 13.8207C0.734056 14.1317 0.819275 14.5447 0.916371 14.9536C1.00886 15.3636 1.1162 15.7693 1.20484 16.0739C1.24982 16.2269 1.28738 16.3542 1.31366 16.4434C1.34306 16.5328 1.35687 16.5851 1.35687 16.5851" fill="#FFFFFE"/>
<path id="Fill 14" fill-rule="evenodd" clip-rule="evenodd" d="M13.9035 13.9929C13.9035 13.9929 13.8998 14.1373 13.8769 14.3468C13.8527 14.5561 13.8055 14.8297 13.7489 15.1007C13.6902 15.3712 13.623 15.6399 13.5625 15.8415C13.5344 15.9426 13.5007 16.0259 13.4836 16.0854C13.4637 16.1444 13.449 16.178 13.449 16.178C13.449 16.178 13.4251 16.0354 13.4234 15.8221C13.4225 15.6093 13.451 15.3274 13.5095 15.0516C13.5687 14.776 13.657 14.5073 13.7415 14.3118C13.8273 14.1165 13.9035 13.9929 13.9035 13.9929" fill="#FFFFFE"/>
<path id="Fill 15" fill-rule="evenodd" clip-rule="evenodd" d="M2.44143 3.56237C2.44143 3.56237 2.29 3.61919 2.09269 3.73544C1.99322 3.79182 1.88246 3.86277 1.77171 3.94653C1.66006 4.02914 1.55035 4.12733 1.44939 4.23309C1.34532 4.33682 1.25817 4.45438 1.17458 4.56554C1.09946 4.68194 1.02656 4.7912 0.973561 4.89216C0.913878 4.98991 0.87216 5.07703 0.841576 5.13821C0.810102 5.19896 0.788574 5.23378 0.788574 5.23378C0.788574 5.23378 0.788871 5.19445 0.795701 5.12568C0.80639 5.05823 0.805945 4.95567 0.842615 4.84175C0.8683 4.72389 0.922044 4.59336 0.989595 4.45671C1.06279 4.32283 1.15825 4.18866 1.27123 4.06847C1.5012 3.83028 1.80081 3.66755 2.03894 3.6087C2.27738 3.54489 2.44143 3.56237 2.44143 3.56237" fill="#FFFFFE"/>
</g>
<g id="Group 21">
<path id="Fill 16" fill-rule="evenodd" clip-rule="evenodd" d="M41.5276 14.8612C41.0362 15.3546 40.433 15.6006 39.7188 15.6006C39.0154 15.6006 38.4177 15.3546 37.9264 14.8612C37.435 14.3691 37.1896 13.7348 37.1896 12.9598C37.1896 12.1954 37.435 11.5651 37.9264 11.0663C38.4177 10.5681 39.0154 10.3187 39.7188 10.3187C40.4224 10.3187 41.0222 10.5681 41.5194 11.0663C42.016 11.5651 42.2646 12.1954 42.2646 12.9598C42.2646 13.7348 42.0189 14.3691 41.5276 14.8612V14.8612ZM39.7186 8.52539C38.4007 8.52539 37.2926 8.94349 36.3939 9.77897C35.4947 10.6152 35.0454 11.6753 35.0454 12.9598C35.0454 14.2444 35.4947 15.3042 36.3939 16.1404C37.2926 16.9766 38.4007 17.3947 39.7186 17.3947C41.0475 17.3947 42.1612 16.9766 43.0601 16.1404C43.9589 15.3042 44.4083 14.2444 44.4083 12.9598C44.4083 11.6753 43.9562 10.6152 43.0519 9.77897C42.1474 8.94349 41.0361 8.52539 39.7186 8.52539V8.52539Z" fill="black"/>
<path id="Fill 17" fill-rule="evenodd" clip-rule="evenodd" d="M58.4947 11.8635C58.6174 11.3326 58.8599 10.9145 59.223 10.6099C59.5856 10.3053 60.0409 10.1529 60.5882 10.1529C61.0347 10.1529 61.4116 10.3135 61.719 10.6349C62.0257 10.956 62.1849 11.3654 62.1961 11.8635H58.4947V11.8635ZM60.5882 8.52539C59.3042 8.52539 58.2602 8.93821 57.4561 9.76288C56.652 10.5878 56.25 11.6537 56.25 12.9598C56.25 14.2 56.6716 15.249 57.5149 16.1076C58.3578 16.9651 59.4661 17.3947 60.8395 17.3947C61.2415 17.3947 61.6353 17.347 62.0204 17.2529C62.4058 17.1593 62.7209 17.0566 62.9669 16.9457C63.2123 16.8355 63.4495 16.7076 63.6787 16.5638C63.9079 16.4201 64.0556 16.3178 64.1221 16.2566C64.1899 16.1961 64.24 16.1486 64.2725 16.1155L63.3858 14.6536L63.0835 14.8861C62.8938 15.0414 62.5982 15.1994 62.1962 15.3599C61.7944 15.5207 61.3923 15.6007 60.9903 15.6007C60.3203 15.6007 59.7449 15.401 59.2652 15.0023C58.785 14.6039 58.5057 14.0454 58.4277 13.3254H64.324L64.3741 12.5444C64.3741 11.3822 64.0394 10.4217 63.3682 9.6628C62.6989 8.90461 61.7719 8.52539 60.5882 8.52539V8.52539Z" fill="black"/>
<path id="Fill 18" fill-rule="evenodd" clip-rule="evenodd" d="M81.4077 14.9111C80.9943 15.3823 80.4805 15.6175 79.8671 15.6175C79.1966 15.6175 78.6774 15.3599 78.3093 14.8451C77.9406 14.3303 77.7562 13.7185 77.7562 13.0095C77.7562 12.1244 77.9629 11.4569 78.3758 11.0086C78.7893 10.5602 79.2971 10.3356 79.9003 10.3356C80.5369 10.3356 81.05 10.5797 81.4411 11.0664C81.8323 11.5536 82.0274 12.1954 82.0274 12.9934C82.0274 13.8013 81.8207 14.4405 81.4077 14.9111V14.9111ZM80.3692 8.52539C80.0006 8.52539 79.6513 8.57531 79.3219 8.67468C78.9924 8.77428 78.7361 8.88253 78.5519 8.99869C78.3675 9.1151 78.1973 9.2507 78.0407 9.40527C77.8841 9.56056 77.7865 9.6688 77.7478 9.72928C77.7086 9.79049 77.6781 9.83753 77.6556 9.87041H77.6217V9.53847C77.6217 8.99605 77.2647 8.72436 76.5502 8.72436H72.6645C72.0836 8.72436 71.7041 8.99077 71.5257 9.52167L71.4775 9.66136L69.7839 14.5446L67.7737 9.52167C67.6619 9.2339 67.5222 9.02893 67.3547 8.90725C67.1875 8.78556 66.9529 8.72436 66.6511 8.72436H65.0088L68.7954 17.1782L68.5105 17.8263C68.2089 18.5461 67.7398 18.9056 67.1032 18.9056C66.6341 18.9056 66.2268 18.7122 65.8804 18.3243L65.0603 19.8191L65.3111 20.0349C65.4677 20.1789 65.7245 20.3226 66.0818 20.4671C66.4391 20.6109 66.8186 20.6829 67.2206 20.6829C67.8911 20.6829 68.4991 20.4974 69.0469 20.1263C69.5932 19.7552 70.0122 19.2047 70.3029 18.4741L73.3682 10.8175C73.4461 10.618 73.6081 10.5184 73.8535 10.5184H75.3273C75.5725 10.5184 75.696 10.6401 75.696 10.8835V20.5168H77.8061V17.0122C77.8061 16.7246 77.7953 16.4805 77.773 16.2816H77.8061L78.0407 16.5638C78.1973 16.7412 78.4786 16.9241 78.8867 17.1118C79.294 17.2999 79.7496 17.3947 80.252 17.3947C81.3906 17.3947 82.3288 16.9872 83.0659 16.1733C83.8027 15.3599 84.1713 14.2885 84.1713 12.9598C84.1713 11.6424 83.8249 10.5736 83.1329 9.75424C82.4402 8.93485 81.5189 8.52539 80.3692 8.52539V8.52539Z" fill="black"/>
<path id="Fill 19" fill-rule="evenodd" clip-rule="evenodd" d="M91.7254 14.8612C91.234 15.3546 90.6313 15.6006 89.917 15.6006C89.2134 15.6006 88.6155 15.3546 88.1247 14.8612C87.6333 14.3691 87.3871 13.7348 87.3871 12.9598C87.3871 12.1954 87.6333 11.5651 88.1247 11.0663C88.6155 10.5681 89.2134 10.3187 89.917 10.3187C90.6199 10.3187 91.2205 10.5681 91.7174 11.0663C92.2143 11.5651 92.4624 12.1954 92.4624 12.9598C92.4624 13.7348 92.217 14.3691 91.7254 14.8612V14.8612ZM89.9169 8.52539C88.5989 8.52539 87.4908 8.94349 86.5919 9.77897C85.6929 10.6152 85.2437 11.6753 85.2437 12.9598C85.2437 14.2444 85.6929 15.3042 86.5919 16.1404C87.4908 16.9766 88.5989 17.3947 89.9169 17.3947C91.2455 17.3947 92.3592 16.9766 93.2581 16.1404C94.1569 15.3042 94.6063 14.2444 94.6063 12.9598C94.6063 11.6753 94.1542 10.6152 93.2499 9.77897C92.3449 8.94349 91.2339 8.52539 89.9169 8.52539V8.52539Z" fill="black"/>
<path id="Fill 20" fill-rule="evenodd" clip-rule="evenodd" d="M100.385 15.4177C99.9601 15.4177 99.5726 15.3042 99.2207 15.0776C98.869 14.8506 98.6925 14.4325 98.6925 13.8233V10.4022H100.636V8.72432H98.6925V6.41614H96.6157V8.72432H95.46V10.4022H96.5654V14.089C96.5654 14.6319 96.6523 15.1052 96.8251 15.5092C96.9979 15.9138 97.2107 16.2237 97.4617 16.4395C97.7132 16.6552 98.0114 16.8292 98.3578 16.9624C98.7041 17.0954 99.0113 17.1816 99.279 17.2197C99.5474 17.2589 99.826 17.2783 100.117 17.2783C100.373 17.2783 100.591 17.2615 100.77 17.2279V15.3848L100.385 15.4177" fill="black"/>
<path id="Fill 21" fill-rule="evenodd" clip-rule="evenodd" d="M31.2035 6.53256V10.4022H25.9608V6.53256C25.9608 6.1447 25.8715 5.85981 25.6931 5.67692C25.5142 5.49403 25.224 5.40259 24.8219 5.40259H23.7666V17.195H25.9608V12.2458H31.2035V17.195H33.3977V5.40259H32.3426C31.5831 5.40259 31.2035 5.77964 31.2035 6.53256" fill="black"/>
<path id="Fill 22" fill-rule="evenodd" clip-rule="evenodd" d="M51.3928 8.52539C50.6224 8.52539 49.9858 8.70228 49.483 9.05653C48.9808 9.41151 48.6124 9.82073 48.3778 10.2859H48.3444L48.3778 9.92033V9.67144C48.3778 9.04045 48.0036 8.72436 47.2557 8.72436H46.3345V17.195H48.4449V13.3086C48.4449 12.8878 48.5006 12.5115 48.6124 12.1793C48.7688 11.6592 49.0503 11.2411 49.4581 10.925C49.8657 10.6099 50.3484 10.452 50.907 10.452C51.4097 10.452 51.7585 10.5991 51.9539 10.8921C52.1492 11.1852 52.2472 11.6148 52.2472 12.1793V16.0658C52.2472 16.4645 52.3363 16.752 52.5149 16.9296C52.6936 17.1062 52.984 17.195 53.3861 17.195H54.3744V11.7471C54.3744 9.59968 53.3803 8.52539 51.3928 8.52539" fill="black"/>
</g>
</g>
</g>
</svg>
