<svg width="462" height="43" viewBox="0 0 462 43" fill="none" xmlns="http://www.w3.org/2000/svg">
<g id="organizers-logo">
<g id="Group 7" opacity="0.49281">
<path id="Path 6" d="M167.401 28.2814L152.97 14" stroke="#979797" stroke-width="0.768"/>
<path id="Path 6_2" d="M152.97 28.2814L167.401 14" stroke="#979797" stroke-width="0.768"/>
</g>
<g id="Group 7.1" opacity="0.49281">
<path id="Path 6_3" d="M321.392 28.2814L306.96 14" stroke="#979797" stroke-width="0.768"/>
<path id="Path 6_4" d="M306.96 28.2814L321.392 14" stroke="#979797" stroke-width="0.768"/>
</g>
<g id="Prisma Logo Dark">
<g id="path0_fill-link">
<path id="path0_fill" fill-rule="evenodd" clip-rule="evenodd" d="M206.093 3.19851L219.521 30.951V30.9507C219.799 31.5242 219.803 32.1876 219.533 32.7646C219.259 33.3447 218.741 33.7809 218.112 33.9604L197.449 39.9086C197.235 39.9703 197.017 40 196.8 40C196.036 40 195.301 39.6292 194.877 38.9886L187.758 28.256C187.291 27.5577 187.281 26.6593 187.733 25.9513L202.295 2.99397C202.708 2.34114 203.44 1.95758 204.258 2.00389C205.048 2.04314 205.754 2.50168 206.093 3.19792V3.19851ZM198.982 37.1883L216.515 32.1415H216.514C217.012 31.9984 217.261 31.4652 217.043 31.013L205.446 7.04453C205.202 6.53895 204.426 6.62564 204.309 7.1713L198.046 36.366C197.933 36.8918 198.447 37.3427 198.982 37.1883Z" fill="#0C344B"/>
</g>
<g id="path1_fill-link">
<path id="path1_fill" fill-rule="evenodd" clip-rule="evenodd" d="M237.416 22.034C238.265 21.3333 238.69 20.3219 238.69 18.999C238.69 17.7266 238.291 16.7695 237.494 16.1276C236.696 15.4861 235.531 15.1652 233.999 15.1652H229.966V27.457H232.643V23.0849H233.792C235.359 23.0849 236.566 22.7349 237.416 22.034ZM233.524 20.9495H232.644V17.3006H233.861C234.593 17.3006 235.129 17.4463 235.472 17.7379C235.815 18.0294 235.986 18.4807 235.986 19.0913C235.986 19.6967 235.782 20.1577 235.373 20.4745C234.964 20.7912 234.348 20.9495 233.524 20.9495Z" fill="#0C344B"/>
</g>
<g id="path2_fill-link">
<path id="path2_fill" d="M245.787 17.8807C246.144 17.8807 246.441 17.906 246.677 17.9564L246.478 20.3608C246.265 20.305 246.006 20.2768 245.701 20.2768C244.86 20.2768 244.205 20.487 243.735 20.9074C243.266 21.3278 243.032 21.9165 243.032 22.6732V27.457H240.397V18.0574H242.392L242.781 19.6379H242.911C243.2 19.1216 243.617 18.6838 244.125 18.364C244.634 18.0419 245.188 17.8807 245.787 17.8807Z" fill="#0C344B"/>
</g>
<g id="path3_fill-link">
<path id="path3_fill" fill-rule="evenodd" clip-rule="evenodd" d="M249.398 14.3749C248.442 14.3749 247.964 14.7923 247.964 15.6274C247.964 16.4681 248.442 16.8885 249.398 16.8885C249.876 16.8885 250.235 16.7781 250.474 16.5566C250.713 16.3351 250.832 16.0255 250.832 15.6274C250.832 14.7923 250.354 14.3749 249.398 14.3749ZM250.711 27.457H248.076V18.0573H250.711V27.457Z" fill="#0C344B"/>
</g>
<g id="path4_fill-link">
<path id="path4_fill" d="M259.984 24.6658C259.984 25.63 259.64 26.3642 258.951 26.8686C258.263 27.373 257.234 27.6253 255.863 27.6253C255.161 27.6253 254.562 27.579 254.067 27.4864C253.59 27.3993 253.123 27.2627 252.676 27.0788V24.96C253.166 25.1844 253.717 25.372 254.33 25.5234C254.944 25.6745 255.483 25.7502 255.95 25.7502C256.906 25.7502 257.384 25.4813 257.384 24.9433C257.384 24.7415 257.321 24.5776 257.194 24.4514C257.067 24.3252 256.848 24.1825 256.537 24.0224C256.226 23.8627 255.812 23.6766 255.293 23.4634C254.551 23.1609 254.005 22.8807 253.657 22.6227C253.308 22.365 253.055 22.0693 252.897 21.7356C252.738 21.4022 252.659 20.9916 252.659 20.5039C252.659 19.6688 252.991 19.0231 253.657 18.5662C254.322 18.1093 255.264 17.881 256.485 17.881C257.649 17.881 258.78 18.1277 259.88 18.6208L259.086 20.4703C258.642 20.2833 258.189 20.1178 257.729 19.9742C257.313 19.846 256.879 19.7808 256.442 19.781C255.665 19.781 255.276 19.9855 255.276 20.3946C255.276 20.6247 255.402 20.8236 255.652 20.9916C255.903 21.1597 256.451 21.4093 257.297 21.7401C258.052 22.0372 258.605 22.3145 258.956 22.5722C259.307 22.8302 259.566 23.1271 259.733 23.4634C259.901 23.7998 259.984 24.2006 259.984 24.6658Z" fill="#0C344B"/>
</g>
<g id="path5_fill-link">
<path id="path5_fill" d="M270.422 27.457H267.788V21.9669C267.788 21.2889 267.671 20.78 267.438 20.441C267.204 20.102 266.837 19.9321 266.336 19.9321C265.663 19.9321 265.173 20.1732 264.868 20.6553C264.563 21.1375 264.41 21.9304 264.41 23.0348V27.457H261.775V18.0574H263.788L264.142 19.2597H264.289C264.548 18.8281 264.923 18.4902 265.412 18.2465C265.902 18.0028 266.463 17.8807 267.097 17.8807C268.542 17.8807 269.521 18.3406 270.034 19.2597H270.267C270.526 18.8224 270.908 18.4834 271.411 18.2423C271.915 18.0013 272.484 17.8807 273.117 17.8807C274.211 17.8807 275.04 18.1542 275.601 18.7004C276.162 19.247 276.443 20.1227 276.443 21.3278V27.457H273.8V21.9669C273.8 21.2889 273.683 20.78 273.45 20.441C273.216 20.102 272.85 19.9321 272.348 19.9321C271.704 19.9321 271.221 20.1566 270.901 20.6049C270.582 21.0534 270.422 21.765 270.422 22.7403V27.457Z" fill="#0C344B"/>
</g>
<g id="path6_fill-link">
<path id="path6_fill" fill-rule="evenodd" clip-rule="evenodd" d="M284.378 26.1789L284.887 27.457H286.727V21.1932C286.727 20.0722 286.381 19.2371 285.691 18.6879C284.999 18.1387 284.006 17.8638 282.71 17.8638C281.357 17.8638 280.125 18.147 279.013 18.7131L279.886 20.4451C280.928 19.9909 281.835 19.7641 282.607 19.7641C283.609 19.7641 284.11 20.2406 284.11 21.1932V21.6053L282.434 21.6558C280.989 21.7062 279.908 21.9684 279.19 22.4419C278.473 22.9157 278.115 23.6513 278.115 24.6488C278.115 25.6018 278.381 26.336 278.914 26.8517C279.447 27.3673 280.176 27.625 281.104 27.625C281.858 27.625 282.47 27.5199 282.939 27.3097C283.409 27.0996 283.865 26.7228 284.308 26.1789H284.378ZM283.09 23.1354L284.11 23.1018V23.8752C284.11 24.4416 283.927 24.8956 283.561 25.2373C283.196 25.5793 282.707 25.7503 282.097 25.7503C281.245 25.7503 280.819 25.3887 280.819 24.6658C280.819 24.1611 281.006 23.7858 281.38 23.5391C281.754 23.2924 282.324 23.1579 283.09 23.1354Z" fill="#0C344B"/>
</g>
</g>
<g id="White Purple With Text 2">
<g id="Group 2">
<g id="graphcms_logo_square">
<path id="BG" d="M364.931 3.37806L376.218 9.94786V9.94786C377.937 10.9482 378.995 12.7914 378.995 14.7856V27.9676V27.9676C378.995 29.9617 377.937 31.8049 376.218 32.8053L364.931 39.3751V39.3751C363.203 40.3811 361.07 40.3811 359.342 39.3751L348.055 32.8053V32.8053C346.336 31.8049 345.278 29.9617 345.278 27.9676V14.7856V14.7856C345.278 12.7914 346.336 10.9482 348.055 9.94786L359.342 3.37806V3.37806C361.07 2.37203 363.203 2.37203 364.931 3.37806Z" fill="#4A1357"/>
<path id="Path" fill-rule="evenodd" clip-rule="evenodd" d="M377.829 14.9095C377.829 13.176 376.91 11.5736 375.418 10.704L364.514 4.34829C363.014 3.47375 361.162 3.47375 359.662 4.34829L348.757 10.704C347.265 11.5736 346.347 13.176 346.347 14.9095V27.6493C346.347 29.3829 347.265 30.9852 348.757 31.8548L359.662 38.2105C361.162 39.0851 363.014 39.0851 364.514 38.2105L375.418 31.8548C376.91 30.9852 377.829 29.3829 377.829 27.6493V14.9095ZM349.317 11.6747L360.221 5.3189C361.375 4.64617 362.8 4.64617 363.954 5.3189L374.858 11.6747C376.006 12.3436 376.712 13.5762 376.712 14.9096V27.6495C376.712 28.9829 376.006 30.2155 374.858 30.8844L363.954 37.2402C362.8 37.9129 361.375 37.9129 360.221 37.2402L349.317 30.8844C348.169 30.2155 347.463 28.9829 347.463 27.6495V14.9096C347.463 13.5762 348.169 12.3436 349.317 11.6747Z" fill="white"/>
<g id="Group-Clipped">
<g id="Group Clipped">
<mask id="mask0" mask-type="alpha" maskUnits="userSpaceOnUse" x="348" y="5" width="28" height="30">
<path id="path-4" fill-rule="evenodd" clip-rule="evenodd" d="M348.494 15.4734V15.4734C348.494 14.1371 349.201 12.9019 350.35 12.2314V12.2314L360.272 6.43979C361.426 5.7663 362.849 5.76511 364.004 6.43667V6.43667L367.595 8.52455C367.652 8.5574 367.698 8.60462 367.731 8.66146C367.834 8.84066 367.773 9.06992 367.595 9.17352V9.17352L354.657 16.7007C354.542 16.7677 354.471 16.8913 354.471 17.0252V17.0252V20.1318C354.471 20.1979 354.454 20.2628 354.421 20.32C354.317 20.499 354.089 20.5599 353.911 20.456V20.456L351.6 19.1061C351.543 19.0729 351.479 19.0554 351.413 19.0554C351.207 19.0554 351.041 19.2232 351.041 19.4302V27.419C351.041 27.5531 351.112 27.6769 351.227 27.7438V27.7438L354.284 29.5153C354.4 29.5822 354.471 29.706 354.471 29.8401V32.0286C354.471 32.0947 354.453 32.1597 354.42 32.2169C354.317 32.3959 354.089 32.4567 353.911 32.3527V32.3527L350.348 30.2696C349.2 29.5988 348.494 28.3642 348.494 27.0288V27.0288V15.4734ZM356.158 33.4523V18.0121C356.158 17.878 356.229 17.7542 356.344 17.6873L361.943 14.4448C362.058 14.3779 362.201 14.3782 362.316 14.4456L367.916 17.7214C368.031 17.7885 368.102 17.9119 368.102 18.0455V33.4537V33.4537C368.102 33.5875 368.031 33.7113 367.915 33.7782L366.128 34.8167V34.8167C365.95 34.9202 365.722 34.8588 365.619 34.6795C365.587 34.6226 365.57 34.5579 365.57 34.4921V26.8861C365.57 26.6791 365.403 26.5113 365.197 26.5113C365.131 26.5113 365.067 26.5289 365.01 26.5622L362.325 28.1346C362.209 28.2026 362.065 28.2024 361.949 28.1342L359.282 26.5642C359.104 26.4597 358.876 26.5199 358.772 26.6985C358.739 26.7559 358.721 26.8212 358.721 26.8877V34.4961V34.4961C358.721 34.7031 358.554 34.8709 358.349 34.8709C358.284 34.8709 358.22 34.8539 358.164 34.8216L356.346 33.7779V33.7779C356.229 33.7112 356.158 33.5869 356.158 33.4523V33.4523ZM375.775 15.2721V17.041C375.775 17.1739 375.705 17.2969 375.591 17.3642L372.544 19.164V19.164C372.43 19.2313 372.36 19.3543 372.36 19.4872V21.5705C372.36 21.7775 372.527 21.9453 372.733 21.9453C372.798 21.9453 372.862 21.928 372.919 21.8952L375.216 20.5624C375.395 20.459 375.622 20.5206 375.725 20.6999C375.758 20.7568 375.775 20.8214 375.775 20.8871V27.0251C375.775 28.3615 375.068 29.5969 373.919 30.2673L370.377 32.3341C370.199 32.4379 369.971 32.377 369.868 32.1979C369.835 32.1408 369.817 32.0759 369.817 32.0099V29.901C369.817 29.7671 369.888 29.6434 370.004 29.5764L373.04 27.8114V27.8114C373.156 27.7444 373.227 27.6207 373.227 27.4868V25.3696C373.227 25.1626 373.06 24.9948 372.854 24.9948C372.789 24.9948 372.724 25.0122 372.667 25.0453L370.377 26.381C370.199 26.4848 369.971 26.4237 369.868 26.2446C369.835 26.1875 369.817 26.1227 369.817 26.0567V17.0488V17.0488C369.817 16.9152 369.747 16.7917 369.632 16.7247L364.363 13.6469V13.6469C364.185 13.543 364.124 13.3136 364.228 13.1346C364.26 13.0781 364.307 13.0312 364.363 12.9985L369.631 9.92623C369.746 9.85888 369.889 9.85885 370.004 9.92615L374.069 12.2947C375.125 12.9098 375.775 14.0445 375.775 15.2721V15.2721Z" fill="white"/>
</mask>
<g mask="url(#mask0)">
<g id="Group">
<g id="Group_2">
<g id="Group_3">
<path id="Polygon-2-Copy" d="M377.628 12.161V30.5949L361.798 39.8118L361.765 21.3337L377.628 12.161Z" fill="#E6E6E6"/>
<path id="Polygon-2-Copy-2" d="M362.166 21.2282V37.1489L348.505 29.1944V13.2854L362.166 21.2282Z" fill="#D2D2D2"/>
<path id="Polygon-2" d="M362.166 5.33105L376.006 13.3891L362.137 21.4471L348.327 13.3891L362.166 5.33105Z" fill="white"/>
</g>
</g>
</g>
</g>
</g>
</g>
</g>
<path id="Combined Shape" fill-rule="evenodd" clip-rule="evenodd" d="M457.328 25.5963C457.511 25.1252 457.602 24.5017 457.602 23.7257C457.602 23.105 457.542 22.584 457.422 22.1628C457.302 21.7415 457.13 21.3924 456.906 21.1152C456.682 20.8381 456.416 20.6192 456.109 20.4585C455.801 20.2977 455.46 20.1786 455.084 20.101C454.834 20.0456 454.631 19.9846 454.474 19.9181C454.318 19.8516 454.193 19.7657 454.099 19.6604C454.005 19.555 453.94 19.4165 453.904 19.2447C453.867 19.0729 453.849 18.8539 453.849 18.5879C453.849 18.1667 453.969 17.8618 454.209 17.6734C454.448 17.4849 454.792 17.3907 455.241 17.3907C455.306 17.3907 455.76 17.388 456.23 17.3852C456.734 17.3822 457.256 17.379 457.336 17.379V15.5469C457.286 15.5461 456.952 15.549 456.574 15.5523C456.078 15.5567 455.506 15.5617 455.397 15.5599C454.803 15.5502 454.274 15.5525 453.81 15.6689C453.346 15.7853 452.955 15.9109 452.637 16.1769C452.319 16.443 452.079 16.7866 451.917 17.2078C451.756 17.6291 451.675 18.15 451.675 18.7708C451.675 19.7463 451.86 20.5 452.23 21.0321C452.6 21.5642 453.223 21.9244 454.099 22.1129C454.308 22.1572 454.495 22.2182 454.662 22.2958C454.829 22.3734 454.97 22.4787 455.084 22.6117C455.199 22.7447 455.285 22.9165 455.342 23.1272C455.4 23.3378 455.428 23.5927 455.428 23.892C455.428 24.4241 455.285 24.7982 454.998 25.0144C454.712 25.2305 454.323 25.3386 453.833 25.3386C453.754 25.3386 453.264 25.3377 452.78 25.3368C452.308 25.3359 451.842 25.335 451.769 25.335V27.1824C451.966 27.1963 453.823 27.2022 453.99 27.2022C454.098 27.2022 454.204 27.2033 454.309 27.2045C454.709 27.2088 455.085 27.2129 455.436 27.1514C455.879 27.0738 456.26 26.9404 456.578 26.6854C456.896 26.4304 457.146 26.0674 457.328 25.5963ZM446.887 27.2067V17.8729L445.521 22.9636H443.869L442.439 17.8729V27.2067H440.501V15.5468H443.805L444.742 20.0275L445.696 15.5468H448.857V27.2067H446.887ZM435.698 27.2063C435.978 27.2065 437.506 27.2075 437.586 27.1865V25.2897C437.5 25.2897 437.186 25.2873 436.831 25.2845L436.83 25.2844C436.372 25.2808 435.847 25.2767 435.662 25.2767C435.432 25.2767 435.211 25.2296 435.041 25.1354C434.872 25.0411 434.737 24.8499 434.636 24.5617C434.535 24.2735 434.461 23.9017 434.413 23.3808C434.365 22.8598 434.368 19.7506 434.421 19.2407C434.474 18.7308 434.554 18.3756 434.66 18.1096C434.766 17.8435 434.921 17.7356 435.065 17.6514C435.21 17.5673 435.428 17.4939 435.662 17.4939C435.808 17.4939 436.243 17.4905 436.666 17.4872L436.666 17.4872L436.666 17.4872C437.068 17.484 437.46 17.4809 437.586 17.4809V15.5674C437.374 15.554 436.282 15.5565 436.282 15.5565C436.112 15.5398 434.729 15.5296 434.262 15.6571C433.796 15.7846 433.403 16.015 433.085 16.4141C432.767 16.8131 432.529 17.3923 432.37 18.1516C432.211 18.9109 432.2 23.4778 432.338 24.2703C432.476 25.0629 432.69 25.6836 432.982 26.1325C433.273 26.5815 433.642 26.889 434.087 27.0553C434.497 27.2085 434.975 27.2076 435.521 27.2065L435.662 27.2063L435.698 27.2063ZM385.213 24.2251C385.213 25.1218 385.458 25.7943 385.947 26.2427C386.436 26.691 387.138 26.9152 388.052 26.9152H390.655V21.0919H388.021V22.2787H389.346V25.7125H387.895C387.506 25.7125 387.19 25.5965 386.948 25.3644C386.706 25.1323 386.586 24.8528 386.586 24.5257V18.2277C386.586 17.9007 386.706 17.6211 386.948 17.389C387.19 17.1569 387.506 17.0409 387.895 17.0409H390.182V15.8383H388.052C387.138 15.8383 386.436 16.0624 385.947 16.5108C385.458 16.9591 385.213 17.6317 385.213 18.5284V24.2251ZM395.818 22.3261H397.223L399.26 26.9151H400.76L398.565 22.057C399.513 21.7617 399.986 21.0179 399.986 19.8258V18.3067C399.986 17.4522 399.757 16.8272 399.299 16.4316C398.842 16.0359 398.165 15.8381 397.271 15.8381H394.444V26.9151H395.818V22.3261ZM397.557 17.0041C397.961 17.0041 398.255 17.0973 398.441 17.2837C398.627 17.47 398.719 17.7715 398.719 18.1881V20.0791C398.719 20.4956 398.627 20.7998 398.441 20.9917C398.255 21.1835 397.961 21.2794 397.557 21.2794H395.902V17.0041H397.557ZM408.183 24.1142L408.782 26.9151H410.185L407.569 15.8381H405.756L403.092 26.9151H404.495L405.11 24.1142H408.183ZM405.23 22.7369L406.533 16.7126L407.853 22.7369H405.23ZM416.201 22.6109C417.1 22.6109 417.779 22.4078 418.24 22.0017C418.7 21.5955 418.93 20.9652 418.93 20.1107V18.3067C418.93 17.4522 418.697 16.8272 418.232 16.4316C417.766 16.0359 417.078 15.8381 416.168 15.8381H413.294V26.9151H414.691V22.6109H416.201ZM416.408 17.0041C416.811 17.0041 417.105 17.0952 417.291 17.2775C417.477 17.4597 417.57 17.7544 417.57 18.1617V20.3001C417.57 20.7074 417.477 21.0048 417.291 21.1924C417.105 21.38 416.811 21.4738 416.408 21.4738H414.752V17.0041H416.408ZM426.998 21.8197V26.9151H428.355V15.8381H426.998V20.6487H423.785V15.8381H422.428V26.9151H423.785V21.8197H426.998Z" fill="#4A1357"/>
</g>
</g>
<g id="Honeypot">
<g id="Group 19">
<g id="Group 3">
<mask id="mask1" mask-type="alpha" maskUnits="userSpaceOnUse" x="0" y="11" width="23" height="25">
<path id="Clip 2" fill-rule="evenodd" clip-rule="evenodd" d="M0.0117188 11.4988V35.0815H22.7271V11.4988H0.0117188L0.0117188 11.4988Z" fill="white"/>
</mask>
<g mask="url(#mask1)">
<path id="Fill 1" fill-rule="evenodd" clip-rule="evenodd" d="M22.7056 23.0208C22.5719 21.1328 22.1278 19.3306 21.4282 17.6566C21.2428 17.2133 21.0458 16.7758 20.8252 16.3515C21.6069 15.8973 22.1325 15.0638 22.1325 14.1077C22.1325 12.6669 20.9422 11.4988 19.4738 11.4988H3.25543C1.78716 11.4988 0.596692 12.6669 0.596692 14.1077C0.596692 15.063 1.12155 15.8959 1.90221 16.3506C1.68164 16.7747 1.48482 17.2119 1.29948 17.6551C0.599418 19.3295 0.155159 21.1323 0.02122 23.0206C0.0110967 23.2452 0 23.4699 0 23.697C0 25.329 0.270604 26.8981 0.763143 28.3685C0.909931 28.7823 1.19241 29.495 1.53836 29.9708C1.57612 30.0198 1.61175 30.0673 1.65497 30.1187C1.66003 30.1246 1.66509 30.1313 1.67015 30.1372C1.82356 30.3181 2.00968 30.512 2.23356 30.7042C2.45958 30.8968 2.72123 31.0891 3.01909 31.2498C3.31364 31.4099 3.65705 31.539 3.99599 31.582C4.35089 31.6319 4.72506 31.5721 5.01085 31.3753C5.30209 31.1835 5.5104 30.8475 5.63091 30.4679C5.87133 29.6984 5.84466 28.8268 5.77107 28.0384C5.69048 27.2435 5.54369 26.505 5.39807 25.8773C5.10216 24.6212 4.81189 23.8055 4.81189 23.8055C4.81189 23.8055 5.15861 24.5985 5.54447 25.8391C5.73525 26.4597 5.93577 27.1927 6.07516 27.9987C6.20404 28.8033 6.308 29.6897 6.09794 30.5955C5.99009 31.0406 5.76523 31.5102 5.35563 31.8273C4.94563 32.1499 4.43304 32.2498 3.97282 32.2607C3.48826 32.264 3.05802 32.1555 2.66789 32.0097C2.62038 31.9918 2.57989 31.9685 2.53356 31.9494C3.24706 33.0052 4.09664 33.9624 5.05193 34.8075C5.5616 35.0824 6.39191 35.2857 7.49165 34.7252C9.40944 33.7481 11.3272 33.6396 11.3272 33.6396C11.3272 33.6396 13.2448 33.7481 15.1626 34.7252C16.451 35.3818 17.3699 34.9909 17.8354 34.6637C18.7223 33.856 19.5154 32.9511 20.1875 31.9581C20.1444 31.9759 20.1067 31.9977 20.0625 32.0145C19.6723 32.1602 19.2421 32.2688 18.7575 32.2655C18.2973 32.2544 17.7847 32.1547 17.3747 31.8321C16.9651 31.5148 16.7403 31.0454 16.6324 30.6003C16.4224 29.6942 16.5261 28.808 16.6552 28.0034C16.7946 27.1973 16.9951 26.4645 17.1859 25.8438C17.5718 24.6031 17.9185 23.8101 17.9185 23.8101C17.9185 23.8101 17.6282 24.6258 17.3323 25.882C17.1867 26.5096 17.0399 27.2483 16.9593 28.0432C16.8857 28.8315 16.859 29.7032 17.0995 30.4725C17.22 30.8523 17.4283 31.1881 17.7195 31.3801C18.0053 31.5768 18.3797 31.6366 18.7344 31.5866C19.0733 31.5438 19.4167 31.4145 19.7113 31.2546C20.0091 31.0937 20.2708 30.9014 20.4968 30.709C20.8009 30.4479 21.0312 30.1863 21.208 29.9554C21.4838 29.5703 21.7182 29.0384 21.8748 28.6313C22.4253 27.0863 22.7271 25.4264 22.7271 23.697C22.7271 23.4699 22.716 23.2454 22.7056 23.0208Z" fill="#F6C724"/>
</g>
</g>
<path id="Fill 4" fill-rule="evenodd" clip-rule="evenodd" d="M8.97934 15.9714C8.97934 17.2863 7.89322 18.3522 6.55324 18.3522C5.21326 18.3522 4.12695 17.2863 4.12695 15.9714C4.12695 14.6565 5.21326 13.5906 6.55324 13.5906C7.89322 13.5906 8.97934 14.6565 8.97934 15.9714Z" fill="#FFFFFE"/>
<path id="Fill 5" fill-rule="evenodd" clip-rule="evenodd" d="M3.25538 12.799C2.51871 12.799 1.92163 13.3848 1.92163 14.1077C1.92163 14.5765 2.17491 14.9847 2.55239 15.2159C3.01398 14.472 3.5291 13.7638 4.09562 13.0989C3.8657 12.9143 3.57563 12.799 3.25538 12.799Z" fill="#26292D"/>
<path id="Fill 6" fill-rule="evenodd" clip-rule="evenodd" d="M19.4737 12.799C19.1529 12.799 18.8624 12.9147 18.6323 13.1C19.1986 13.765 19.7136 14.4729 20.1752 15.2168C20.5536 14.9859 20.8077 14.5773 20.8077 14.1077C20.8077 13.3848 20.2104 12.799 19.4737 12.799Z" fill="#26292D"/>
<path id="Fill 7" fill-rule="evenodd" clip-rule="evenodd" d="M6.55332 14.9119C6.47837 14.9119 6.40537 14.9193 6.33489 14.9336C6.37811 15.0144 6.40303 15.1063 6.40303 15.204C6.40303 15.5251 6.13768 15.7854 5.81023 15.7854C5.70043 15.7854 5.59784 15.7556 5.50945 15.7045C5.48687 15.7898 5.47363 15.8789 5.47363 15.9713C5.47363 16.5564 5.95702 17.0308 6.55332 17.0308C7.14963 17.0308 7.63302 16.5564 7.63302 15.9713C7.63302 15.3862 7.14963 14.9119 6.55332 14.9119Z" fill="#26292D"/>
<path id="Fill 8" fill-rule="evenodd" clip-rule="evenodd" d="M18.5999 15.9714C18.5999 17.2863 17.5138 18.3522 16.1738 18.3522C14.8339 18.3522 13.7476 17.2863 13.7476 15.9714C13.7476 14.6565 14.8339 13.5906 16.1738 13.5906C17.5138 13.5906 18.5999 14.6565 18.5999 15.9714Z" fill="#FFFFFE"/>
<path id="Fill 9" fill-rule="evenodd" clip-rule="evenodd" d="M16.1737 14.9119C16.0987 14.9119 16.0257 14.9193 15.9553 14.9336C15.9987 15.0144 16.0234 15.1063 16.0234 15.204C16.0234 15.5251 15.758 15.7854 15.4306 15.7854C15.3208 15.7854 15.2182 15.7556 15.1298 15.7045C15.1072 15.7898 15.094 15.8789 15.094 15.9713C15.094 16.5564 15.5774 17.0308 16.1737 17.0308C16.77 17.0308 17.2534 16.5564 17.2534 15.9713C17.2534 15.3862 16.77 14.9119 16.1737 14.9119Z" fill="#26292D"/>
<path id="Fill 10" fill-rule="evenodd" clip-rule="evenodd" d="M14.6258 20.5686C14.6258 22.3562 13.149 23.8056 11.3272 23.8056C9.50516 23.8056 8.02832 22.3562 8.02832 20.5686C8.02832 18.7807 9.50516 17.3315 11.3272 17.3315C13.149 17.3315 14.6258 18.7807 14.6258 20.5686Z" fill="#FFFFFE"/>
<path id="Fill 11" fill-rule="evenodd" clip-rule="evenodd" d="M13.0388 18.801C13.0388 18.7563 13.0302 18.714 13.0177 18.6732C13.0125 18.6531 13.0082 18.6413 13.0082 18.6413H13.0078C12.9922 18.6015 12.9714 18.5647 12.9457 18.5312L12.9459 18.5308C12.9459 18.5308 12.7522 18.1387 11.3468 18.135V18.1346C11.3433 18.1346 11.3404 18.1348 11.3371 18.1348C11.3336 18.1348 11.3307 18.1346 11.3273 18.1346V18.135C10.5097 18.1371 10.103 18.2703 9.90541 18.3818C9.78607 18.4288 9.69243 18.5232 9.64668 18.6413H9.64609C9.64609 18.6413 9.64103 18.6552 9.635 18.6785C9.6237 18.7177 9.61572 18.7582 9.61572 18.801C9.61572 18.8048 9.6167 18.8084 9.61689 18.8122C9.60852 19.0157 9.67646 19.3739 10.1464 19.7412C10.5759 20.0768 10.9109 20.2016 11.1132 20.249V23.7949C11.1843 23.7993 11.2549 23.8056 11.3271 23.8056C11.3994 23.8056 11.4702 23.7993 11.5413 23.7949V20.249C11.7436 20.2014 12.0786 20.0767 12.5077 19.7412C12.9757 19.3754 13.045 19.0185 13.0374 18.8147C13.0376 18.8101 13.0388 18.8057 13.0388 18.801Z" fill="#26292D"/>
<path id="Fill 12" fill-rule="evenodd" clip-rule="evenodd" d="M6.01929 10.8044H16.6585C15.3845 9.94472 13.8882 9.38004 12.2671 9.22378L12.9185 7.48349C12.9185 7.48349 12.5039 7.14441 11.3389 7.14441C10.1739 7.14441 9.75927 7.48349 9.75927 7.48349L10.4107 9.22378C8.78957 9.37985 7.29327 9.94472 6.01929 10.8044Z" fill="#F6C724"/>
<path id="Fill 13" fill-rule="evenodd" clip-rule="evenodd" d="M1.79073 28.8923C1.79073 28.8923 1.61435 28.6675 1.42026 28.2872C1.225 27.9085 1.02681 27.3735 0.900271 26.8231C0.771783 26.2729 0.710459 25.7115 0.697999 25.2899C0.686902 24.8677 0.713768 24.5859 0.713768 24.5859C0.713768 24.5859 0.734988 24.6541 0.763995 24.7735C0.792224 24.8927 0.832717 25.0629 0.880998 25.2673C0.974054 25.6752 1.0858 26.2168 1.21312 26.753C1.33441 27.2905 1.47516 27.8226 1.59138 28.222C1.65037 28.4226 1.69962 28.5896 1.73408 28.7065C1.77263 28.8238 1.79073 28.8923 1.79073 28.8923Z" fill="#FFFFFE"/>
<path id="Fill 14" fill-rule="evenodd" clip-rule="evenodd" d="M18.2427 25.493C18.2427 25.493 18.2378 25.6824 18.2078 25.9571C18.1761 26.2316 18.1142 26.5903 18.04 26.9456C17.9629 27.3004 17.8749 27.6526 17.7955 27.917C17.7587 28.0496 17.7145 28.1589 17.6921 28.2368C17.666 28.3142 17.6467 28.3583 17.6467 28.3583C17.6467 28.3583 17.6154 28.1713 17.6131 27.8916C17.6119 27.6125 17.6493 27.2429 17.726 26.8813C17.8037 26.5198 17.9195 26.1676 18.0303 25.9112C18.1428 25.655 18.2427 25.493 18.2427 25.493Z" fill="#FFFFFE"/>
<path id="Fill 15" fill-rule="evenodd" clip-rule="evenodd" d="M3.21302 11.8157C3.21302 11.8157 3.01445 11.8902 2.75572 12.0427C2.62528 12.1166 2.48005 12.2096 2.33482 12.3195C2.18842 12.4278 2.04455 12.5566 1.91217 12.6952C1.7757 12.8313 1.66143 12.9854 1.55182 13.1312C1.45331 13.2838 1.35773 13.4271 1.28822 13.5595C1.20996 13.6876 1.15526 13.8019 1.11515 13.8821C1.07388 13.9618 1.04565 14.0074 1.04565 14.0074C1.04565 14.0074 1.04604 13.9559 1.055 13.8657C1.06902 13.7772 1.06843 13.6428 1.11652 13.4934C1.1502 13.3388 1.22067 13.1677 1.30925 12.9885C1.40523 12.8129 1.53041 12.637 1.67856 12.4794C1.98012 12.167 2.37298 11.9537 2.68524 11.8765C2.9979 11.7928 3.21302 11.8157 3.21302 11.8157Z" fill="#FFFFFE"/>
</g>
<g id="Group 21">
<path id="Fill 16" fill-rule="evenodd" clip-rule="evenodd" d="M54.4659 26.6318C53.8216 27.2788 53.0306 27.6014 52.094 27.6014C51.1717 27.6014 50.388 27.2788 49.7437 26.6318C49.0994 25.9866 48.7775 25.1548 48.7775 24.1385C48.7775 23.1361 49.0994 22.3097 49.7437 21.6557C50.388 21.0023 51.1717 20.6753 52.094 20.6753C53.0167 20.6753 53.8032 21.0023 54.4551 21.6557C55.1064 22.3097 55.4324 23.1361 55.4324 24.1385C55.4324 25.1548 55.1102 25.9866 54.4659 26.6318ZM52.094 18.3237C50.3658 18.3237 48.9128 18.872 47.7343 19.9675C46.5551 21.064 45.9661 22.4541 45.9661 24.1385C45.9661 25.8229 46.5551 27.2127 47.7343 28.3092C48.9128 29.4057 50.3658 29.954 52.094 29.954C53.8365 29.954 55.2968 29.4057 56.4756 28.3092C57.6541 27.2127 58.2435 25.8229 58.2435 24.1385C58.2435 22.4541 57.6506 21.064 56.4648 19.9675C55.2787 18.872 53.8216 18.3237 52.094 18.3237Z" fill="black"/>
<path id="Fill 17" fill-rule="evenodd" clip-rule="evenodd" d="M76.715 22.7009C76.8759 22.0047 77.1939 21.4565 77.67 21.0571C78.1455 20.6577 78.7425 20.4579 79.4601 20.4579C80.0457 20.4579 80.5399 20.6684 80.943 21.0898C81.3452 21.5109 81.554 22.0478 81.5686 22.7009H76.715ZM79.4601 18.3237C77.7764 18.3237 76.4074 18.8651 75.3531 19.9464C74.2987 21.0281 73.7715 22.4258 73.7715 24.1385C73.7715 25.7647 74.3244 27.1403 75.4302 28.2661C76.5354 29.3906 77.9887 29.954 79.7896 29.954C80.3168 29.954 80.8332 29.8913 81.3382 29.768C81.8435 29.6452 82.2567 29.5105 82.5792 29.3651C82.901 29.2207 83.2121 29.0529 83.5126 28.8644C83.8132 28.6759 84.0068 28.5418 84.0941 28.4616C84.183 28.3822 84.2487 28.3199 84.2912 28.2765L83.1286 26.3595L82.7322 26.6645C82.4833 26.8681 82.0958 27.0752 81.5686 27.2857C81.0417 27.4966 80.5145 27.6014 79.9873 27.6014C79.1088 27.6014 78.3543 27.3396 77.7253 26.8168C77.0956 26.2944 76.7293 25.562 76.6271 24.6179H84.3588L84.4245 23.5937C84.4245 22.0699 83.9856 20.8103 83.1054 19.8152C82.2278 18.821 81.0122 18.3237 79.4601 18.3237Z" fill="black"/>
<path id="Fill 18" fill-rule="evenodd" clip-rule="evenodd" d="M106.76 26.6972C106.218 27.315 105.544 27.6234 104.74 27.6234C103.861 27.6234 103.18 27.2857 102.697 26.6107C102.214 25.9356 101.972 25.1334 101.972 24.2037C101.972 23.043 102.243 22.1677 102.784 21.5798C103.326 20.9919 103.992 20.6974 104.783 20.6974C105.618 20.6974 106.291 21.0174 106.804 21.6557C107.317 22.2946 107.573 23.1361 107.573 24.1826C107.573 25.2419 107.302 26.0801 106.76 26.6972ZM105.398 18.3237C104.915 18.3237 104.457 18.3892 104.025 18.5195C103.593 18.6501 103.257 18.792 103.015 18.9444C102.774 19.097 102.55 19.2748 102.345 19.4775C102.14 19.6811 102.012 19.8231 101.961 19.9024C101.91 19.9826 101.87 20.0443 101.84 20.0874H101.796V19.6522C101.796 18.9409 101.328 18.5846 100.391 18.5846H95.2955C94.5337 18.5846 94.036 18.934 93.8021 19.6301L93.739 19.8133L91.5182 26.2166L88.8822 19.6301C88.7356 19.2528 88.5524 18.984 88.3328 18.8245C88.1135 18.6649 87.8059 18.5846 87.4101 18.5846H85.2566L90.2219 29.6701L89.8483 30.5198C89.4529 31.4637 88.8378 31.9351 88.003 31.9351C87.3879 31.9351 86.8537 31.6815 86.3995 31.1729L85.3242 33.133L85.653 33.4159C85.8584 33.6047 86.1951 33.7933 86.6636 33.9827C87.1321 34.1712 87.6298 34.2657 88.1569 34.2657C89.0361 34.2657 89.8334 34.0224 90.5517 33.5358C91.268 33.0493 91.8175 32.3273 92.1986 31.3693L96.2181 21.3293C96.3203 21.0678 96.5327 20.9372 96.8545 20.9372H98.7871C99.1086 20.9372 99.2705 21.0967 99.2705 21.4159V34.0479H102.038V29.4523C102.038 29.0753 102.023 28.7552 101.994 28.4943H102.038L102.345 28.8644C102.55 29.097 102.919 29.3368 103.454 29.5829C103.989 29.8296 104.586 29.954 105.245 29.954C106.738 29.954 107.968 29.4196 108.935 28.3523C109.901 27.2857 110.384 25.8808 110.384 24.1385C110.384 22.411 109.93 21.0096 109.022 19.9351C108.114 18.8606 106.906 18.3237 105.398 18.3237Z" fill="black"/>
<path id="Fill 19" fill-rule="evenodd" clip-rule="evenodd" d="M120.29 26.6318C119.645 27.2788 118.855 27.6014 117.918 27.6014C116.996 27.6014 116.212 27.2788 115.568 26.6318C114.924 25.9866 114.601 25.1548 114.601 24.1385C114.601 23.1361 114.924 22.3097 115.568 21.6557C116.212 21.0023 116.996 20.6753 117.918 20.6753C118.84 20.6753 119.628 21.0023 120.279 21.6557C120.931 22.3097 121.256 23.1361 121.256 24.1385C121.256 25.1548 120.934 25.9866 120.29 26.6318ZM117.918 18.3237C116.19 18.3237 114.737 18.872 113.558 19.9675C112.38 21.064 111.791 22.4541 111.791 24.1385C111.791 25.8229 112.38 27.2127 113.558 28.3092C114.737 29.4057 116.19 29.954 117.918 29.954C119.661 29.954 121.121 29.4057 122.3 28.3092C123.478 27.2127 124.068 25.8229 124.068 24.1385C124.068 22.4541 123.475 21.064 122.289 19.9675C121.102 18.872 119.645 18.3237 117.918 18.3237Z" fill="black"/>
<path id="Fill 20" fill-rule="evenodd" clip-rule="evenodd" d="M131.644 27.3615C131.088 27.3615 130.58 27.2126 130.118 26.9155C129.657 26.6178 129.426 26.0696 129.426 25.2708V20.7848H131.974V18.5845H129.426V15.5579H126.702V18.5845H125.187V20.7848H126.636V25.6192C126.636 26.3311 126.75 26.9517 126.977 27.4814C127.203 28.012 127.482 28.4183 127.812 28.7013C128.141 28.9842 128.532 29.2124 128.987 29.3871C129.441 29.5614 129.844 29.6744 130.195 29.7244C130.547 29.7757 130.912 29.8012 131.293 29.8012C131.629 29.8012 131.916 29.7792 132.149 29.7351V27.3184L131.644 27.3615Z" fill="black"/>
<path id="Fill 21" fill-rule="evenodd" clip-rule="evenodd" d="M40.928 15.7106V20.7849H34.0532V15.7106C34.0532 15.202 33.9361 14.8284 33.7022 14.5886C33.4676 14.3488 33.0871 14.2289 32.5599 14.2289H31.176V29.6921H34.0532V23.2022H40.928V29.6921H43.8052V14.2289H42.4216C41.4256 14.2289 40.928 14.7233 40.928 15.7106Z" fill="black"/>
<path id="Fill 22" fill-rule="evenodd" clip-rule="evenodd" d="M67.4022 18.3237C66.3919 18.3237 65.5572 18.5557 64.898 19.0202C64.2394 19.4857 63.7563 20.0223 63.4487 20.6322H63.4049L63.4487 20.1529V19.8265C63.4487 18.9991 62.958 18.5846 61.9773 18.5846H60.7693V29.6921H63.5367V24.5958C63.5367 24.0441 63.6097 23.5506 63.7563 23.1151C63.9613 22.4331 64.3305 21.8848 64.8653 21.4703C65.3998 21.0571 66.0326 20.85 66.7652 20.85C67.4244 20.85 67.8818 21.0429 68.1379 21.4272C68.3941 21.8115 68.5226 22.3748 68.5226 23.1151V28.2113C68.5226 28.7341 68.6394 29.1111 68.8736 29.344C69.1079 29.5757 69.4888 29.6921 70.0159 29.6921H71.3119V22.5482C71.3119 19.7324 70.0083 18.3237 67.4022 18.3237Z" fill="black"/>
</g>
</g>
</g>
</svg>
