<svg width="101" height="134" viewBox="0 0 101 134" fill="none" xmlns="http://www.w3.org/2000/svg">
<g id="organizers-logo-vertical">
<g id="Group 7" opacity="0.49281">
<path id="Path 6" d="M56.0054 39.8912L45 29" stroke="#979797" stroke-width="0.585686"/>
<path id="Path 6_2" d="M45.0005 39.8912L56.0059 29" stroke="#979797" stroke-width="0.585686"/>
</g>
<g id="Group 7.1" opacity="0.49281">
<path id="Path 6_3" d="M56.0054 95.8912L45 85" stroke="#979797" stroke-width="0.585686"/>
<path id="Path 6_4" d="M45.0005 95.8912L56.0059 85" stroke="#979797" stroke-width="0.585686"/>
</g>
<g id="Group 2.1">
<g id="graphcms_logo_square">
<path id="BG" d="M20.7199 104.604L29.7481 109.859V109.859C31.1227 110.659 31.9689 112.133 31.9689 113.728V124.272V124.272C31.9689 125.867 31.1227 127.341 29.7481 128.141L20.7199 133.396V133.396C19.3374 134.201 17.6315 134.201 16.249 133.396L7.22083 128.141V128.141C5.84617 127.341 5 125.867 5 124.272V113.728V113.728C5 112.133 5.84617 110.659 7.22083 109.859L16.249 104.604V104.604C17.6315 103.799 19.3374 103.799 20.7199 104.604Z" fill="#162A4E"/>
<path id="Path" fill-rule="evenodd" clip-rule="evenodd" d="M31.0358 113.827C31.0358 112.441 30.3013 111.159 29.1079 110.463L20.3858 105.38C19.1856 104.68 17.7047 104.68 16.5045 105.38L7.78243 110.463C6.58907 111.159 5.85449 112.441 5.85449 113.827V124.017C5.85449 125.404 6.58907 126.686 7.78243 127.381L16.5045 132.465C17.7047 133.165 19.1856 133.165 20.3858 132.465L29.1079 127.381C30.3013 126.686 31.0358 125.404 31.0358 124.017V113.827ZM8.2308 111.24L16.9529 106.156C17.8761 105.618 19.0153 105.618 19.9385 106.156L28.6606 111.24C29.5786 111.775 30.1436 112.761 30.1436 113.827V124.017C30.1436 125.084 29.5786 126.07 28.6606 126.605L19.9385 131.689C19.0153 132.227 17.8761 132.227 16.9529 131.689L8.2308 126.605C7.31283 126.07 6.74777 125.084 6.74777 124.017V113.827C6.74777 112.761 7.31283 111.775 8.2308 111.24Z" fill="white"/>
<g id="Group-Clipped">
<g id="Group Clipped">
<mask id="mask0" mask-type="alpha" maskUnits="userSpaceOnUse" x="7" y="106" width="23" height="24">
<path id="path-4" fill-rule="evenodd" clip-rule="evenodd" d="M7.57178 114.278V114.278C7.57178 113.209 8.13732 112.221 9.05613 111.685V111.685L16.9927 107.052C17.9156 106.514 19.0543 106.513 19.9781 107.05V107.05L22.8502 108.72C22.8954 108.746 22.933 108.784 22.9591 108.829C23.0414 108.973 22.9927 109.156 22.8503 109.239V109.239L12.5014 115.26C12.4093 115.313 12.3526 115.412 12.3526 115.519V115.519V118.004C12.3526 118.057 12.3387 118.109 12.3123 118.155C12.2297 118.298 12.0474 118.347 11.9051 118.264V118.264L10.0563 117.184C10.0108 117.157 9.95926 117.143 9.90673 117.143C9.74219 117.143 9.60881 117.277 9.60881 117.443V123.833C9.60881 123.94 9.66572 124.039 9.75806 124.093V124.093L12.2033 125.51C12.2957 125.563 12.3526 125.662 12.3526 125.77V127.52C12.3526 127.573 12.3387 127.625 12.3123 127.671C12.2296 127.814 12.0473 127.863 11.905 127.779V127.779L9.05452 126.113C8.13662 125.577 7.57178 124.589 7.57178 123.521V123.521V114.278ZM13.7024 128.659V116.309C13.7024 116.202 13.7594 116.103 13.8517 116.049L18.3298 113.455C18.4222 113.402 18.536 113.402 18.6281 113.456L23.1077 116.076C23.1994 116.13 23.2559 116.229 23.2559 116.335V128.66V128.66C23.2559 128.767 23.1991 128.866 23.107 128.92L21.6775 129.75V129.75C21.535 129.833 21.3528 129.784 21.2705 129.641C21.2444 129.595 21.2306 129.543 21.2306 129.491V123.407C21.2306 123.241 21.0972 123.107 20.9327 123.107C20.88 123.107 20.8283 123.121 20.7828 123.148L18.6352 124.406C18.5424 124.46 18.4277 124.46 18.335 124.405L16.2012 123.149C16.0592 123.066 15.8767 123.114 15.7936 123.257C15.7669 123.303 15.7529 123.355 15.7529 123.408V129.494V129.494C15.7529 129.659 15.6195 129.794 15.4549 129.794C15.4032 129.794 15.3523 129.78 15.3073 129.754L13.8527 128.919V128.919C13.7598 128.866 13.7024 128.767 13.7024 128.659V128.659ZM29.393 114.117V115.532C29.393 115.638 29.337 115.737 29.2459 115.791L26.8089 117.23V117.23C26.7178 117.284 26.6618 117.382 26.6618 117.489V119.155C26.6618 119.321 26.7952 119.455 26.9597 119.455C27.012 119.455 27.0633 119.441 27.1085 119.415L28.9463 118.349C29.0888 118.266 29.271 118.315 29.3532 118.459C29.3793 118.504 29.393 118.556 29.393 118.608V123.518C29.393 124.587 28.8273 125.575 27.9082 126.111L25.075 127.764C24.9327 127.848 24.7504 127.799 24.6679 127.656C24.6415 127.61 24.6277 127.558 24.6277 127.505V125.818C24.6277 125.711 24.6844 125.612 24.7766 125.559L27.2057 124.147V124.147C27.2978 124.093 27.3546 123.994 27.3546 123.887V122.194C27.3546 122.028 27.2212 121.894 27.0567 121.894C27.0042 121.894 26.9527 121.908 26.9073 121.934L25.075 123.003C24.9326 123.086 24.7503 123.037 24.6678 122.894C24.6415 122.848 24.6277 122.796 24.6277 122.743V115.538V115.538C24.6277 115.431 24.5711 115.333 24.4793 115.279L20.2648 112.817V112.817C20.1225 112.734 20.0741 112.551 20.1567 112.407C20.1827 112.362 20.22 112.325 20.2649 112.298L24.4783 109.841C24.5707 109.787 24.6846 109.787 24.777 109.841L28.0285 111.736C28.873 112.228 29.393 113.135 29.393 114.117V114.117Z" fill="white"/>
</mask>
<g mask="url(#mask0)">
<g id="Group">
<g id="Group_2">
<g id="Group_3">
<path id="Polygon-2-Copy" d="M30.8758 111.629V126.373L18.214 133.746L18.187 118.966L30.8758 111.629Z" fill="#E6E6E6"/>
<path id="Polygon-2-Copy-2" d="M18.5081 118.881V131.616L7.58057 125.253V112.528L18.5081 118.881Z" fill="#D2D2D2"/>
<path id="Polygon-2" d="M18.5083 106.166L29.578 112.611L18.4847 119.056L7.43848 112.611L18.5083 106.166Z" fill="white"/>
</g>
</g>
</g>
</g>
</g>
</g>
</g>
<path id="Combined Shape" fill-rule="evenodd" clip-rule="evenodd" d="M86.2739 123.663V116.197L85.1811 120.269H83.8596L82.7159 116.197V123.663H81.1657V114.337H83.8087L84.5585 117.921L85.3209 114.337H87.8496V123.663H86.2739ZM77.3241 123.663H77.3243H77.3243C77.5488 123.663 78.7703 123.664 78.8343 123.647V122.13C78.7657 122.13 78.5144 122.128 78.2308 122.126L78.2306 122.126H78.2306C77.8638 122.123 77.4433 122.12 77.295 122.12C77.1115 122.12 76.9346 122.082 76.7989 122.006C76.6633 121.931 76.5551 121.778 76.4746 121.548C76.394 121.317 76.3346 121.02 76.2965 120.603C76.2583 120.186 76.2604 117.699 76.3028 117.291C76.3452 116.884 76.4088 116.6 76.4936 116.387C76.5784 116.174 76.7025 116.088 76.818 116.02C76.9336 115.953 77.1085 115.894 77.295 115.894C77.4125 115.894 77.7598 115.892 78.0983 115.889L78.0984 115.889L78.0985 115.889L78.0989 115.889C78.4204 115.886 78.7336 115.884 78.8343 115.884V114.353C78.6649 114.343 77.7912 114.345 77.7912 114.345C77.6555 114.331 76.5488 114.323 76.1756 114.425C75.8025 114.527 75.4887 114.711 75.2343 115.031C74.9799 115.35 74.7891 115.813 74.6619 116.42C74.5347 117.028 74.5262 120.681 74.6364 121.315C74.7467 121.949 74.9184 122.445 75.1516 122.804C75.3848 123.163 75.6795 123.409 76.0357 123.542C76.3639 123.665 76.7462 123.664 77.1824 123.663L77.295 123.663L77.3241 123.663ZM36.9429 121.278C36.9429 121.996 37.1384 122.534 37.5295 122.892C37.9206 123.251 38.482 123.43 39.2137 123.43H41.2952V118.772H39.1884V119.722H40.2481V122.468H39.0875C38.7763 122.468 38.524 122.375 38.3306 122.19C38.1371 122.004 38.0404 121.78 38.0404 121.519V116.481C38.0404 116.22 38.1371 115.996 38.3306 115.81C38.524 115.625 38.7763 115.532 39.0875 115.532H40.9167V114.57H39.2137C38.482 114.57 37.9206 114.749 37.5295 115.108C37.1384 115.467 36.9429 116.005 36.9429 116.722V121.278ZM45.4252 119.759H46.5492L48.1785 123.43H49.3783L47.6228 119.544C48.3805 119.308 48.7594 118.713 48.7594 117.76V116.544C48.7594 115.861 48.5763 115.361 48.21 115.045C47.8438 114.728 47.3028 114.57 46.5871 114.57H44.3265V123.43H45.4252V119.759ZM46.8164 115.503C47.139 115.503 47.3745 115.577 47.5231 115.726C47.6717 115.875 47.7459 116.116 47.7459 116.449V117.962C47.7459 118.295 47.6717 118.539 47.5231 118.692C47.3745 118.845 47.139 118.922 46.8164 118.922H45.492V115.503H46.8164ZM55.3158 121.19L55.7949 123.43H56.917L54.8241 114.57H53.3742L51.2434 123.43H52.3656L52.8573 121.19H55.3158ZM52.9531 120.088L53.9959 115.269L55.0516 120.088H52.9531ZM61.7284 119.987C62.4476 119.987 62.9913 119.825 63.3594 119.5C63.7276 119.175 63.9117 118.671 63.9117 117.987V116.544C63.9117 115.861 63.7254 115.361 63.353 115.045C62.9806 114.728 62.4305 114.57 61.7027 114.57H59.4039V123.43H60.5212V119.987H61.7284ZM61.8938 115.503C62.2164 115.503 62.452 115.575 62.6005 115.721C62.7491 115.867 62.8234 116.103 62.8234 116.428V118.139C62.8234 118.465 62.7491 118.703 62.6005 118.853C62.452 119.003 62.2164 119.078 61.8938 119.078H60.5695V115.503H61.8938ZM70.3648 119.354V123.43H71.4502V114.57H70.3648V118.418H67.7947V114.57H66.7093V123.43H67.7947V119.354H70.3648ZM94.6253 122.375C94.7713 121.998 94.8442 121.5 94.8442 120.879C94.8442 120.382 94.7963 119.966 94.7004 119.629C94.6045 119.292 94.4669 119.013 94.2876 118.791C94.1083 118.569 93.8956 118.394 93.6496 118.266C93.4036 118.137 93.1305 118.042 92.8303 117.98C92.6301 117.935 92.4675 117.887 92.3424 117.833C92.2173 117.78 92.1173 117.711 92.0422 117.627C91.9672 117.543 91.915 117.432 91.8858 117.295C91.8567 117.157 91.8421 116.982 91.8421 116.769C91.8421 116.432 91.938 116.189 92.1298 116.038C92.3216 115.887 92.5968 115.812 92.9554 115.812C93.0077 115.812 93.3708 115.81 93.7466 115.807C94.1496 115.805 94.5671 115.802 94.6316 115.802V114.337C94.5916 114.336 94.3246 114.339 94.022 114.341C93.6253 114.345 93.1676 114.349 93.0805 114.347C92.6051 114.34 92.1819 114.341 91.8108 114.435C91.4397 114.528 91.127 114.628 90.8726 114.841C90.6183 115.054 90.4265 115.329 90.2972 115.665C90.1679 116.002 90.1033 116.419 90.1033 116.916C90.1033 117.696 90.2513 118.299 90.5474 118.724C90.8434 119.15 91.3417 119.438 92.0422 119.589C92.209 119.624 92.3591 119.673 92.4925 119.735C92.626 119.797 92.7385 119.882 92.8303 119.988C92.922 120.094 92.9908 120.232 93.0367 120.4C93.0825 120.569 93.1055 120.773 93.1055 121.012C93.1055 121.438 92.9908 121.737 92.7615 121.91C92.5321 122.083 92.2215 122.169 91.8296 122.169C91.7662 122.169 91.374 122.168 90.9869 122.168C90.6096 122.167 90.237 122.166 90.1784 122.166V123.644C90.3361 123.655 91.8212 123.66 91.9546 123.66C92.0412 123.66 92.1264 123.661 92.2103 123.662C92.5304 123.665 92.8309 123.668 93.1117 123.619C93.4662 123.557 93.7705 123.45 94.0249 123.246C94.2792 123.042 94.4794 122.752 94.6253 122.375Z" fill="#162A4E"/>
</g>
<g id="Prisma Logo Dark">
<g id="path0_fill-link">
<path id="path0_fill" fill-rule="evenodd" clip-rule="evenodd" d="M27.2551 48.914L37.495 70.0784V70.0782C37.7068 70.5155 37.7102 71.0214 37.5043 71.4615C37.2957 71.9039 36.9003 72.2365 36.4203 72.3734L20.6626 76.9096C20.4993 76.9566 20.3332 76.9793 20.1681 76.9793C19.5854 76.9793 19.0248 76.6965 18.7012 76.2079L13.2727 68.0231C12.9163 67.4906 12.9087 66.8055 13.2531 66.2656L24.3587 48.758C24.6737 48.2602 25.2319 47.9677 25.8551 48.003C26.4583 48.0329 26.9959 48.3826 27.2551 48.9136V48.914ZM21.8323 74.835L35.2025 70.9862H35.2023C35.5821 70.8771 35.7722 70.4705 35.6054 70.1257L26.7617 51.847C26.5751 51.4615 25.9838 51.5276 25.8945 51.9437L21.1182 74.2079C21.0323 74.6089 21.4238 74.9528 21.8323 74.835Z" fill="#0C344B"/>
</g>
<g id="path1_fill-link">
<path id="path1_fill" fill-rule="evenodd" clip-rule="evenodd" d="M51.1419 63.2781C51.7899 62.7438 52.1137 61.9725 52.1137 60.9636C52.1137 59.9933 51.8097 59.2634 51.2014 58.7739C50.5932 58.2847 49.7051 58.0399 48.5367 58.0399H45.4604V67.4138H47.5025V64.0796H48.3787C49.5732 64.0796 50.4943 63.8127 51.1419 63.2781ZM48.1745 62.4511H47.5027V59.6684H48.4313C48.9891 59.6684 49.3984 59.7796 49.6599 60.0019C49.9211 60.2242 50.0518 60.5684 50.0518 61.0341C50.0518 61.4957 49.896 61.8473 49.5841 62.0889C49.2724 62.3304 48.8025 62.4511 48.1745 62.4511Z" fill="#0C344B"/>
</g>
<g id="path2_fill-link">
<path id="path2_fill" d="M57.5262 60.1108C57.7985 60.1108 58.0246 60.1301 58.2047 60.1686L58.0532 62.0022C57.8907 61.9596 57.6932 61.9381 57.4603 61.9381C56.819 61.9381 56.3196 62.0984 55.9614 62.419C55.6037 62.7396 55.4248 63.1885 55.4248 63.7656V67.4138H53.4155V60.2455H54.9372L55.2338 61.4509H55.3324C55.5532 61.0572 55.8714 60.7232 56.2582 60.4794C56.6467 60.2338 57.0693 60.1108 57.5262 60.1108Z" fill="#0C344B"/>
</g>
<g id="path3_fill-link">
<path id="path3_fill" fill-rule="evenodd" clip-rule="evenodd" d="M60.28 57.4373C59.551 57.4373 59.1865 57.7556 59.1865 58.3924C59.1865 59.0336 59.551 59.3542 60.28 59.3542C60.6445 59.3542 60.9178 59.27 61.1002 59.1011C61.2823 58.9322 61.3735 58.696 61.3735 58.3924C61.3735 57.7556 61.0088 57.4373 60.28 57.4373ZM61.281 67.4139H59.2718V60.2456H61.281V67.4139Z" fill="#0C344B"/>
</g>
<g id="path4_fill-link">
<path id="path4_fill" d="M68.3529 65.2852C68.3529 66.0206 68.0905 66.5805 67.5655 66.9651C67.0408 67.3498 66.2557 67.5422 65.2106 67.5422C64.6747 67.5422 64.2183 67.5069 63.8405 67.4363C63.4766 67.3699 63.121 67.2657 62.7799 67.1254V65.5096C63.1532 65.6808 63.5735 65.8238 64.0415 65.9393C64.5091 66.0545 64.9208 66.1123 65.2764 66.1123C66.0054 66.1123 66.3701 65.9072 66.3701 65.4969C66.3701 65.343 66.3218 65.218 66.2252 65.1218C66.1285 65.0256 65.9617 64.9167 65.7244 64.7946C65.4874 64.6728 65.1711 64.5309 64.7759 64.3683C64.2095 64.1376 63.7931 63.9239 63.5277 63.7271C63.2618 63.5306 63.0685 63.3051 62.948 63.0507C62.8271 62.7964 62.7666 62.4833 62.7666 62.1113C62.7666 61.4745 63.0201 60.982 63.5277 60.6336C64.0348 60.2852 64.7538 60.1111 65.6849 60.1111C66.5721 60.1111 67.435 60.2992 68.2738 60.6753L67.6679 62.0857C67.3297 61.9431 66.9845 61.8169 66.6335 61.7074C66.316 61.6097 65.985 61.5599 65.6521 61.56C65.0592 61.56 64.7626 61.716 64.7626 62.028C64.7626 62.2035 64.8584 62.3552 65.0492 62.4833C65.2404 62.6114 65.6586 62.8019 66.3041 63.0541C66.8796 63.2807 67.3013 63.4921 67.569 63.6887C67.8367 63.8854 68.0345 64.1118 68.1619 64.3683C68.2894 64.6248 68.3529 64.9305 68.3529 65.2852Z" fill="#0C344B"/>
</g>
<g id="path5_fill-link">
<path id="path5_fill" d="M76.3129 67.4138H74.3037V63.227C74.3037 62.7099 74.2146 62.3219 74.0371 62.0633C73.8589 61.8048 73.5791 61.6753 73.1969 61.6753C72.6833 61.6753 72.31 61.8591 72.0772 62.2268C71.8443 62.5945 71.728 63.1992 71.728 64.0414V67.4138H69.7188V60.2455H71.2537L71.5238 61.1625H71.6359C71.8334 60.8333 72.119 60.5756 72.4921 60.3898C72.8655 60.2039 73.2937 60.1108 73.7768 60.1108C74.8791 60.1108 75.6256 60.4615 76.0166 61.1625H76.1943C76.392 60.829 76.683 60.5704 77.0673 60.3866C77.4515 60.2028 77.8851 60.1108 78.3682 60.1108C79.2026 60.1108 79.8341 60.3194 80.2621 60.7359C80.6904 61.1527 80.9044 61.8206 80.9044 62.7396V67.4138H78.8886V63.227C78.8886 62.7099 78.7995 62.3219 78.622 62.0633C78.4438 61.8048 78.164 61.6753 77.7818 61.6753C77.2901 61.6753 76.9224 61.8464 76.6783 62.1883C76.4348 62.5304 76.3129 63.0731 76.3129 63.8168V67.4138Z" fill="#0C344B"/>
</g>
<g id="path6_fill-link">
<path id="path6_fill" fill-rule="evenodd" clip-rule="evenodd" d="M86.9556 66.4391L87.3443 67.4138H88.7473V62.637C88.7473 61.7821 88.4838 61.1452 87.9569 60.7264C87.4299 60.3075 86.6723 60.0979 85.6841 60.0979C84.6523 60.0979 83.7123 60.3139 82.8647 60.7456L83.53 62.0665C84.3248 61.7201 85.0166 61.5471 85.6051 61.5471C86.3692 61.5471 86.7513 61.9105 86.7513 62.637V62.9512L85.4734 62.9897C84.3711 63.0282 83.5467 63.2281 82.9996 63.5892C82.453 63.9506 82.1797 64.5116 82.1797 65.2723C82.1797 65.999 82.3828 66.5589 82.7889 66.9522C83.1952 67.3454 83.7516 67.5419 84.459 67.5419C85.0342 67.5419 85.5008 67.4618 85.8586 67.3015C86.2166 67.1412 86.5646 66.8539 86.9028 66.4391H86.9556ZM85.9742 64.1181L86.7516 64.0925V64.6823C86.7516 65.1143 86.612 65.4604 86.3331 65.721C86.0544 65.9818 85.682 66.1122 85.2166 66.1122C84.5667 66.1122 84.2417 65.8365 84.2417 65.2852C84.2417 64.9003 84.3843 64.6142 84.67 64.426C84.9554 64.2379 85.3901 64.1353 85.9742 64.1181Z" fill="#0C344B"/>
</g>
</g>
<g id="Honeypot">
<g id="Group 19">
<g id="Group 3">
<mask id="mask1" mask-type="alpha" maskUnits="userSpaceOnUse" x="0" y="3" width="18" height="19">
<path id="Clip 2" fill-rule="evenodd" clip-rule="evenodd" d="M0 3.32068V21.3051H17.323V3.32068H0L0 3.32068Z" fill="white"/>
</mask>
<g mask="url(#mask1)">
<path id="Fill 1" fill-rule="evenodd" clip-rule="evenodd" d="M17.3063 12.1075C17.2043 10.6677 16.8657 9.29335 16.3321 8.01674C16.1907 7.67861 16.0405 7.345 15.8723 7.02144C16.4684 6.67501 16.8692 6.0394 16.8692 5.31026C16.8692 4.21152 15.9615 3.32068 14.8416 3.32068H2.47335C1.35363 3.32068 0.445767 4.21152 0.445767 5.31026C0.445767 6.03881 0.846028 6.67399 1.44137 7.02071C1.27316 7.34412 1.12306 7.67759 0.981724 8.01557C0.447845 9.29247 0.109049 10.6673 0.00690531 12.1073C-0.000814858 12.2787 -0.00927734 12.45 -0.00927734 12.6232C-0.00927734 13.8678 0.197089 15.0644 0.572704 16.1857C0.684647 16.5013 0.900069 17.0448 1.16389 17.4077C1.19269 17.445 1.21986 17.4813 1.25282 17.5204C1.25668 17.525 1.26054 17.5301 1.2644 17.5346C1.38139 17.6725 1.52332 17.8204 1.69406 17.967C1.86643 18.1138 2.06596 18.2605 2.29311 18.383C2.51774 18.5051 2.77963 18.6036 3.03811 18.6364C3.30876 18.6744 3.59411 18.6288 3.81206 18.4787C4.03416 18.3325 4.19302 18.0762 4.28491 17.7868C4.46827 17.1999 4.44793 16.5352 4.39181 15.934C4.33035 15.3278 4.2184 14.7646 4.10735 14.2859C3.88168 13.328 3.66032 12.7059 3.66032 12.7059C3.66032 12.7059 3.92474 13.3107 4.219 14.2567C4.36449 14.7301 4.51741 15.289 4.62371 15.9037C4.72199 16.5173 4.80128 17.1932 4.64108 17.8841C4.55883 18.2235 4.38736 18.5816 4.07499 18.8234C3.76232 19.0695 3.37141 19.1457 3.02044 19.154C2.65091 19.1565 2.32281 19.0737 2.02528 18.9626C1.98906 18.9489 1.95818 18.9311 1.92284 18.9165C2.46696 19.7217 3.11486 20.4517 3.84338 21.0962C4.23206 21.3058 4.86526 21.4609 5.70394 21.0334C7.16647 20.2883 8.62899 20.2055 8.62899 20.2055C8.62899 20.2055 10.0914 20.2883 11.5539 21.0334C12.5364 21.5341 13.2372 21.2361 13.5922 20.9865C14.2686 20.3706 14.8734 19.6805 15.3859 18.9232C15.3531 18.9368 15.3243 18.9534 15.2906 18.9662C14.9931 19.0773 14.665 19.1601 14.2954 19.1576C13.9445 19.1492 13.5536 19.0731 13.2409 18.8271C12.9285 18.5851 12.7571 18.2271 12.6748 17.8877C12.5146 17.1967 12.5937 16.5209 12.6922 15.9073C12.7985 15.2925 12.9514 14.7337 13.0969 14.2604C13.3911 13.3142 13.6556 12.7094 13.6556 12.7094C13.6556 12.7094 13.4342 13.3315 13.2085 14.2895C13.0975 14.7681 12.9855 15.3314 12.9241 15.9376C12.868 16.5388 12.8476 17.2036 13.031 17.7902C13.1229 18.0799 13.2817 18.336 13.5038 18.4824C13.7218 18.6324 14.0073 18.678 14.2778 18.6399C14.5363 18.6072 14.7981 18.5086 15.0228 18.3867C15.2499 18.264 15.4495 18.1173 15.6218 17.9706C15.8537 17.7715 16.0294 17.572 16.1642 17.3959C16.3745 17.1022 16.5533 16.6966 16.6727 16.3862C17.0925 15.2079 17.3226 13.9421 17.3226 12.6232C17.3226 12.45 17.3142 12.2788 17.3063 12.1075Z" fill="#F6C724"/>
</g>
</g>
<path id="Fill 4" fill-rule="evenodd" clip-rule="evenodd" d="M6.83867 6.73153C6.83867 7.73426 6.01038 8.54716 4.9885 8.54716C3.96662 8.54716 3.13818 7.73426 3.13818 6.73153C3.13818 5.7288 3.96662 4.91589 4.9885 4.91589C6.01038 4.91589 6.83867 5.7288 6.83867 6.73153Z" fill="#FFFFFE"/>
<path id="Fill 5" fill-rule="evenodd" clip-rule="evenodd" d="M2.47367 4.31226C1.91188 4.31226 1.45654 4.75906 1.45654 5.31032C1.45654 5.66783 1.6497 5.97915 1.93757 6.15542C2.28958 5.58814 2.68242 5.0481 3.11445 4.54098C2.93911 4.40025 2.7179 4.31226 2.47367 4.31226Z" fill="#26292D"/>
<path id="Fill 6" fill-rule="evenodd" clip-rule="evenodd" d="M14.8419 4.31226C14.5972 4.31226 14.3757 4.40054 14.2002 4.54185C14.6321 5.04897 15.0248 5.58887 15.3768 6.15615C15.6654 5.98002 15.8591 5.66841 15.8591 5.31032C15.8591 4.75906 15.4037 4.31226 14.8419 4.31226Z" fill="#26292D"/>
<path id="Fill 7" fill-rule="evenodd" clip-rule="evenodd" d="M4.98891 5.92358C4.93175 5.92358 4.87608 5.92927 4.82234 5.94019C4.85529 6.00182 4.8743 6.07189 4.8743 6.14633C4.8743 6.39122 4.67194 6.58979 4.42222 6.58979C4.33849 6.58979 4.26025 6.56706 4.19284 6.52802C4.17562 6.59314 4.16553 6.66103 4.16553 6.73154C4.16553 7.17776 4.53417 7.53949 4.98891 7.53949C5.44366 7.53949 5.8123 7.17776 5.8123 6.73154C5.8123 6.28531 5.44366 5.92358 4.98891 5.92358Z" fill="#26292D"/>
<path id="Fill 8" fill-rule="evenodd" clip-rule="evenodd" d="M14.1756 6.73153C14.1756 7.73426 13.3473 8.54716 12.3254 8.54716C11.3035 8.54716 10.4751 7.73426 10.4751 6.73153C10.4751 5.7288 11.3035 4.91589 12.3254 4.91589C13.3473 4.91589 14.1756 5.7288 14.1756 6.73153Z" fill="#FFFFFE"/>
<path id="Fill 9" fill-rule="evenodd" clip-rule="evenodd" d="M12.3253 5.92358C12.2682 5.92358 12.2125 5.92927 12.1588 5.94019C12.1919 6.00182 12.2107 6.07189 12.2107 6.14633C12.2107 6.39122 12.0084 6.58979 11.7586 6.58979C11.6749 6.58979 11.5967 6.56706 11.5293 6.52802C11.512 6.59314 11.502 6.66103 11.502 6.73154C11.502 7.17776 11.8706 7.53949 12.3253 7.53949C12.7801 7.53949 13.1487 7.17776 13.1487 6.73154C13.1487 6.28531 12.7801 5.92358 12.3253 5.92358Z" fill="#26292D"/>
<path id="Fill 10" fill-rule="evenodd" clip-rule="evenodd" d="M11.1451 10.2374C11.1451 11.6007 10.0188 12.706 8.6295 12.706C7.24002 12.706 6.11377 11.6007 6.11377 10.2374C6.11377 8.87394 7.24002 7.7688 8.6295 7.7688C10.0188 7.7688 11.1451 8.87394 11.1451 10.2374Z" fill="#FFFFFE"/>
<path id="Fill 11" fill-rule="evenodd" clip-rule="evenodd" d="M9.93467 8.88936C9.93467 8.85527 9.92814 8.82308 9.91864 8.7919C9.91463 8.77661 9.91136 8.76757 9.91136 8.76757H9.91107C9.89919 8.73727 9.8833 8.70916 9.86371 8.68366L9.86386 8.68337C9.86386 8.68337 9.71613 8.38428 8.64437 8.38152V8.38123C8.64169 8.38123 8.63947 8.38137 8.63694 8.38137C8.63427 8.38137 8.63204 8.38123 8.62952 8.38123V8.38152C8.00597 8.38312 7.69583 8.48466 7.54513 8.56974C7.45413 8.60558 7.38271 8.67754 7.34782 8.76757H7.34738C7.34738 8.76757 7.34352 8.77821 7.33892 8.79598C7.33031 8.82585 7.32422 8.85673 7.32422 8.88936C7.32422 8.89228 7.32496 8.89505 7.32511 8.89796C7.31873 9.05311 7.37054 9.32626 7.72893 9.60641C8.05645 9.86237 8.31195 9.9575 8.46621 9.99363V12.6978C8.5204 12.7011 8.57429 12.7059 8.62937 12.7059C8.68445 12.7059 8.73849 12.7011 8.79268 12.6978V9.99363C8.94694 9.95736 9.20245 9.86223 9.52966 9.60641C9.88657 9.32743 9.93942 9.0553 9.93363 8.89985C9.93378 8.89636 9.93467 8.89301 9.93467 8.88936Z" fill="#26292D"/>
<path id="Fill 12" fill-rule="evenodd" clip-rule="evenodd" d="M4.58154 2.79112H12.6951C11.7236 2.13555 10.5825 1.70492 9.34622 1.58575L9.84298 0.258586C9.84298 0.258586 9.52675 0 8.63834 0C7.74993 0 7.4337 0.258586 7.4337 0.258586L7.93046 1.58575C6.6942 1.70477 5.5531 2.13555 4.58154 2.79112Z" fill="#F6C724"/>
<path id="Fill 13" fill-rule="evenodd" clip-rule="evenodd" d="M1.35687 16.5851C1.35687 16.5851 1.22236 16.4137 1.07434 16.1236C0.925427 15.8349 0.77429 15.4268 0.677788 15.0071C0.579801 14.5875 0.533035 14.1594 0.523533 13.8379C0.515071 13.5159 0.535559 13.301 0.535559 13.301C0.535559 13.301 0.551741 13.353 0.573863 13.4441C0.59539 13.535 0.626271 13.6648 0.66309 13.8207C0.734056 14.1317 0.819275 14.5447 0.916371 14.9536C1.00886 15.3636 1.1162 15.7693 1.20484 16.0739C1.24982 16.2269 1.28738 16.3542 1.31366 16.4434C1.34306 16.5328 1.35687 16.5851 1.35687 16.5851Z" fill="#FFFFFE"/>
<path id="Fill 14" fill-rule="evenodd" clip-rule="evenodd" d="M13.9035 13.9929C13.9035 13.9929 13.8998 14.1373 13.8769 14.3468C13.8527 14.5561 13.8055 14.8297 13.7489 15.1007C13.6902 15.3712 13.623 15.6399 13.5625 15.8415C13.5344 15.9426 13.5007 16.0259 13.4836 16.0854C13.4637 16.1444 13.449 16.178 13.449 16.178C13.449 16.178 13.4251 16.0354 13.4234 15.8221C13.4225 15.6093 13.451 15.3274 13.5095 15.0516C13.5687 14.776 13.657 14.5073 13.7415 14.3118C13.8273 14.1165 13.9035 13.9929 13.9035 13.9929Z" fill="#FFFFFE"/>
<path id="Fill 15" fill-rule="evenodd" clip-rule="evenodd" d="M2.44143 3.56237C2.44143 3.56237 2.29 3.61919 2.09269 3.73544C1.99322 3.79182 1.88246 3.86277 1.77171 3.94653C1.66006 4.02914 1.55035 4.12733 1.44939 4.23309C1.34532 4.33682 1.25817 4.45438 1.17458 4.56554C1.09946 4.68194 1.02656 4.7912 0.973561 4.89216C0.913878 4.98991 0.87216 5.07703 0.841576 5.13821C0.810102 5.19896 0.788574 5.23378 0.788574 5.23378C0.788574 5.23378 0.788871 5.19445 0.795701 5.12568C0.80639 5.05823 0.805945 4.95567 0.842615 4.84175C0.8683 4.72389 0.922044 4.59336 0.989595 4.45671C1.06279 4.32283 1.15825 4.18866 1.27123 4.06847C1.5012 3.83028 1.80081 3.66755 2.03894 3.6087C2.27738 3.54489 2.44143 3.56237 2.44143 3.56237Z" fill="#FFFFFE"/>
</g>
<g id="Group 21">
<path id="Fill 16" fill-rule="evenodd" clip-rule="evenodd" d="M41.5276 14.8612C41.0362 15.3546 40.433 15.6006 39.7188 15.6006C39.0154 15.6006 38.4177 15.3546 37.9264 14.8612C37.435 14.3691 37.1896 13.7348 37.1896 12.9598C37.1896 12.1954 37.435 11.5651 37.9264 11.0663C38.4177 10.5681 39.0154 10.3187 39.7188 10.3187C40.4224 10.3187 41.0222 10.5681 41.5194 11.0663C42.016 11.5651 42.2646 12.1954 42.2646 12.9598C42.2646 13.7348 42.0189 14.3691 41.5276 14.8612ZM39.7186 8.52539C38.4007 8.52539 37.2926 8.94349 36.3939 9.77897C35.4947 10.6152 35.0454 11.6753 35.0454 12.9598C35.0454 14.2444 35.4947 15.3042 36.3939 16.1404C37.2926 16.9766 38.4007 17.3947 39.7186 17.3947C41.0475 17.3947 42.1612 16.9766 43.0601 16.1404C43.9589 15.3042 44.4083 14.2444 44.4083 12.9598C44.4083 11.6753 43.9562 10.6152 43.0519 9.77897C42.1474 8.94349 41.0361 8.52539 39.7186 8.52539Z" fill="black"/>
<path id="Fill 17" fill-rule="evenodd" clip-rule="evenodd" d="M58.4947 11.8635C58.6174 11.3326 58.8599 10.9145 59.223 10.6099C59.5856 10.3053 60.0409 10.1529 60.5882 10.1529C61.0347 10.1529 61.4116 10.3135 61.719 10.6349C62.0257 10.956 62.1849 11.3654 62.1961 11.8635H58.4947ZM60.5882 8.52539C59.3042 8.52539 58.2602 8.93821 57.4561 9.76288C56.652 10.5878 56.25 11.6537 56.25 12.9598C56.25 14.2 56.6716 15.249 57.5149 16.1076C58.3578 16.9651 59.4661 17.3947 60.8395 17.3947C61.2415 17.3947 61.6353 17.347 62.0204 17.2529C62.4058 17.1593 62.7209 17.0566 62.9669 16.9457C63.2123 16.8355 63.4495 16.7076 63.6787 16.5638C63.9079 16.4201 64.0556 16.3178 64.1221 16.2566C64.1899 16.1961 64.24 16.1486 64.2725 16.1155L63.3858 14.6536L63.0835 14.8861C62.8938 15.0414 62.5982 15.1994 62.1962 15.3599C61.7944 15.5207 61.3923 15.6007 60.9903 15.6007C60.3203 15.6007 59.7449 15.401 59.2652 15.0023C58.785 14.6039 58.5057 14.0454 58.4277 13.3254H64.324L64.3741 12.5444C64.3741 11.3822 64.0394 10.4217 63.3682 9.6628C62.6989 8.90461 61.7719 8.52539 60.5882 8.52539Z" fill="black"/>
<path id="Fill 18" fill-rule="evenodd" clip-rule="evenodd" d="M81.4077 14.9111C80.9943 15.3823 80.4805 15.6175 79.8671 15.6175C79.1966 15.6175 78.6774 15.3599 78.3093 14.8451C77.9406 14.3303 77.7562 13.7185 77.7562 13.0095C77.7562 12.1244 77.9629 11.4569 78.3758 11.0086C78.7893 10.5602 79.2971 10.3356 79.9003 10.3356C80.5369 10.3356 81.05 10.5797 81.4411 11.0664C81.8323 11.5536 82.0274 12.1954 82.0274 12.9934C82.0274 13.8013 81.8207 14.4405 81.4077 14.9111ZM80.3692 8.52539C80.0006 8.52539 79.6513 8.57531 79.3219 8.67468C78.9924 8.77428 78.7361 8.88253 78.5519 8.99869C78.3675 9.1151 78.1973 9.2507 78.0407 9.40527C77.8841 9.56056 77.7865 9.6688 77.7478 9.72928C77.7086 9.79049 77.6781 9.83753 77.6556 9.87041H77.6217V9.53847C77.6217 8.99605 77.2647 8.72436 76.5502 8.72436H72.6645C72.0836 8.72436 71.7041 8.99077 71.5257 9.52167L71.4775 9.66136L69.7839 14.5446L67.7737 9.52167C67.6619 9.2339 67.5222 9.02893 67.3547 8.90725C67.1875 8.78556 66.9529 8.72436 66.6511 8.72436H65.0088L68.7954 17.1782L68.5105 17.8263C68.2089 18.5461 67.7398 18.9056 67.1032 18.9056C66.6341 18.9056 66.2268 18.7122 65.8804 18.3243L65.0603 19.8191L65.3111 20.0349C65.4677 20.1789 65.7245 20.3226 66.0818 20.4671C66.4391 20.6109 66.8186 20.6829 67.2206 20.6829C67.8911 20.6829 68.4991 20.4974 69.0469 20.1263C69.5932 19.7552 70.0122 19.2047 70.3029 18.4741L73.3682 10.8175C73.4461 10.618 73.6081 10.5184 73.8535 10.5184H75.3273C75.5725 10.5184 75.696 10.6401 75.696 10.8835V20.5168H77.8061V17.0122C77.8061 16.7246 77.7953 16.4805 77.773 16.2816H77.8061L78.0407 16.5638C78.1973 16.7412 78.4786 16.9241 78.8867 17.1118C79.294 17.2999 79.7496 17.3947 80.252 17.3947C81.3906 17.3947 82.3288 16.9872 83.0659 16.1733C83.8027 15.3599 84.1713 14.2885 84.1713 12.9598C84.1713 11.6424 83.8249 10.5736 83.1329 9.75424C82.4402 8.93485 81.5189 8.52539 80.3692 8.52539Z" fill="black"/>
<path id="Fill 19" fill-rule="evenodd" clip-rule="evenodd" d="M91.7254 14.8612C91.234 15.3546 90.6313 15.6006 89.917 15.6006C89.2134 15.6006 88.6155 15.3546 88.1247 14.8612C87.6333 14.3691 87.3871 13.7348 87.3871 12.9598C87.3871 12.1954 87.6333 11.5651 88.1247 11.0663C88.6155 10.5681 89.2134 10.3187 89.917 10.3187C90.6199 10.3187 91.2205 10.5681 91.7174 11.0663C92.2143 11.5651 92.4624 12.1954 92.4624 12.9598C92.4624 13.7348 92.217 14.3691 91.7254 14.8612ZM89.9169 8.52539C88.5989 8.52539 87.4908 8.94349 86.5919 9.77897C85.6929 10.6152 85.2437 11.6753 85.2437 12.9598C85.2437 14.2444 85.6929 15.3042 86.5919 16.1404C87.4908 16.9766 88.5989 17.3947 89.9169 17.3947C91.2455 17.3947 92.3592 16.9766 93.2581 16.1404C94.1569 15.3042 94.6063 14.2444 94.6063 12.9598C94.6063 11.6753 94.1542 10.6152 93.2499 9.77897C92.3449 8.94349 91.2339 8.52539 89.9169 8.52539Z" fill="black"/>
<path id="Fill 20" fill-rule="evenodd" clip-rule="evenodd" d="M100.385 15.4177C99.9601 15.4177 99.5726 15.3042 99.2207 15.0776C98.869 14.8506 98.6925 14.4325 98.6925 13.8233V10.4022H100.636V8.72432H98.6925V6.41614H96.6157V8.72432H95.46V10.4022H96.5654V14.089C96.5654 14.6319 96.6523 15.1052 96.8251 15.5092C96.9979 15.9138 97.2107 16.2237 97.4617 16.4395C97.7132 16.6552 98.0114 16.8292 98.3578 16.9624C98.7041 17.0954 99.0113 17.1816 99.279 17.2197C99.5474 17.2589 99.826 17.2783 100.117 17.2783C100.373 17.2783 100.591 17.2615 100.77 17.2279V15.3848L100.385 15.4177Z" fill="black"/>
<path id="Fill 21" fill-rule="evenodd" clip-rule="evenodd" d="M31.2035 6.53256V10.4022H25.9608V6.53256C25.9608 6.1447 25.8715 5.85981 25.6931 5.67692C25.5142 5.49403 25.224 5.40259 24.8219 5.40259H23.7666V17.195H25.9608V12.2458H31.2035V17.195H33.3977V5.40259H32.3426C31.5831 5.40259 31.2035 5.77964 31.2035 6.53256Z" fill="black"/>
<path id="Fill 22" fill-rule="evenodd" clip-rule="evenodd" d="M51.3928 8.52539C50.6224 8.52539 49.9858 8.70228 49.483 9.05653C48.9808 9.41151 48.6124 9.82073 48.3778 10.2859H48.3444L48.3778 9.92033V9.67144C48.3778 9.04045 48.0036 8.72436 47.2557 8.72436H46.3345V17.195H48.4449V13.3086C48.4449 12.8878 48.5006 12.5115 48.6124 12.1793C48.7688 11.6592 49.0503 11.2411 49.4581 10.925C49.8657 10.6099 50.3484 10.452 50.907 10.452C51.4097 10.452 51.7585 10.5991 51.9539 10.8921C52.1492 11.1852 52.2472 11.6148 52.2472 12.1793V16.0658C52.2472 16.4645 52.3363 16.752 52.5149 16.9296C52.6936 17.1062 52.984 17.195 53.3861 17.195H54.3744V11.7471C54.3744 9.59968 53.3803 8.52539 51.3928 8.52539Z" fill="black"/>
</g>
</g>
</g>
</svg>
