<svg width="100" height="38" viewBox="0 0 100 38" fill="none" xmlns="http://www.w3.org/2000/svg">
<g id="Prisma Logo Dark">
<g id="path0_fill-link">
<path id="path0_fill" fill-rule="evenodd" clip-rule="evenodd" d="M19.0934 1.19851L32.5207 28.951V28.9507C32.7986 29.5242 32.803 30.1876 32.5329 30.7646C32.2594 31.3447 31.7409 31.7809 31.1116 31.9604L10.4487 37.9086C10.2346 37.9703 10.0168 38 9.80025 38C9.03619 38 8.3011 37.6292 7.87683 36.9886L0.758417 26.256C0.291136 25.5577 0.281148 24.6593 0.732796 23.9513L15.2954 0.993968C15.7084 0.34114 16.4404 -0.0424228 17.2575 0.00388966C18.0485 0.0431355 18.7535 0.501677 19.0934 1.19792V1.19851ZM11.9823 35.1883L29.5145 30.1415H29.5142C30.0123 29.9984 30.2615 29.4652 30.0428 29.013L18.4462 5.04453C18.2015 4.53895 17.4262 4.62564 17.3091 5.1713L11.0459 34.366C10.9334 34.8918 11.4467 35.3427 11.9823 35.1883Z" fill="#0C344B"/>
</g>
<g id="path1_fill-link">
<path id="path1_fill" fill-rule="evenodd" clip-rule="evenodd" d="M50.4155 20.034C51.2653 19.3333 51.6899 18.3219 51.6899 16.999C51.6899 15.7266 51.2912 14.7695 50.4936 14.1276C49.696 13.4861 48.5315 13.1652 46.9994 13.1652H42.9656V25.457H45.6433V21.0849H46.7923C48.3585 21.0849 49.5664 20.7349 50.4155 20.034ZM46.5245 18.9495H45.6436V15.3006H46.8612C47.5926 15.3006 48.1295 15.4463 48.4723 15.7379C48.8148 16.0294 48.9862 16.4807 48.9862 17.0913C48.9862 17.6967 48.7819 18.1577 48.3729 18.4745C47.9641 18.7912 47.348 18.9495 46.5245 18.9495Z" fill="#0C344B"/>
</g>
<g id="path2_fill-link">
<path id="path2_fill" d="M58.7872 15.8807C59.1443 15.8807 59.4408 15.906 59.6769 15.9564L59.4783 18.3608C59.2651 18.305 59.0062 18.2768 58.7009 18.2768C57.8599 18.2768 57.2051 18.487 56.7353 18.9074C56.2662 19.3278 56.0317 19.9165 56.0317 20.6732V25.457H53.397V16.0574H55.3924L55.7813 17.6379H55.9106C56.2001 17.1216 56.6173 16.6838 57.1245 16.364C57.6339 16.0419 58.1881 15.8807 58.7872 15.8807Z" fill="#0C344B"/>
</g>
<g id="path3_fill-link">
<path id="path3_fill" fill-rule="evenodd" clip-rule="evenodd" d="M62.3982 12.3749C61.4423 12.3749 60.9644 12.7923 60.9644 13.6274C60.9644 14.4681 61.4423 14.8885 62.3982 14.8885C62.8762 14.8885 63.2346 14.7781 63.4737 14.5566C63.7125 14.3351 63.8321 14.0255 63.8321 13.6274C63.8321 12.7923 63.3538 12.3749 62.3982 12.3749ZM63.711 25.457H61.0763V16.0573H63.711V25.457Z" fill="#0C344B"/>
</g>
<g id="path4_fill-link">
<path id="path4_fill" d="M72.9839 22.6658C72.9839 23.63 72.6398 24.3642 71.9514 24.8686C71.2633 25.373 70.2339 25.6253 68.8635 25.6253C68.1607 25.6253 67.5623 25.579 67.0669 25.4864C66.5897 25.3993 66.1234 25.2627 65.6761 25.0788V22.96C66.1656 23.1844 66.7168 23.372 67.3305 23.5234C67.9435 23.6745 68.4834 23.7502 68.9498 23.7502C69.9057 23.7502 70.384 23.4813 70.384 22.9433C70.384 22.7415 70.3205 22.5776 70.1939 22.4514C70.0671 22.3252 69.8484 22.1825 69.5372 22.0224C69.2264 21.8627 68.8116 21.6766 68.2934 21.4634C67.5507 21.1609 67.0047 20.8807 66.6567 20.6227C66.3081 20.365 66.0546 20.0693 65.8966 19.7356C65.738 19.4022 65.6587 18.9916 65.6587 18.5039C65.6587 17.6688 65.9912 17.0231 66.6567 16.5662C67.3216 16.1093 68.2644 15.881 69.4854 15.881C70.6487 15.881 71.7803 16.1277 72.8802 16.6208L72.0856 18.4703C71.6422 18.2833 71.1895 18.1178 70.7292 17.9742C70.313 17.846 69.879 17.7808 69.4424 17.781C68.6649 17.781 68.276 17.9855 68.276 18.3946C68.276 18.6247 68.4017 18.8236 68.6518 18.9916C68.9025 19.1597 69.4509 19.4093 70.2973 19.7401C71.0519 20.0372 71.6049 20.3145 71.956 20.5722C72.3071 20.8302 72.5663 21.1271 72.7335 21.4634C72.9006 21.7998 72.9839 22.2006 72.9839 22.6658Z" fill="#0C344B"/>
</g>
<g id="path5_fill-link">
<path id="path5_fill" d="M83.4222 25.457H80.7875V19.9669C80.7875 19.2889 80.6707 18.78 80.438 18.441C80.2043 18.102 79.8374 17.9321 79.3363 17.9321C78.6628 17.9321 78.1732 18.1732 77.8679 18.6553C77.5626 19.1375 77.4101 19.9304 77.4101 21.0348V25.457H74.7754V16.0574H76.7882L77.1423 17.2597H77.2893C77.5483 16.8281 77.9228 16.4902 78.4121 16.2465C78.9016 16.0028 79.4631 15.8807 80.0967 15.8807C81.5421 15.8807 82.5209 16.3406 83.0336 17.2597H83.2667C83.5259 16.8224 83.9075 16.4834 84.4114 16.2423C84.9153 16.0013 85.4838 15.8807 86.1173 15.8807C87.2114 15.8807 88.0395 16.1542 88.6007 16.7004C89.1623 17.247 89.4429 18.1227 89.4429 19.3278V25.457H86.7996V19.9669C86.7996 19.2889 86.6828 18.78 86.4501 18.441C86.2165 18.102 85.8495 17.9321 85.3484 17.9321C84.7036 17.9321 84.2214 18.1566 83.9014 18.6049C83.5821 19.0534 83.4222 19.765 83.4222 20.7403V25.457Z" fill="#0C344B"/>
</g>
<g id="path6_fill-link">
<path id="path6_fill" fill-rule="evenodd" clip-rule="evenodd" d="M97.3775 24.1789L97.8872 25.457H99.7271V19.1932C99.7271 18.0722 99.3815 17.2371 98.6906 16.6879C97.9995 16.1387 97.006 15.8638 95.7103 15.8638C94.3573 15.8638 93.1247 16.147 92.0133 16.7131L92.8856 18.4451C93.9278 17.9909 94.8349 17.7641 95.6066 17.7641C96.6086 17.7641 97.1097 18.2406 97.1097 19.1932V19.6053L95.434 19.6558C93.9885 19.7062 92.9076 19.9684 92.1902 20.4419C91.4734 20.9157 91.115 21.6513 91.115 22.6488C91.115 23.6018 91.3813 24.336 91.9138 24.8517C92.4467 25.3673 93.1763 25.625 94.1038 25.625C94.8581 25.625 95.47 25.5199 95.9391 25.3097C96.4085 25.0996 96.8648 24.7228 97.3083 24.1789H97.3775ZM96.0904 21.1354L97.1097 21.1018V21.8752C97.1097 22.4416 96.9267 22.8956 96.561 23.2373C96.1956 23.5793 95.7073 23.7503 95.0969 23.7503C94.2447 23.7503 93.8186 23.3887 93.8186 22.6658C93.8186 22.1611 94.0056 21.7858 94.3802 21.5391C94.7544 21.2924 95.3245 21.1579 96.0904 21.1354Z" fill="#0C344B"/>
</g>
</g>
</svg>
